<?xml version="1.0" encoding="UTF-8"?>
<svg id="Layer_1" data-name="Layer 1" xmlns="http://www.w3.org/2000/svg" viewBox="0 0 3076.09 2320.46">
  <defs>
    <style>
      .cls-1 {
        fill: #5ad5d5;
      }
    </style>
  </defs>
  <path class="cls-1" d="m925.8,2323.46c3.43-4.4,6.55-9.1,10.35-13.15,27.49-29.36,55.12-58.6,82.68-87.89.44-.46.69-1.09,1.35-2.17-3.09-2.61-6.84-1.53-10.18-1.54-74.59-.07-149.19-.05-223.78-.05-20.31,0-40.63.22-60.94-.13-6.2-.1-10.56,1.84-14.84,6.26-28.92,29.9-58.1,59.55-87.12,89.36-2.77,2.84-5,6.2-7.48,9.31h-6c6.02-6.66,11.84-13.51,18.11-19.93,22.11-22.64,44.42-45.09,66.56-67.71,4.79-4.9,9.21-10.16,14.89-16.46h-106.82c-6.26,14.54-12.69,19.6-22.72,18.04-8.52-1.33-15.12-8.54-15.64-17.06-.45-7.48,5.57-16.17,12.78-18.45,9.92-3.14,17.14.72,24.89,13.64h7.64c46.99,0,93.99-.04,140.98.05,5.15.01,9.31-.78,13.33-4.81,81.87-82.16,163.91-164.14,245.9-246.17,1.16-1.16,2.21-2.43,3.66-4.03-3.26-2.91-7.02-1.81-10.38-1.82-58.99-.08-117.98-.06-176.98-.06-31.33,0-62.66.26-93.99-.18-7.97-.11-13.6,2.19-19.23,7.85-81.14,81.47-162.56,162.66-243.68,244.16-5.9,5.93-11.7,8.39-20.06,8.32-45.32-.39-90.65-.19-135.98-.19h-11.35c-6.48,15.42-12.86,20.4-23.05,18.69-8.77-1.47-14.73-8.27-15.14-17.28-.38-8.43,4.76-15.86,12.65-18.26,9.79-2.98,17.08.92,24.52,13.72h8.2c46.66,0,93.32-.13,139.98.15,6.59.04,11.09-2.08,15.63-6.64,82.14-82.36,164.47-164.53,246.55-246.94,5.39-5.41,10.78-7.56,18.34-7.55,140.98.19,281.96.08,422.94.31,7.97.01,13.59-2.21,19.21-7.87,53.78-54.16,107.91-107.97,161.66-162.15,5.42-5.47,10.81-8.27,18.3-7.28,1.31.17,2.66.03,4,.02,90.63-.29,181.26-.55,271.89-.91,9.69-.04,19.33-.82,29.07-.13,10.28.73,20.65.16,30.98.16h362.95c10.33,0,20.66,0,31,0,10,0,20,.02,30,0,210.27-.37,420.55-.75,630.82-1.13,3.99,0,7.98,0,10.49,0,88.34,83.72,175.71,166.51,262.94,249.18,15.36-2.19,22.73.51,26.63,9.6,3.43,7.99.93,17.12-6.09,22.3-6.37,4.7-16.15,4.39-22.26-.7-7.87-6.56-8.56-14.92-2.65-27.24-10.02-10.46-19.58-21.05-29.79-30.96-14.79-14.36-30.12-28.17-45.11-42.32-31.21-29.46-62.38-58.95-93.5-88.5-22.44-21.31-44.76-42.75-67.15-64.12-6.98-6.66-14.11-13.17-20.92-20-3.11-3.12-6.55-4.27-10.77-4.12-9.64.34-19.29.84-28.93.84-193.97.05-387.95-.11-581.92.08-160.61.16-321.23.76-481.84.94-7.66,0-13.12,2.36-18.47,7.66-28.87,28.59-58.01,56.92-87.11,85.28-22.41,21.84-44.88,43.62-67.38,65.38-28.72,27.77-57.49,55.49-86.21,83.24-1.66,1.6-3.17,3.37-4.96,5.29.85,2.56,2.01,4.97,2.43,7.51,1.39,8.26-4.24,15.51-12.33,16.19-7.58.64-14.66-5.26-15.22-12.68-.61-8.02,5.78-15.56,13.89-14.61,6.56.77,10.34-1.79,14.59-5.95,35.7-34.94,71.56-69.71,107.39-104.51,21.97-21.34,43.96-42.66,65.96-63.97,20.57-19.92,41.16-39.81,61.71-59.75,2.3-2.23,4.36-4.7,7.74-8.38-4.9-.24-8.06-.53-11.22-.53-43.66-.03-87.32-.13-130.98.01-46.97.15-93.94.6-140.91.75-4.93.02-8.69,1.04-12.36,4.73-53.84,54.1-107.84,108.03-161.79,162.02-1.38,1.38-2.63,2.89-4.07,4.5,7.22,2.44,160.98,3.37,182.09,1.22,1.18-2.73,2.27-5.82,3.81-8.66,3.77-6.93,12.15-10.84,19.34-9.28,8.48,1.84,14.2,8.29,14.75,16.63.53,8.09-3.81,15.4-10.97,18.47-7.73,3.31-16.83,1.64-21.28-5.71-3.57-5.91-7.85-6.82-13.89-6.81-56.99.15-113.99.17-170.98-.03-6.46-.02-11.18,1.73-15.77,6.43-19.3,19.8-38.98,39.22-58.34,58.6,2.19,12.7.66,18.13-5.84,21.43-5.67,2.87-12,1.79-16.51-2.81-4.38-4.47-5.21-10.89-2.15-16.52,3.43-6.31,8.84-7.68,19.38-5.35,20.35-20.34,40.34-40.32,60.55-60.53-1.12-.24-3.12-1.05-5.12-1.05-40.99-.07-81.99.09-122.98-.22-6.3-.05-9.67,3.34-13.45,7.11-64.79,64.82-129.61,129.63-194.42,194.43-15.55,15.55-31.12,31.1-46.65,46.67-2.28,2.29-4.43,4.71-7.8,8.31,3.95.2,6.44.45,8.93.45,248.97.02,497.93,0,746.9.14,5.82,0,9.6-1.54,13.42-6.07,4.84-5.72,13.66-5.45,18.87-.68,4.7,4.3,5.69,13.39,1.99,18.32-4.5,6-12.67,8.1-18.55,3.65-3.4-2.57-5.36-7.04-9.1-12.23h-8.96c-160.31,0-320.62.04-480.94-.14-7.18,0-12.14,1.88-17.15,7.29-28.03,30.28-56.54,60.1-84.79,90.18-1.97,2.1-3.13,4.97-4.67,7.48h-6Z"/>
  <path class="cls-1" d="m23.92,641.67c3.63-.27,7.26-.78,10.89-.78,76.3-.05,152.6.05,228.91-.18,7.2-.02,12.33,1.95,17.49,7.14,57.07,57.43,114.47,114.54,171.53,171.98,5.17,5.21,10.28,7.15,17.49,7.14,163.6-.18,327.2-.14,490.8-.14h11.58c.4-3.05.59-5.58,1.07-8.05,1.63-8.33,7.62-14.25,15.15-15.09,9.59-1.08,16.64,2.91,19.98,11.3,2.83,7.1,1,15.29-4.5,20.13-6.32,5.56-16.57,6.9-23.02,1.15-5.66-5.05-11.5-5.5-18.25-5.5-164.6.07-329.2,0-493.8.23-7.97.01-13.58-2.22-19.2-7.88-56.83-57.2-113.99-114.08-170.82-171.28-5.16-5.19-10.29-7.15-17.49-7.13-75.64.23-151.27.13-226.91.18-3.63,0-7.26.51-10.89.78,0-1.33,0-2.67,0-4Z"/>
  <path class="cls-1" d="m23.92,1859.51c80.98.02,161.97-.02,242.95.17,5.79.01,9.82-1.72,13.91-5.83,52.89-53.15,106.04-106.05,158.87-159.26,5.13-5.16,10.17-7.16,17.4-7.15,166.3.2,332.6.15,498.91.15,3.98,0,7.96,0,12.64,0,1.65-6.3,3.87-12.51,10.5-14.62,3.96-1.26,8.47-2.02,12.52-1.46,8.02,1.09,13.63,8.6,13.82,17.02.21,9.06-5.11,16.12-13.83,18.34-9.82,2.51-16.84-1.96-23.17-15.29h-10.49c-166.3,0-332.6.04-498.91-.15-7.23,0-12.27,1.98-17.4,7.15-52.84,53.21-105.98,106.11-158.87,159.26-4.09,4.11-8.11,5.85-13.91,5.83-81.65-.18-163.3-.15-244.96-.16v-4Z"/>
  <path class="cls-1" d="m23.92,105.73c3.63-.27,7.26-.78,10.89-.78,98.63-.04,197.27.04,295.9-.18,7.23-.02,12.35,2,17.5,7.17,87.26,87.57,174.77,174.9,262.02,262.48,5.39,5.41,10.76,7.51,18.3,7.48,74.31-.24,148.62-.15,222.93-.15h10.58c6.08-10.6,11.16-13.67,18.88-11.79,5.39,1.31,10.42,7.66,10.49,13.22.07,5.74-4.62,11.83-10.21,13.27-7.77,1.99-12.9-.93-19.35-11.57-3.45,0-7.41,0-11.37,0-74.98,0-149.95-.1-224.93.16-7.63.03-12.95-2.27-18.31-7.65-87.27-87.56-174.77-174.9-262.05-262.45-5.08-5.1-10.04-7.35-17.37-7.33-101.3.24-202.6.14-303.91.12v-2Z"/>
  <path class="cls-1" d="m23.92,1419.57c3.63-.27,7.26-.78,10.89-.78,107.93-.04,215.86.03,323.78-.17,7.18-.01,12.44,1.76,17.54,7.06,16.39,17.05,33.27,33.62,50.07,50.27,8.03,7.96,17.02,15.08,24.28,23.68,7.25,8.58,15.58,10.32,26.21,10.2,45.96-.51,91.92-.22,138.25-.22,1.36-2.29,2.45-4.7,4.04-6.73,5-6.37,14.31-7.04,20.38-1.64,5.36,4.77,5.77,14.48.83,19.83-5.41,5.87-14.68,5.69-20.35-.57-1.75-1.93-3.02-4.29-4.81-6.91-3.44,0-7.08,0-10.71,0-45.64,0-91.27-.12-136.91.14-6.18.03-10.46-1.77-14.78-6.16-25.95-26.33-52.28-52.29-78.27-78.6-4.28-4.33-8.54-6.37-14.78-6.36-108.93.18-217.85.12-326.78.16-2.96,0-5.92.51-8.89.78,0-1.33,0-2.67,0-4Z"/>
  <path class="cls-1" d="m23.92,1959.5c3.29-.27,6.59-.78,9.88-.78,46.95-.05,93.91.09,140.86-.17,6.91-.04,11.68,2.2,16.49,7.08,28.51,28.94,57.45,57.45,85.98,86.37,4.83,4.9,9.76,6.92,16.61,6.8,21.31-.37,42.62-.1,63.93-.16,6.49-.02,12.86.94,18.61-4.45,3.87-3.62,10.32-.87,12.55,3.86,2.41,5.11-.12,11.46-5.85,12.57-2.77.54-7.77-.46-8.73-2.32-3.45-6.73-9.09-5.61-14.6-5.62-22.64-.03-45.29-.24-67.93.12-6.85.11-11.77-1.91-16.6-6.81-28.53-28.92-57.47-57.43-85.98-86.37-4.81-4.88-9.59-7.12-16.49-7.08-46.29.26-92.57.12-138.86.17-3.29,0-6.59.51-9.88.78,0-1.33,0-2.67,0-4Z"/>
  <path class="cls-1" d="m23.92,919.63c51.93.02,103.87-.03,155.8.15,5.04.02,8.67-1.35,12.25-4.96,29.28-29.56,58.73-58.97,88.22-88.32,2.47-2.46,4.13-4.74,4.11-8.49-.15-24.29-.07-48.58-.07-72.7-2.81-2.26-5.7-3.98-7.76-6.39-2.92-3.41-2.19-8.54,1.04-11.63,2.93-2.8,8.94-3.4,11.96-.68,3.05,2.75,5.88,6.78,2.92,10.45-5.21,6.44-4.12,13.6-4.14,20.75-.06,19.97-.14,39.95.07,59.92.05,4.68-1.32,8.07-4.67,11.39-30,29.79-59.9,59.67-89.67,89.7-3.58,3.62-7.21,4.98-12.25,4.97-52.6-.18-105.2-.13-157.8-.15v-4Z"/>
  <path class="cls-1" d="m23.92,557.68c48.32.02,96.65-.05,144.97.17,5.79.03,9.83-1.7,13.91-5.83,28.11-28.45,56.56-56.55,84.68-84.99,4.31-4.36,8.61-6.37,14.83-6.28,22.99.34,45.99.22,68.98.08,7.53-.04,15.06.98,22.4-2.84,4.45-2.31,9.63,1,11.3,5.51,1.44,3.9-.55,8.83-4.5,11.1-4.13,2.38-9.2,1.12-12.15-3.23-1.1-1.62-1.71-3.56-2.75-5.83-2.52-.22-5.1-.62-7.68-.63-24.66-.05-49.33.12-73.99-.14-5.79-.06-9.97,1.68-14.02,5.81-17.01,17.39-34.26,34.55-51.54,51.68-11.59,11.48-23.58,22.56-34.96,34.24-4.08,4.19-8.55,4.4-13.62,4.39-44.66-.05-89.32-.05-133.98,0-3.96,0-7.93.51-11.89.78,0-1.33,0-2.67,0-4Z"/>
  <path class="cls-1" d="m23.92,1597.55c3.3-.27,6.59-.78,9.89-.78,46.32-.05,92.64.07,138.96-.16,6.48-.03,11.15,1.8,15.75,6.46,26.19,26.59,52.58,52.98,79.18,79.16,4.45,4.38,6.05,8.79,5.98,14.88-.3,23.64-.12,47.29-.12,70.51,2.58,2.38,5.13,4.06,6.76,6.4,2.86,4.09,2.03,8.48-1.57,11.63-3.26,2.85-8.66,3.01-11.94.34-3.31-2.69-5.03-8.75-1.88-11.6,5.69-5.15,4.61-11.31,4.62-17.49.04-19.99-.11-39.99.11-59.98.05-4.7-1.37-8.09-4.69-11.39-26.73-26.52-53.35-53.15-79.9-79.85-3.24-3.26-6.52-5.06-11.3-5.04-48.32.15-96.64.09-144.96.14-1.63,0-3.26.49-4.89.76,0-1.33,0-2.67,0-4Z"/>
  <path class="cls-1" d="m2863.15,2140.1c-6.58,4.62-10.95,1.41-15.34-3.21-16.27-17.14-32.65-34.17-49.09-51.14-24.1-24.87-48.3-49.62-72.42-74.46-20.64-21.25-41.26-42.52-61.82-63.84-24.96-25.87-49.93-51.73-74.68-77.8-4.24-4.47-8.58-6.22-14.81-6.22-247.26.16-494.52.16-741.78,0-6.22,0-10.49,1.82-14.74,6.24-32.3,33.6-64.84,66.97-97.27,100.45-18.99,19.6-37.91,39.27-56.89,58.87-31.73,32.76-63.63,65.35-95.17,98.29-18.06,18.86-9.33,15.29-35.66,15.32-164.28.15-328.57.08-492.86.07-5.95,0-11.35-.06-16.44,4.83-5.26,5.05-15.49,2.3-19.24-3.79-4.15-6.74-1.7-16.23,5.12-19.82,6.87-3.62,16.29-.27,19.32,7.04.86,2.09,1.08,4.44,1.83,7.75,3.58,0,7.17,0,10.77,0,166.95,0,333.9-.03,500.85.12,6.83,0,11.85-1.77,16.65-6.77,31.8-33.15,63.88-66.04,95.84-99.05,18.29-18.89,36.49-37.87,54.79-56.76,32.2-33.24,65.11-65.82,96.28-100,10.72-11.76,21.24-15.86,36.78-15.84,243.59.46,487.19.39,730.78.08,9.66-.01,16.12,3.03,22.46,9.77,19.85,21.08,40.18,41.72,60.32,62.53,30.57,31.57,61.14,63.13,91.71,94.7,19.91,20.56,39.85,41.1,59.69,61.72,12.92,13.43,25.65,27.05,38.57,40.48,4.53,4.7,8.52,10.45,16.44,10.45Z"/>
  <path class="cls-1" d="m1081.45,1268.66c-15.5-7.66-19.8-13.71-17.57-24.35,1.65-7.87,8.98-13.76,17.31-13.89,9.06-.15,16.28,5.32,18.3,13.87,2.26,9.57-1.81,16.5-14.05,23v11.48c0,72.97-.06,145.93.11,218.9.02,6.4-1.57,11.11-6.3,15.76-27.32,26.86-54.38,53.99-81.3,81.25-4.32,4.37-8.67,6.2-14.86,6.19-203.57-.15-407.14-.15-610.71,0-6.25,0-10.52-2.02-14.79-6.35-23.62-23.96-47.51-47.66-71.28-71.48-3.32-3.33-6.12-5.77-11.95-4.76-10.18,1.78-18.94-6.16-20.06-16.37-1.06-9.68,6.67-19,16.72-20.16,9.31-1.08,19.81,7.01,19.9,16.91.05,5.49-3.14,11.01-5.18,17.49.58.64,2.07,2.41,3.7,4.04,23.54,23.58,47.18,47.06,70.59,70.77,4.03,4.08,8.14,5.91,13.97,5.9,202.57-.13,405.14-.12,607.71-.04,5.29,0,9.33-1.19,13.27-5.16,27.43-27.7,55.18-55.07,82.62-82.74,2.07-2.09,2.94-5.61,3.75-8.63.58-2.18.12-4.63.12-6.97,0-70.97,0-141.93,0-212.9v-11.74Z"/>
  <path class="cls-1" d="m518.37,963.62c3.18,14.81.65,23.03-8.17,27.18-7.56,3.56-16.74,1.89-22.02-4.01-5.47-6.1-6.16-15.38-1.66-22.25,5.69-8.68,13.91-10.08,28.73-4.61,2.23-2.1,4.68-4.31,7.01-6.63,19.1-19.07,38.33-38.02,57.16-57.35,4.59-4.72,9.29-6.38,15.75-6.38,128.63.16,257.25.12,385.88.12,73.31,0,146.62.09,219.93-.14,6.83-.02,11.69,1.78,16.58,6.7,26.29,26.46,52.81,52.7,79.62,78.63,5.3,5.13,7.07,10.33,7.05,17.49-.22,73.64-.14,147.29-.14,220.93v10.75c14.28,8.7,18.46,15.84,15.35,25.79-2.19,7.02-11.14,13.14-18.52,12.68-7.94-.49-15.19-6.79-16.92-14.7-2.09-9.57,2.8-16.95,15.64-22.99.14-2.58.44-5.48.44-8.39.03-74.64-.06-149.29.17-223.93.02-6.27-1.96-10.5-6.3-14.78-25.85-25.51-51.61-51.13-77.01-77.08-5.57-5.69-11.19-8.01-19.17-7.99-155.95.22-311.9.16-467.85.16-43.99,0-87.97.11-131.96-.12-6.5-.04-11.19,1.81-15.76,6.49-19.32,19.79-39.02,39.2-58.57,58.77-1.87,1.87-3.6,3.87-5.26,5.66Z"/>
  <path class="cls-1" d="m950.03,460.87c5.44-13.63,12.5-18.66,22.57-16.99,7.9,1.31,14.12,8.27,14.82,16.6.71,8.36-4.36,16.38-11.85,18.78-10.26,3.29-17.54-.58-25.94-14.39h-12.31c-110.98,0-221.96-.13-332.94.22-9.87.03-16.59-3.07-23.41-9.93-78.74-79.15-157.81-157.98-236.61-237.07-5.09-5.11-10.11-7.41-17.43-7.36-43.99.33-87.98.16-131.98.16-3.31,0-6.61,0-10.23,0-1.28,2.72-2.27,5.11-3.49,7.37-4.51,8.41-11.88,11.81-20.73,9.67-8.34-2.03-13.91-8.68-14.24-17.02-.33-8.08,4.98-15.43,13.02-18.06,8.23-2.68,15.53-.06,20.75,7.62,1.46,2.15,2.58,4.53,4.14,7.28,3.56,0,7.19,0,10.82,0,44.66,0,89.32.13,133.98-.14,6.8-.04,11.68,1.71,16.61,6.63,62.66,62.68,125.56,125.13,188.38,187.65,17.72,17.63,35.45,35.25,52.96,53.09,4.02,4.1,8.13,5.98,13.97,5.97,113.98-.15,227.96-.11,341.94-.11,2.3,0,4.61,0,7.19,0Z"/>
  <path class="cls-1" d="m706.67,772.84c6.16-15.12,12.78-20.49,22.75-19.02,7.76,1.15,15.28,9.29,15.84,17.16.52,7.18-4.82,15.4-11.78,18.15-9.51,3.77-17.38.21-25.97-12.3h-11.32c-59.29,0-118.58-.15-177.86.17-8.59.05-14.78-2.25-20.95-8.47-64.55-64.99-129.41-129.66-194.13-194.47-2.58-2.58-4.69-5.62-7.22-8.68-7.3,4.17-14.17,5.99-20.93,3.44-3.48-1.31-6.69-4.43-9.01-7.5-4.56-6.02-3.15-16.08,2.4-22.11,5.45-5.92,14.23-7.26,22.01-3.36,8.41,4.22,10.87,12.65,7.47,26.63,2.05,2.17,4.24,4.62,6.57,6.94,65.47,65.48,130.99,130.91,196.34,196.51,4.8,4.82,9.57,7.08,16.5,7.06,59.95-.25,119.91-.14,179.86-.14h9.44Z"/>
  <path class="cls-1" d="m2284.37,2224.02c7.91.55,13.09,1.64,18.3-2.4,5.39-4.17,10.89-2.98,13.79,1.74,2.77,4.52,1.31,10.46-3.21,13.02-4.81,2.73-9.89.97-13.29-4.72-.64-1.08-.93-2.37-1.6-4.14h-10.98c-49.32,0-98.64-.25-147.96.19-11.1.1-22.17-.31-33.26-.2-3.99.04-7.35.17-10.65,3.77-4.58,4.99-11.97,3.97-15.69-.9-3.52-4.61-2.52-11.83,2.1-15.18,4.99-3.62,11.88-2.32,15.61,3.12,1.28,1.86,2.16,3.99,3.09,5.76h17.39c-2.16-2.69-3.36-4.5-4.85-6-23.29-23.36-46.69-46.62-69.87-70.09-3.81-3.86-7.75-5.44-13.17-5.42-49.32.17-98.64.09-147.96.1-3.96,0-7.75-.25-11,3.23-5.49,5.89-12.95,3.44-16.35-1.54-3.17-4.64-1.51-11.75,3.25-14.96,5.63-3.79,11.75-1.87,15.64,4.98.62,1.1.97,2.36,1.74,4.28h10.88c47.99,0,95.98.11,143.96-.13,6.88-.03,11.72,2.06,16.55,6.98,24.02,24.51,48.52,48.56,72.62,73.01,4.3,4.37,8.63,6.3,14.84,6.26,44.65-.25,89.31-.33,133.96.06,7.56.07,12.42-2.81,17.08-8.01,21.3-23.77,42.85-47.32,64.05-71.16,4.53-5.1,9.23-7.23,16.26-7.19,53.98.33,107.97.19,161.96.17,5.87,0,11.57.72,16.17-5.07,3-3.78,9.5-2.54,12.45.96,2.34,2.78,2.31,9.37-.05,12.21-2.66,3.2-9.93,4.53-12.6.97-4.53-6.05-10.31-5.05-16.14-5.05-53.32-.03-106.64.1-159.96-.16-6.58-.03-11.28,1.86-15.59,6.69-17.95,20.08-36.13,39.95-54.21,59.92-3.99,4.41-7.92,8.88-13.29,14.9Zm-189.1-1.9c-2.64-4.22-5.68-6.55-9.38-4.11-2.05,1.35-4.16,4.83-3.81,6.96.35,2.11,3.51,4.87,5.84,5.34,6.05,1.2,4.21-5.6,7.36-8.18Zm-224.28-85.15c-3.62-4.86-6.92-7.16-10.74-3.93-1.78,1.51-2.84,5.27-2.4,7.68.71,3.87,3.84,5.35,8.35,4.03-1.33-1.82-2.21-3.03-3.47-4.76,2.54-.93,4.78-1.75,8.25-3.03Z"/>
  <path class="cls-1" d="m1063.93,1136.79c7.53-10.99,12.69-13.77,20.32-11.36,5.03,1.59,9.08,7.36,9.15,13.03.07,5.49-4.18,11.44-9.24,12.97-7.75,2.33-13.03-.37-19.82-10.64h-9.41c-74.98,0-149.97.09-224.95-.14-7.2-.02-12.38,1.89-17.5,7.13-23.05,23.6-46.67,46.65-69.79,70.18-6.67,6.79-13.55,9.99-23.54,9.94-80.65-.46-161.3-.26-241.95-.26h-11.74c-1.46,3.3-2.32,6.18-3.9,8.61-3.87,5.96-13.92,7.54-19.56,3.35-6.02-4.48-7.43-13.52-3.07-19.63,4.15-5.82,14.92-7.95,19.4-2.35,5.11,6.4,11.05,6.06,17.66,6.06,81.32-.04,162.63-.15,243.95.16,8.05.03,13.5-2.41,19.03-8.08,23.75-24.32,48.1-48.05,71.89-72.32,4.86-4.96,9.8-6.8,16.63-6.78,74.98.2,149.97.13,224.95.13,3.97,0,7.95,0,11.47,0Z"/>
  <path class="cls-1" d="m839.2,982.81c-2.51,0-6.09,0-9.68,0-46.31,0-92.63.14-138.94-.14-7.51-.04-13.01,1.91-18.38,7.42-24.69,25.26-49.94,49.96-74.69,75.15-5.26,5.35-10.56,7.75-18.25,7.74-104.29-.25-208.58-.17-312.87-.17h-10.4c-4.9,4.39-8.37,8.34-12.65,10.98-2.15,1.33-5.89.88-8.67.21-5.8-1.4-9.02-6.34-9.09-12.73-.06-6.2,3.33-11.45,8.57-13.27,7.38-2.56,12.73.19,19.96,10.81,3.03,0,6.65,0,10.26,0,104.29,0,208.58-.08,312.87.17,7.68.02,12.99-2.37,18.25-7.73,24.75-25.19,49.95-49.95,74.73-75.12,4.53-4.61,9.06-6.63,15.61-6.59,47.98.27,95.96.13,143.94.17,6.25,0,11.86.22,17.09-5.22,5.06-5.26,14.5-3.25,18.69,2.27,3.93,5.18,3.52,14.24-.83,18.48-5.54,5.4-13.83,6.22-18.86.81-2.91-3.13-4.07-7.88-6.67-13.23Z"/>
  <path class="cls-1" d="m698.29,1737.58h-8.2c-60.3,0-120.6.03-180.9-.05-5.16,0-9.3.8-13.31,4.83-63.69,63.98-127.58,127.78-191.41,191.62-.93.93-1.75,1.97-2.81,3.18.84,3.45,2.11,6.88,2.44,10.4,1.11,11.83-6.53,20.12-18.06,19.99-11.14-.13-18.79-8.3-18.03-19.25.78-11.2,10.11-18.35,21.64-16.61.33.05.71.02.97.18,6.4,3.95,10.17-.11,14.33-4.29,52.94-53.06,105.97-106.04,158.98-159.04,8.95-8.95,18.27-17.57,26.72-26.97,5-5.56,10.45-7,17.56-6.97,58.97.22,117.94.12,176.9.12,2.33,0,4.67-.1,7,.02,4.26.22,7.48-.5,9.57-5.16,2.27-5.03,6.86-7.89,12.48-8.98,9.23-1.78,18.57,3.62,21.09,12.44,2.58,9.04-2.07,18.89-10.51,22.27-8.92,3.57-18.82.13-23.05-8.24-1.33-2.63-2.03-5.58-3.4-9.49Z"/>
  <path class="cls-1" d="m415.54,2114.3c0-51.19.16-101.51-.17-151.82-.05-7.64,2.29-12.93,7.66-18.24,38.84-38.45,77.47-77.1,115.93-115.93,4.84-4.88,9.66-6.89,16.55-6.87,108.63.2,217.27.14,325.91.14,3.99,0,7.99,0,11.83,0,2.13-2.75,3.69-5.76,6.12-7.65,3.22-2.5,9.42-1.32,11.82,1.68,2.75,3.45,3.35,7.14.64,10.99-2.66,3.79-7.76,6.04-11.3,3.09-6.8-5.67-14.35-4.06-21.74-4.07-106.97-.09-213.94,0-320.91-.21-6.84-.01-11.78,1.69-16.66,6.62-38.23,38.59-76.65,76.98-115.21,115.24-4.58,4.55-6.66,9.08-6.62,15.65.27,47.98.12,95.97.18,143.96,0,4.14-.66,8.09,3.39,11.77,4.5,4.09,3.64,9.62-.39,13.14-3.62,3.16-9.36,3.03-12.66-.29-3.67-3.69-3.13-9.89,1.32-14.04,1.2-1.12,2.65-1.96,4.31-3.17Z"/>
  <path class="cls-1" d="m1733.36,2298.27c2.39,1.64,4.49,2.73,6.14,4.29,3.48,3.3,3.8,9.32.96,12.69-2.67,3.17-8.24,4.05-11.85,1.88-4.36-2.62-6.65-8.24-3.3-11.89,4.77-5.19,4.04-10.86,4.04-16.69.04-49.3.12-98.61-.1-147.91-.03-6.13,1.65-10.49,6.07-14.87,40.21-39.88,80.28-79.9,120.11-120.16,4.72-4.77,9.5-6.16,15.83-6.15,96.28.13,192.55.09,288.83.09,3.98,0,7.95,0,11.96,0,1.53-2.61,2.52-5.13,4.21-7.02,3.12-3.5,7.9-3.75,11.81-1.09,3.95,2.68,5.21,8.2,2.84,12.43-2.04,3.63-7.77,6.25-11.16,3.63-6.87-5.31-14.42-3.91-21.87-3.92-94.61-.06-189.22.03-283.83-.18-7.18-.02-12.32,1.82-17.48,7.05-38.64,39.09-77.53,77.93-116.58,116.63-4.89,4.85-6.82,9.71-6.78,16.59.28,51.29.15,102.59.15,154.61Z"/>
  <path class="cls-1" d="m2671.92,2298.35c2.94,1.73,5.54,2.73,7.42,4.49,3.17,2.97,3.33,8.7.84,11.97-2.91,3.83-8.4,4.7-12.53,1.99-3.78-2.49-5.82-7.6-3.03-11.28,3.65-4.82,3.3-9.87,3.3-15.13.01-46.97-.11-93.94.14-140.91.03-6.19-1.83-10.46-6.19-14.79-42.08-41.78-84-83.72-125.79-125.78-4.29-4.32-8.55-6.36-14.78-6.35-93.28.19-186.55.12-279.83.15-4.25,0-8.26-.21-12.19,2.92-5.28,4.2-10.81,3.08-13.74-1.54-2.69-4.22-1.7-9.41,2.35-12.42,4.31-3.21,8.72-2.41,13.07,2.51,1.05,1.19,1.76,2.69,2.92,4.51h11.87c91.61,0,183.22.1,274.83-.17,7.98-.02,13.56,2.3,19.16,7.96,41.7,42.15,83.66,84.05,125.74,125.83,4.6,4.56,6.6,9.1,6.57,15.64-.26,46.3-.14,92.61-.14,138.91,0,3.66,0,7.31,0,11.49Z"/>
  <path class="cls-1" d="m1081.45,1695.64c-2.95-2.44-5.56-4-7.36-6.23-3.06-3.78-2.44-8.39,1.25-11.59,3.36-2.91,7.26-3.29,11.11-1.16,3.84,2.12,6.31,8.05,3.62,11.07-6.13,6.9-4.55,14.84-4.59,22.61-.11,20.66-.2,41.32.07,61.98.07,5.43-1.59,9.3-5.45,13.12-30.06,29.79-60.02,59.68-89.75,89.8-4.6,4.66-9.23,6.44-15.71,6.44-135.3-.16-270.59-.13-405.89-.1-6.18,0-12.27-.89-17.83,4-3.61,3.18-9.78.78-12-3.39-2.1-3.94-1.74-7.76,1.51-10.98,3.3-3.27,9.16-3.39,12.7-.04,1.62,1.54,2.61,3.75,4.38,6.4,3.13,0,6.75,0,10.38,0,134.96,0,269.93-.06,404.89.16,7.28.01,12.31-2.06,17.36-7.25,28.58-29.36,57.47-58.42,86.36-87.48,3.23-3.25,5.08-6.46,5.04-11.28-.21-25.32-.1-50.64-.1-76.09Z"/>
  <path class="cls-1" d="m1081.45,802.54c0-20.38-.09-40.03.07-59.69.03-4.04-1.42-6.87-4.19-9.63-30.23-30.1-60.41-60.25-90.49-90.49-2.84-2.85-5.85-4.15-9.76-3.9-2.32.15-4.66.02-7,.02-132.97,0-265.95,0-398.92.01-6.47,0-12.96-1.23-17.35,6.31-2.46,4.22-10.73,3.45-14.38,0-4-3.77-4.44-10.29-.99-14.5,3.41-4.16,10.86-6.04,14.23-1.91,6.21,7.62,13.99,6.07,21.7,6.07,132.97.03,265.95.1,398.92-.16,8.38-.02,14.19,2.42,20.03,8.38,27.75,28.33,55.8,56.37,84.13,84.13,6.01,5.89,8.46,11.85,8.16,20.19-.59,16.31-.34,32.66-.04,48.98.06,3.38,1.31,7.01,2.94,10.03,3.25,6.03,2.95,10.83-1.68,13.9-4.4,2.92-9.99,1.61-13.06-3.05-3.09-4.69-1.66-9.02,4.41-13.19.81-.55,1.8-.84,3.27-1.49Zm-529.4-169.47c-5.22-4.08-8.9-2.69-11.03,1.22-.96,1.75-.35,5.39.95,7.14,2.53,3.43,6.18,3.45,9.48.49.37-.33.32-1.13.47-1.75-1.83-1.05-3.66-2.09-5.88-3.37,2.27-1.41,3.85-2.38,6.03-3.74Z"/>
  <path class="cls-1" d="m2113.45,1958.69c1.95-2.86,2.98-5.02,4.59-6.61,3.27-3.23,8.39-3.43,11.84-.84,3.38,2.53,4.72,8.02,2.84,11.68-2.02,3.95-8.44,6.8-11.98,3.86-6.54-5.44-13.79-4.01-20.9-4.02-74.61-.09-149.23.06-223.84-.23-7.94-.03-13.61,2.1-19.25,7.78-55.63,56.01-111.45,111.84-167.47,167.46-5.46,5.42-7.59,10.86-7.38,18.38.45,16.64.16,33.31.13,49.96-.01,5.31-.58,10.29,5.74,13.45,3.58,1.79,5.12,6.72,1.98,10.39-2.13,2.49-5.63,4.93-8.71,5.21-4.19.38-7.59-2.85-8.29-7.19-.38-2.35.13-5.94,1.69-7.28,3.99-3.42,3.6-7.56,3.6-11.85,0-19.32.18-38.64-.11-57.96-.08-5.46,1.64-9.3,5.48-13.12,57.81-57.6,115.56-115.27,173.06-173.17,4.82-4.85,9.75-5.95,15.98-5.94,76.28.1,152.56.06,228.84.06h12.17Z"/>
  <path class="cls-1" d="m772.73,941.69h12.15c136.98,0,273.95.07,410.93-.18,8.04-.02,13.6,2.25,19.04,8.06,11.6,12.41,23.79,24.28,36.02,36.07,3.93,3.79,5.4,7.77,5.33,13.15-.26,18.98-.1,37.97-.1,57.47,2.36,1.08,4.86,1.86,6.94,3.26,5.01,3.37,6.49,10.16,3.55,15.02-3.2,5.29-10.33,6.78-15.76,3.3-4.88-3.13-7.16-10.34-3.03-14.69,4.92-5.18,4.27-10.77,4.29-16.61.06-15.33-.2-30.67.14-45.99.12-5.48-1.68-9.33-5.53-13.07-12.2-11.83-24.29-23.78-36.05-36.05-4.01-4.19-8.06-5.97-13.89-5.88-21.32.33-42.66.13-63.99.13-116.98,0-233.96,0-350.94,0-4.9,0-9.5-.41-13.59,4.13-3.57,3.96-10.21,2.5-13.07-1.54-2.79-3.93-2.06-9.23,1.73-12.55,3.91-3.43,9.07-2.81,13.08,1.72,1.06,1.2,1.78,2.71,2.76,4.25Z"/>
  <path class="cls-1" d="m2294.53,1955.56c3.81,0,7.47,0,11.12,0,74.64,0,149.29.08,223.93-.14,6.54-.02,11.05,1.99,15.61,6.58,57.12,57.39,114.37,114.66,171.79,171.75,4.67,4.64,6.51,9.27,6.38,15.72-.36,17.32-.14,34.65-.11,51.98,0,4.22-.41,8,4.54,11,4.83,2.93,4.6,9.25,1.1,13.12-3.31,3.66-8.89,4.08-12.59.94-3.78-3.21-4.76-9.52-.77-13.32,3.46-3.28,3.73-6.67,3.73-10.69-.04-17.66-.32-35.33.15-52.98.16-6.11-2.54-9.79-6.45-13.68-42.25-42.1-84.4-84.3-126.59-126.48-14.61-14.61-29.36-29.08-43.75-43.9-3.99-4.1-7.93-6.06-13.82-6.04-75.64.2-151.29.13-226.93.13-4.27,0-8.16-.12-11.82,3.59-3.98,4.04-10.24,3.03-13.29-.78-2.7-3.38-2.21-9.86.97-12.8,4.03-3.73,9.74-3.09,14.01,1.71,1.07,1.2,1.77,2.72,2.77,4.28Z"/>
  <path class="cls-1" d="m416.21,396.76c-2.53-1.96-4.88-3.32-6.61-5.24-2.92-3.23-2.82-8.88-.21-11.96,2.97-3.5,8.81-4.15,12.63-1.41,3.61,2.59,5.64,8.17,2.55,11.41-5.41,5.68-4.34,12.13-4.34,18.6-.04,45.31.07,90.63-.13,135.94-.03,6.03,1.36,10.49,5.84,14.94,38.83,38.45,77.42,77.13,115.95,115.88,4.01,4.03,8.04,6.04,13.92,6.03,108.29-.16,216.58-.12,324.87-.12,1.99,0,3.98,0,5.63,0,7.9-8.57,12.83-9.87,17.56-4.92,3.17,3.31,3.18,9.41.02,12.63-4.94,5.04-9.43,3.86-17.45-4.84h-11.69c-106.29,0-212.58-.07-318.87.16-7.3.02-12.32-2.11-17.39-7.27-29.46-29.91-59.22-59.52-88.97-89.15-9.2-9.16-18.5-18.23-28.06-27-4.05-3.72-5.36-7.75-5.34-13.12.17-46.65.1-93.29.1-139.94v-10.64Z"/>
  <path class="cls-1" d="m816.16,1341.07c0-27.2,0-54.17,0-81.15,0-9.99.15-19.99-.07-29.98-.09-4.3,1.12-7.71,4.17-10.72,12.07-11.96,23.93-24.13,36.19-35.9,2.12-2.03,5.67-2.8,8.71-3.56,2.2-.55,4.64-.11,6.97-.11,91.62,0,183.23,0,274.85-.01,5.86,0,11.43.65,16.34-4.78,3.92-4.34,11.5-2.32,14.84,2.45,3.08,4.39,2.13,11.2-2,14.41-4.43,3.44-11.66,2.69-15.2-1.81-1.41-1.8-2.28-4.01-4-7.12-2.77,0-6.01,0-9.25,0-91.95,0-183.9.06-275.85-.12-6.52-.01-11.25,1.78-15.74,6.54-10.05,10.66-20.5,20.96-31.07,31.11-3.69,3.55-5.03,7.27-5,12.32.18,34.31.09,68.63.1,102.94,0,3.6.02,6.81,2.84,10.07,4.43,5.14,3.46,10.54-1.21,13.78-3.93,2.73-9.64,1.96-12.58-1.69-3.19-3.96-2.05-10.08,2.7-13.95,1.23-1.01,2.7-1.73,4.26-2.71Zm346.47-154.75c1.69,1.04,3.62,2.95,5.87,3.46,3.93.89,7.19-2,7.48-5.84.29-3.9-2.4-6.95-6.53-6.88-1.14.02-2.6,1.17-3.31,2.22-1.26,1.86-2.05,4.04-3.51,7.05Z"/>
  <path class="cls-1" d="m724.34,1416.53c-8.2-8.29-8.16-8.39-3.51-18.15.82-1.72,1.27-3.79,1.27-5.69,0-38.95-.08-77.9-.18-116.86,0-.59-.49-1.17-1.12-2.59-3.12-.14-6.67-.45-10.23-.45-77.91-.03-155.82-.03-233.74,0-5.21,0-10.18-.64-14.06,5-2.77,4.04-8.85,3.05-12.29-.49-3.49-3.6-3.61-8.73-.3-12.66,3.05-3.63,9.06-4.7,12.35-.69,4.43,5.41,9.74,4.83,15.32,4.83,78.25,0,156.49,0,234.74,0h11.43c.72.83.94,1.07,1.15,1.33.21.25.52.49.6.78.17.64.3,1.31.3,1.97.01,40.61.01,81.23.01,121.99,5.01,2.95,10.67,5.28,9.55,12.52-.65,4.23-2.19,5.52-11.29,9.17Z"/>
  <path class="cls-1" d="m1141.33,1267.82c-12.42-7.2-17.17-15.04-14.58-24.05,2.24-7.79,9.81-13.52,17.83-13.5,9.04.02,15.55,5.29,17.82,14.43,2.46,9.9-1.59,16-16.29,23.59v78.22c0,26.32,0,52.64,0,78.96,0,25.99,0,51.98,0,77.9-2.5,0-2.89.11-3.11-.03-.24-.16-.42-.54-.48-.85-.17-.97-.36-1.96-.36-2.94-.14-76.95-.26-153.9-.4-230.85,0-.29-.27-.58-.42-.87Z"/>
  <path class="cls-1" d="m1028.12,1434.8c0,21.77-.17,43.09.11,64.4.08,5.78-1.62,9.97-5.8,13.98-12,11.54-23.89,23.23-35.29,35.36-4.99,5.31-10.14,7.24-17.41,7.23-134.9-.22-269.8-.16-404.71-.16h-11.69c-7.78,8.67-12.46,9.93-17.49,4.92-3.19-3.18-3.25-9.38-.13-12.63,4.75-4.94,9.94-3.62,17.76,4.85,3.6,0,7.58,0,11.57,0,133.24,0,266.47-.09,399.71.2,8.79.02,14.96-2.54,20.83-8.85,10.89-11.69,22.39-22.82,33.86-33.97,3.36-3.27,4.81-6.67,4.76-11.38-.21-19.65-.27-39.31.04-58.95.07-4.77-1.75-8.08-4.49-11.52-2.72-3.42-1.39-7.03.8-10.12,2.42-3.41,6.38-4.36,9.8-2.76,2.65,1.24,5.2,4.08,6.27,6.8.75,1.89-.56,5.16-1.92,7.16-1.42,2.09-3.99,3.38-6.6,5.46Z"/>
</svg>