<svg width="17" height="17" viewBox="0 0 17 17" fill="none" xmlns="http://www.w3.org/2000/svg">
<g clip-path="url(#clip0_1251_605)">
<path d="M15.0933 8.04235C15.0938 8.22161 15.0464 8.39775 14.9559 8.55253C14.8655 8.70731 14.7353 8.83511 14.579 8.92273L4.01943 14.9602C3.8679 15.0461 3.69682 15.0916 3.52264 15.0923C3.36215 15.0914 3.2042 15.0522 3.06197 14.9779C2.91974 14.9035 2.79736 14.7962 2.70504 14.6649C2.61272 14.5337 2.55314 14.3822 2.53128 14.2232C2.50942 14.0642 2.52591 13.9023 2.57938 13.751L4.27725 8.72339C4.29385 8.67423 4.32523 8.63141 4.36711 8.60079C4.40899 8.57017 4.45931 8.55325 4.51118 8.55234H9.05646C9.12542 8.55249 9.19368 8.53846 9.257 8.51112C9.32031 8.48378 9.37733 8.44372 9.42451 8.39341C9.47169 8.34311 9.50802 8.28364 9.53124 8.21871C9.55447 8.15377 9.5641 8.08475 9.55953 8.01594C9.54812 7.88658 9.48827 7.7663 9.39195 7.67919C9.29563 7.59208 9.16996 7.54458 9.04011 7.54619H4.51244C4.45981 7.5462 4.40851 7.5297 4.36576 7.49901C4.323 7.46833 4.29095 7.42501 4.27411 7.37515L2.57623 2.34818C2.50865 2.1555 2.5013 1.94681 2.55515 1.74985C2.60899 1.55289 2.72149 1.37697 2.8777 1.24547C3.0339 1.11397 3.22642 1.03311 3.42968 1.01362C3.63294 0.994142 3.83731 1.03696 4.01565 1.1364L14.5802 7.16637C14.7357 7.25378 14.8652 7.38097 14.9554 7.5349C15.0455 7.68882 15.0932 7.86396 15.0933 8.04235Z" fill="#949494"/>
</g>
<defs>
<clipPath id="clip0_1251_605">
<rect width="16.0984" height="16.0984" fill="white"/>
</clipPath>
</defs>
</svg>
