<svg xmlns="http://www.w3.org/2000/svg" width="155.538" height="38.664" viewBox="0 0 155.538 38.664">
  <g id="Group_105" data-name="Group 105" transform="translate(2876.338 -20.336)">
    <g id="Group_104" data-name="Group 104" transform="translate(-2876.338 20.336)">
      <path id="Path_40" data-name="Path 40" d="M56.877,26.575c1.645.132,3.174.268,4.7.372a1.214,1.214,0,0,1,.944.577,5.093,5.093,0,0,0,4.305,2.058c.789-.011,1.579.019,2.368-.006a5.109,5.109,0,0,0,5.039-4.948c.067-4.012.078-8.027-.01-12.038A5.926,5.926,0,0,0,68.429,7a6.056,6.056,0,0,0-6.195,5.593,6.092,6.092,0,0,0,4.675,6.257,5.323,5.323,0,0,0,3.139-.153c.75-.288.858-.021.837.648-.039,1.219-.052,2.442,0,3.659.034.716-.246.953-.921,1.037a10.938,10.938,0,0,1-8.643-2.317c-.734-.6-1.082-.453-1.715.088C54.993,25.75,47.432,24.572,44.443,19.5a8.714,8.714,0,0,1-1.126-4.514c-.011-3.857.015-7.714-.02-11.569-.007-.75.158-1.061.972-1.011a26.105,26.105,0,0,0,3.313,0c.824-.052.972.276.965,1.016-.033,3.817-.017,7.635-.014,11.453A3.769,3.769,0,0,0,51.8,18.848c2.2.5,4.592-.455,5.429-2.136a1.994,1.994,0,0,0,.086-1.373A11.177,11.177,0,0,1,75.525,4.529a10.634,10.634,0,0,1,3.9,8.269c.051,3.621.012,7.241.012,10.862,0,6.552-4.015,10.791-10.574,11.119-3.439.172-6.7-.315-9.316-2.846a7.927,7.927,0,0,1-2.671-5.357" transform="translate(-14.745 -0.021)" fill="#0a0c0d"/>
      <path id="Path_41" data-name="Path 41" d="M87.755,25.449v2.124c0,1.956,0,1.958-2,2.036-.315.012-.631,0-.947.009-2.382.1-2.394.106-2.3-2.291q.328-8.009.679-16.015a8.649,8.649,0,0,1,2.99-5.957C90.174,1.54,98.174,1.514,102,5.382c3.07,3.109,3.471,6.9,2.142,10.834a9.644,9.644,0,0,1-8.158,6.649,10.462,10.462,0,0,1-6.63-1.167c-1.458-.755-1.594-.663-1.6.918q0,1.416,0,2.832m5.91-7.546a5.184,5.184,0,0,0,5.417-5.185,4.834,4.834,0,0,0-5.22-5.243c-3.345,0-5.394,2.041-5.4,5.362a4.942,4.942,0,0,0,5.2,5.066" transform="translate(-15.209 -0.029)" fill="#f05b22"/>
      <path id="Path_42" data-name="Path 42" d="M129.695,17.077c0,1.691-.02,3.381.011,5.072.011.575-.2.738-.753.723q-1.891-.052-3.787,0c-.477.013-.757-.151-.849-.6-.17-.82-.551-.675-1.149-.375-4.613,2.317-10.767,1.346-13.707-2.226-2.7-3.285-2.99-7.037-1.567-10.89,1.387-3.756,4.4-5.595,8.238-6.22a13.685,13.685,0,0,1,5.515.157c5.052,1.239,7.858,4.671,8,9.871.042,1.493.006,2.988.006,4.483h.041m-11.065-9.6c-3.4-.053-5.675,2.026-5.716,5.227a5.518,5.518,0,0,0,10.991.565c.04-3.76-1.761-5.737-5.276-5.793" transform="translate(-15.499 -0.028)" fill="#f05b22"/>
      <path id="Path_43" data-name="Path 43" d="M155.948,16.2c.552,0,1.107.034,1.656-.008a2.189,2.189,0,0,1,1.942.86,3.774,3.774,0,0,0,4.588,1.082c.525-.217,1.092-.493,1.092-1.1a1.366,1.366,0,0,0-1.139-1.338c-1.528-.376-3.063-.722-4.594-1.087-.727-.174-1.459-.334-2.174-.548-2.215-.662-3.792-1.988-4.065-4.385a6.257,6.257,0,0,1,2.671-6.283c3.352-2.3,9.343-2.022,12.5.5a5.6,5.6,0,0,1,2.194,4.019c.048.525-.058.8-.678.787-1.34-.037-2.681-.027-4.021,0a1.923,1.923,0,0,1-1.307-.7,3.948,3.948,0,0,0-3.743-.913c-.765.2-1.453.694-1.4,1.529.044.775.712,1.144,1.491,1.274,1.825.305,3.674.459,5.473.921a6.3,6.3,0,0,1,5.142,5.966c.125,2.781-1.586,5.1-4.563,6.161a12.563,12.563,0,0,1-10.619-.711,6.306,6.306,0,0,1-3.274-5.4c-.046-.5.141-.624.58-.616.749.012,1.5,0,2.248,0" transform="translate(-16.044 -0.021)" fill="#f05b22"/>
      <path id="Path_44" data-name="Path 44" d="M147.264,8.823c-.631,0-1.263-.009-1.893,0a1.881,1.881,0,0,1-1.549-.674,4.564,4.564,0,0,0-4.407-.685,1.311,1.311,0,0,0-.748,1.355,1.171,1.171,0,0,0,1.068,1.095c1.434.25,2.883.409,4.315.667a8.352,8.352,0,0,1,4.867,2.177,5.92,5.92,0,0,1-1.42,9.356,12.492,12.492,0,0,1-12.019.008,5.869,5.869,0,0,1-3.173-4.557c-.153-.907.177-1.288,1.1-1.378a36.989,36.989,0,0,1,3.775.019,2.236,2.236,0,0,1,1.571.926,3.95,3.95,0,0,0,4.445.957c.484-.236,1.058-.477,1.012-1.16a1.416,1.416,0,0,0-1.077-1.268,41.429,41.429,0,0,0-4.724-1.039c-.577-.125-1.16-.226-1.73-.376-2.187-.576-3.794-1.829-4.235-4.118a6.027,6.027,0,0,1,2.04-5.964c3.4-2.973,10.144-2.791,13.483.276A8.073,8.073,0,0,1,149.93,8.26c.141.443,0,.569-.416.564-.75-.009-1.5,0-2.249,0" transform="translate(-15.798 -0.024)" fill="#f05b22"/>
      <path id="Path_45" data-name="Path 45" d="M28.107,4.457a8.586,8.586,0,0,1,8.36,6.064,5.2,5.2,0,0,0,.612,1.388.953.953,0,0,1-1.072,1.513c-.521-.175-.511-.644-.481-1.083.25-3.774-2.88-6.964-7.128-7.007a8.816,8.816,0,0,0-8.935,7.233,13.344,13.344,0,0,1-3.273,6.286c-.279.3-.555.827-1.028.367s.151-.633.376-.888a14.1,14.1,0,0,0,3.191-6.339,9.732,9.732,0,0,1,9.379-7.534" transform="translate(-14.41 -0.052)" fill="#17191a"/>
      <path id="Path_46" data-name="Path 46" d="M28.415,2.262c7.167.014,11.957,6.264,10.475,13.474a34,34,0,0,1-2.461,7.459c-.164.354-.225,1.03-.786.807-.576-.229-.142-.75,0-1.11a32.577,32.577,0,0,0,2.619-8.878A9.891,9.891,0,0,0,26.278,3.344c-.346.075-.695.135-1.042.207-.283.057-.6.1-.668-.26-.06-.329.223-.446.5-.53a10.889,10.889,0,0,1,3.341-.5" transform="translate(-14.523 -0.026)" fill="#17191a"/>
      <path id="Path_47" data-name="Path 47" d="M38.828,4.562c-.118.455-.25.886-.76.974s-1,0-1.082-.614c-.124-.9-.785-1.289-1.44-1.744C29.6-.957,21.8.866,17.534,6.573c-.2.271-.32.87-.854.51-.614-.414-.042-.737.186-1.041A14.537,14.537,0,0,1,28.031.022a12.158,12.158,0,0,1,7.9,2.332,7.646,7.646,0,0,0,2.362,1.515c.349.095.454.4.534.694" transform="translate(-14.427 0)" fill="#1a1b1c"/>
      <path id="Path_48" data-name="Path 48" d="M28.023,8.871a14.037,14.037,0,0,1,3.295.884c.417.111.491.476.439.856A.951.951,0,0,1,31,11.42a.615.615,0,0,1-.812-.292A1.7,1.7,0,0,0,28.628,9.9a4.325,4.325,0,0,0-3.047.651,4.726,4.726,0,0,0-1.861,3.037,17.251,17.251,0,0,1-5.114,9.1c-.285.275-.6.819-1.039.315-.391-.447.172-.664.427-.916a17.965,17.965,0,0,0,4.983-8.93,5.082,5.082,0,0,1,5.045-4.293" transform="translate(-14.439 -0.105)" fill="#d72028"/>
      <path id="Path_49" data-name="Path 49" d="M34.794,14.408a27.29,27.29,0,0,1-3.919,10.34c-.448.736-.982,1.421-1.481,2.126-.146.208-.351.36-.595.2s-.212-.4-.077-.625c.122-.2.247-.4.385-.592a28.241,28.241,0,0,0,4.837-11.513,5.869,5.869,0,0,0-3.058-6.012c-.276-.149-.567-.272-.848-.413-.237-.12-.582-.2-.47-.56.128-.413.515-.33.8-.243a5.335,5.335,0,0,1,1.291.556c2.224,1.423,3.112,3.542,3.139,6.735" transform="translate(-14.571 -0.083)" fill="#ffc80c"/>
      <path id="Path_50" data-name="Path 50" d="M30.29,13.854a17.691,17.691,0,0,1-1.365,4.922c-.1.258-.242.54-.6.408-.424-.157-.3-.471-.185-.783a23.949,23.949,0,0,0,1.211-3.932,2.454,2.454,0,0,0-.067-1.62,1.647,1.647,0,0,0-1.514-.962A1.726,1.726,0,0,0,26.131,13.2c-.349,1-.587,2.032-.908,3.04a18.2,18.2,0,0,1-2.71,5.2c-.186.254-.312.749-.786.405-.425-.309-.123-.6.086-.9a20.213,20.213,0,0,0,3.362-7.711,2.843,2.843,0,0,1,2.944-2.2,2.511,2.511,0,0,1,2.171,2.823" transform="translate(-14.487 -0.13)" fill="#1a1b1c"/>
      <path id="Path_51" data-name="Path 51" d="M23.444,4.157a.826.826,0,0,1-.6.905c-3.045.764-4.138,3.291-5.169,5.8-.577,1.4-.64,2.991-1.441,4.334A5.886,5.886,0,0,1,15.116,16.7c-.163.141-.37.346-.606.1a.372.372,0,0,1,.01-.533c1.459-1.668,1.787-3.805,2.4-5.815A11.766,11.766,0,0,1,20.258,5.4a6.4,6.4,0,0,0,1.6-1.706.678.678,0,0,1,.89-.382c.368.145.711.362.7.845" transform="translate(-14.403 -0.038)" fill="#17191a"/>
      <path id="Path_52" data-name="Path 52" d="M31.713,13.514c-.022-.266-.042-.423-.045-.579-.006-.305-.108-.718.3-.783.481-.075.57.365.575.713a9.046,9.046,0,0,1-.086,1.993A26.323,26.323,0,0,1,26.735,26.73c-.248.29-.482.773-.921.389s.022-.689.268-.971A25.414,25.414,0,0,0,31.593,14.7a9.334,9.334,0,0,0,.121-1.182" transform="translate(-14.536 -0.143)" fill="#d72028"/>
      <path id="Path_53" data-name="Path 53" d="M41.619,13.307c.081,1.48-.77,3.152-.544,4.953.053.427-.445.6-.834.71a.7.7,0,0,1-.826-.3c-.222-.329-.4-.7-.1-1.086,2.468-3.156,1.42-6.424.3-9.689a8.761,8.761,0,0,0-.42-.84c-.135-.291-.288-.615.118-.806s.562.172.7.435a14.467,14.467,0,0,1,1.6,6.626" transform="translate(-14.695 -0.073)" fill="#17191a"/>
      <path id="Path_54" data-name="Path 54" d="M21.373,25.948c-.5-.163-.411-.462-.146-.785.724-.877,1.471-1.736,2.178-2.627a18.939,18.939,0,0,0,3.048-5.4,2.75,2.75,0,0,0,.227-2.154c-.207-.477.114-.829.5-1.071a.749.749,0,0,1,1.041.228.812.812,0,0,1-.05,1.169,4.662,4.662,0,0,0-.846,1.791,22.053,22.053,0,0,1-5.264,8.4,1.142,1.142,0,0,1-.69.456" transform="translate(-14.481 -0.163)" fill="#ffc80c"/>
      <path id="Path_55" data-name="Path 55" d="M36.8,15.389a33.606,33.606,0,0,1-2.116,6.781c-.457,1.1-1.31,2.045-1.206,3.375.038.468-.5.682-.947.719a.9.9,0,0,1-.88-.658.67.67,0,0,1,.36-.973,2.922,2.922,0,0,0,1.3-1.6,32.946,32.946,0,0,0,2.627-7.64c.063-.309.1-.673.514-.664s.324.36.348.664" transform="translate(-14.606 -0.174)" fill="#17191a"/>
      <path id="Path_56" data-name="Path 56" d="M20.682,13.713c.487-2.573,1.578-4.746,4-6.046a11.8,11.8,0,0,0,2.075-1.1.746.746,0,0,1,.976-.056.839.839,0,0,1,.28.951c-.1.476-.458.59-.887.591-2.725,0-4.194,1.644-5.108,3.956a16.164,16.164,0,0,0-.445,1.818c-.08.3-.185.655-.607.562-.362-.08-.285-.411-.286-.679" transform="translate(-14.477 -0.075)" fill="#ffc80c"/>
      <path id="Path_57" data-name="Path 57" d="M28.225,20.429a4.143,4.143,0,0,1-.249.558c-.587.97-1.167,1.947-1.79,2.9a6.9,6.9,0,0,0-1.428,2.4c-.081.421-.449.524-.814.527a.853.853,0,0,1-.843-.7c-.1-.35-.1-.758.3-.921,2.151-.876,2.716-3.038,3.877-4.715.175-.253.241-.617.644-.556.193.029.357.172.307.507" transform="translate(-14.505 -0.235)" fill="#17191a"/>
      <path id="Path_58" data-name="Path 58" d="M21.07,16.522a1.337,1.337,0,0,1-.246.459c-1.219,1.028-1.911,2.48-2.98,3.626a4.95,4.95,0,0,1-.894.748.5.5,0,0,1-.65-.1c-.2-.244.024-.432.18-.594a17.162,17.162,0,0,0,1.73-1.92,4.067,4.067,0,0,0,1.058-2.3.9.9,0,0,1,1.043-.889c.5.038.721.416.76.963" transform="translate(-14.424 -0.184)" fill="#ffc80c"/>
      <path id="Path_59" data-name="Path 59" d="M21.238,22.784a3.823,3.823,0,0,1-1.82,1.979.506.506,0,0,1-.4-.152.448.448,0,0,1,.048-.424c.539-.563,1.077-1.131,1.668-1.637.384-.329.393.125.5.234" transform="translate(-14.457 -0.265)" fill="#1a1b1c"/>
      <path id="Path_60" data-name="Path 60" d="M164.626,27.391c0,.326,0,.652,0,.977l-.341-.006c0-.321,0-.643,0-.964l.347-.007" transform="translate(-16.177 -0.324)" fill="#d9d9d9"/>
      <path id="Path_61" data-name="Path 61" d="M160.027,27.607a.568.568,0,0,1,.547.627c-.023.314-.186.609-.578.59a.553.553,0,0,1-.546-.622.58.58,0,0,1,.577-.6" transform="translate(-16.119 -0.326)" fill="#d9d9d9"/>
      <path id="Path_62" data-name="Path 62" d="M138.382,28.264a.56.56,0,0,1-.6.558c-.506,0-.332-.408-.359-.678-.032-.3.054-.535.431-.5a.545.545,0,0,1,.532.617" transform="translate(-15.859 -0.327)" fill="#d9d9d9"/>
      <path id="Path_63" data-name="Path 63" d="M168.2,27.646c.427-.022.59.172.641.467a.566.566,0,0,1-.459.69c-.378.1-.47-.15-.456-.461.014-.286-.1-.648.273-.7" transform="translate(-16.22 -0.327)" fill="#d9d9d9"/>
    </g>
    <text id="SECURE_YOUR_IDENTITY_AS_YOU_ACCESS_E-SERVICES" data-name="SECURE YOUR IDENTITY AS
 YOU ACCESS E-SERVICES" transform="translate(-2800 52)" fill="#080808" font-size="5" font-family="Montserrat-ExtraBold, Montserrat" font-weight="800"><tspan x="0" y="0">SECURE YOUR IDENTITY AS</tspan><tspan x="0" y="6" xml:space="preserve"> YOU ACCESS E-SERVICES</tspan></text>
  </g>
</svg>
