<svg xmlns="http://www.w3.org/2000/svg" width="248.099" height="59.532" viewBox="0 0 248.099 59.532">
  <g id="Group_105" data-name="Group 105" transform="translate(2876.338 -20.336)">
    <g id="Group_104" data-name="Group 104" transform="translate(-2876.338 20.336)">
      <path id="Path_40" data-name="Path 40" d="M64.959,41.308c2.624.211,5.063.427,7.5.593a1.936,1.936,0,0,1,1.505.921A8.123,8.123,0,0,0,80.834,46.1c1.258-.017,2.519.03,3.777-.009A8.15,8.15,0,0,0,92.648,38.2c.107-6.4.124-12.8-.016-19.2a9.453,9.453,0,0,0-9.248-8.918C78.257,9.937,74.128,13.664,73.5,19c-.511,4.371,2.959,8.969,7.457,9.981a8.491,8.491,0,0,0,5.008-.244c1.2-.459,1.368-.033,1.335,1.034-.061,1.945-.084,3.895.008,5.837.054,1.143-.392,1.519-1.469,1.653a17.447,17.447,0,0,1-13.786-3.7c-1.171-.96-1.726-.722-2.736.14-7.367,6.283-19.427,4.4-24.2-3.69a13.9,13.9,0,0,1-1.8-7.2c-.017-6.152.024-12.3-.032-18.454-.011-1.2.252-1.693,1.551-1.612a41.64,41.64,0,0,0,5.285,0c1.315-.084,1.551.44,1.54,1.62-.052,6.089-.027,12.178-.022,18.268,0,3.4,1.787,5.569,5.211,6.341,3.517.791,7.325-.725,8.66-3.408a3.181,3.181,0,0,0,.137-2.189A17.829,17.829,0,0,1,94.7,6.141a16.962,16.962,0,0,1,6.225,13.19c.082,5.775.019,11.551.019,17.326,0,10.45-6.4,17.212-16.867,17.736-5.485.274-10.682-.5-14.861-4.54-2.67-2.579-3.628-4.467-4.261-8.545" transform="translate(2.247 1.049)" fill="#0a0c0d"/>
      <path id="Path_41" data-name="Path 41" d="M90.891,39.114V42.5c0,3.119,0,3.123-3.187,3.247-.5.019-1.007-.008-1.51.014-3.8.167-3.819.169-3.663-3.654q.523-12.775,1.083-25.546c.173-3.857,2.048-6.9,4.77-9.5C94.75.977,107.511.934,113.608,7.105c4.9,4.959,5.537,11.005,3.417,17.282-2.059,6.1-6.649,9.568-13.013,10.606a16.689,16.689,0,0,1-10.575-1.862c-2.325-1.2-2.542-1.058-2.546,1.464q0,2.258,0,4.517m9.427-12.036a8.269,8.269,0,0,0,8.641-8.27c.008-5.184-3.165-8.37-8.327-8.363-5.336.008-8.6,3.255-8.609,8.553,0,4.711,3.439,8.067,8.3,8.081" transform="translate(24.828 1.434)" fill="#f05b22"/>
      <path id="Path_42" data-name="Path 42" d="M143.17,25.835c0,2.7-.032,5.394.017,8.091.017.917-.317,1.177-1.2,1.154q-3.017-.083-6.04,0c-.761.02-1.207-.241-1.354-.952-.271-1.308-.88-1.077-1.833-.6-7.358,3.7-17.175,2.147-21.864-3.551-4.311-5.239-4.77-11.224-2.5-17.37,2.213-5.991,7.013-8.925,13.141-9.921a21.829,21.829,0,0,1,8.8.251c8.059,1.977,12.534,7.451,12.763,15.745.066,2.382.009,4.767.009,7.151h.065M125.52,10.517c-5.425-.085-9.052,3.231-9.117,8.338-.063,4.973,3.523,8.5,8.742,8.608,4.74.095,8.745-3.417,8.791-7.706.063-6-2.809-9.152-8.415-9.24" transform="translate(38.984 1.36)" fill="#f05b22"/>
      <path id="Path_43" data-name="Path 43" d="M157.635,24.762c.881,0,1.765.054,2.642-.013a3.491,3.491,0,0,1,3.1,1.371,6.02,6.02,0,0,0,7.318,1.726c.837-.347,1.742-.787,1.742-1.762a2.18,2.18,0,0,0-1.817-2.134c-2.437-.6-4.886-1.152-7.328-1.734-1.16-.277-2.326-.533-3.468-.875-3.534-1.056-6.048-3.171-6.485-7-.463-4.075.752-7.618,4.261-10.022,5.347-3.663,14.9-3.225,19.946.8a8.935,8.935,0,0,1,3.5,6.411c.077.837-.093,1.281-1.081,1.255-2.137-.058-4.276-.043-6.414-.008a3.067,3.067,0,0,1-2.085-1.119,6.3,6.3,0,0,0-5.971-1.456c-1.22.315-2.317,1.107-2.24,2.438.071,1.236,1.135,1.825,2.379,2.032,2.911.487,5.86.733,8.731,1.469,4.967,1.27,7.988,4.755,8.2,9.516.2,4.436-2.53,8.13-7.279,9.828a20.039,20.039,0,0,1-16.938-1.135c-3.42-1.843-4.874-4.886-5.222-8.612-.074-.8.225-.995.925-.982,1.195.019,2.391,0,3.586,0" transform="translate(65.526 1.051)" fill="#f05b22"/>
      <path id="Path_44" data-name="Path 44" d="M156.189,12.862c-1.007,0-2.014-.014-3.02,0a3,3,0,0,1-2.471-1.075c-1.345-1.5-5.287-2.035-7.03-1.092a2.09,2.09,0,0,0-1.193,2.161,1.868,1.868,0,0,0,1.7,1.746c2.287.4,4.6.653,6.883,1.064,2.861.517,5.626,1.244,7.763,3.472a9.443,9.443,0,0,1-2.265,14.924,19.927,19.927,0,0,1-19.172.013,9.362,9.362,0,0,1-5.061-7.27c-.244-1.447.282-2.054,1.753-2.2a59,59,0,0,1,6.021.03,3.566,3.566,0,0,1,2.506,1.477,6.3,6.3,0,0,0,7.09,1.526c.772-.377,1.688-.761,1.614-1.85a2.258,2.258,0,0,0-1.718-2.022,66.084,66.084,0,0,0-7.536-1.657c-.921-.2-1.85-.361-2.76-.6-3.488-.919-6.051-2.918-6.756-6.568a9.614,9.614,0,0,1,3.253-9.513c5.43-4.743,16.18-4.451,21.506.44,1.821,1.672,2.435,3.882,3.14,6.092.225.706,0,.908-.664.9-1.2-.014-2.391,0-3.587,0" transform="translate(53.515 1.173)" fill="#f05b22"/>
      <path id="Path_45" data-name="Path 45" d="M35.914,4.457A13.7,13.7,0,0,1,49.249,14.13a8.288,8.288,0,0,0,.976,2.215,1.521,1.521,0,0,1-1.71,2.413c-.831-.279-.815-1.028-.768-1.728.4-6.02-4.593-11.108-11.369-11.177-7.17-.076-12.715,4.51-14.252,11.538A21.285,21.285,0,0,1,16.9,27.418c-.444.485-.886,1.319-1.639.585s.241-1.01.6-1.417a22.493,22.493,0,0,0,5.09-10.111A15.524,15.524,0,0,1,35.914,4.457" transform="translate(-14.066 2.569)" fill="#17191a"/>
      <path id="Path_46" data-name="Path 46" d="M30.708,2.264c11.432.022,19.072,9.992,16.708,21.492a54.229,54.229,0,0,1-3.925,11.9c-.262.564-.359,1.642-1.253,1.288-.919-.366-.227-1.2.008-1.77,1.882-4.579,3.651-9.21,4.177-14.161A15.777,15.777,0,0,0,27.3,3.99c-.552.12-1.108.216-1.661.329-.451.091-.958.159-1.066-.415-.1-.525.356-.711.805-.845a17.368,17.368,0,0,1,5.329-.8" transform="translate(-8.55 1.302)" fill="#17191a"/>
      <path id="Path_47" data-name="Path 47" d="M52.172,7.278c-.188.725-.4,1.414-1.212,1.554s-1.59,0-1.726-.979c-.2-1.431-1.252-2.055-2.3-2.782-9.49-6.6-21.921-3.69-28.731,5.414-.325.432-.511,1.387-1.362.813-.979-.66-.066-1.176.3-1.66A23.189,23.189,0,0,1,34.949.035a19.393,19.393,0,0,1,12.605,3.72c1.212.875,2.252,2,3.767,2.416.556.151.723.642.851,1.107" transform="translate(-13.249 0)" fill="#1a1b1c"/>
      <path id="Path_48" data-name="Path 48" d="M34.325,8.871c1.868.039,3.5.944,5.255,1.411.665.177.783.76.7,1.365a1.517,1.517,0,0,1-1.2,1.291.98.98,0,0,1-1.3-.465,2.718,2.718,0,0,0-2.492-1.955,6.9,6.9,0,0,0-4.86,1.039A7.539,7.539,0,0,0,27.462,16.4,27.517,27.517,0,0,1,19.3,30.921c-.454.438-.95,1.307-1.657.5-.624-.712.274-1.059.681-1.461a28.656,28.656,0,0,0,7.949-14.244c.988-4.322,4.087-6.844,8.047-6.847" transform="translate(-12.656 5.112)" fill="#d72028"/>
      <path id="Path_49" data-name="Path 49" d="M38.468,18.789a43.53,43.53,0,0,1-6.251,16.494c-.714,1.174-1.567,2.267-2.363,3.39-.233.331-.56.574-.949.32s-.339-.637-.123-1c.194-.322.394-.64.615-.944a45.048,45.048,0,0,0,7.716-18.365A9.362,9.362,0,0,0,32.234,9.1c-.44-.238-.9-.433-1.352-.659-.378-.191-.928-.315-.75-.894.2-.659.821-.526,1.27-.388a8.51,8.51,0,0,1,2.059.887c3.548,2.27,4.964,5.649,5.008,10.744" transform="translate(-6.21 4.06)" fill="#ffc80c"/>
      <path id="Path_50" data-name="Path 50" d="M35.513,15.542a28.219,28.219,0,0,1-2.177,7.851c-.158.411-.386.861-.954.651-.676-.251-.478-.752-.295-1.248a38.2,38.2,0,0,0,1.932-6.272,3.915,3.915,0,0,0-.107-2.583A2.628,2.628,0,0,0,31.5,12.4a2.753,2.753,0,0,0-2.62,2.087c-.556,1.59-.936,3.241-1.449,4.848a29.032,29.032,0,0,1-4.322,8.294c-.3.405-.5,1.195-1.253.646-.678-.493-.2-.965.137-1.428a32.242,32.242,0,0,0,5.362-12.3,4.535,4.535,0,0,1,4.7-3.515c2.137.224,3.49,1.947,3.463,4.5" transform="translate(-10.306 6.35)" fill="#1a1b1c"/>
      <path id="Path_51" data-name="Path 51" d="M28.824,4.692a1.317,1.317,0,0,1-.96,1.444c-4.856,1.218-6.6,5.249-8.245,9.252-.921,2.237-1.021,4.771-2.3,6.913a9.389,9.389,0,0,1-1.78,2.4c-.26.225-.59.552-.966.153a.593.593,0,0,1,.016-.85c2.327-2.661,2.85-6.07,3.835-9.276a18.768,18.768,0,0,1,5.317-8.056,10.207,10.207,0,0,0,2.55-2.721,1.081,1.081,0,0,1,1.42-.61c.586.232,1.135.577,1.111,1.348" transform="translate(-14.403 1.878)" fill="#17191a"/>
      <path id="Path_52" data-name="Path 52" d="M35.332,14.329c-.035-.424-.068-.675-.073-.924-.009-.487-.172-1.146.485-1.248.768-.12.909.582.917,1.138a14.43,14.43,0,0,1-.137,3.179,41.988,41.988,0,0,1-9.134,18.937c-.4.462-.769,1.233-1.469.621s.035-1.1.427-1.549A40.538,40.538,0,0,0,35.14,16.214a14.89,14.89,0,0,0,.192-1.885" transform="translate(-7.933 6.998)" fill="#d72028"/>
      <path id="Path_53" data-name="Path 53" d="M43.145,17.542c.129,2.361-1.228,5.028-.868,7.9.085.681-.709.95-1.33,1.132a1.121,1.121,0,0,1-1.318-.481c-.355-.525-.638-1.113-.153-1.732,3.937-5.034,2.265-10.247.479-15.455a13.975,13.975,0,0,0-.67-1.34c-.216-.463-.459-.98.188-1.286.67-.318.9.274,1.113.694a23.076,23.076,0,0,1,2.56,10.569" transform="translate(-0.198 3.567)" fill="#17191a"/>
      <path id="Path_54" data-name="Path 54" d="M21.587,33.189c-.8-.26-.656-.738-.233-1.252,1.155-1.4,2.347-2.769,3.474-4.19a30.209,30.209,0,0,0,4.863-8.62c.4-1.11.9-2.191.363-3.436-.329-.761.181-1.322.8-1.709a1.2,1.2,0,0,1,1.66.364,1.3,1.3,0,0,1-.08,1.865,7.436,7.436,0,0,0-1.349,2.856,35.177,35.177,0,0,1-8.4,13.395,1.822,1.822,0,0,1-1.1.727" transform="translate(-10.594 7.942)" fill="#ffc80c"/>
      <path id="Path_55" data-name="Path 55" d="M39.917,15.784A53.606,53.606,0,0,1,36.542,26.6c-.728,1.751-2.09,3.261-1.923,5.383.06.747-.8,1.088-1.51,1.147a1.429,1.429,0,0,1-1.4-1.05,1.069,1.069,0,0,1,.574-1.553,4.661,4.661,0,0,0,2.074-2.558,52.552,52.552,0,0,0,4.19-12.186c.1-.493.158-1.073.82-1.059.64.013.517.574.555,1.059" transform="translate(-4.512 8.485)" fill="#17191a"/>
      <path id="Path_56" data-name="Path 56" d="M20.686,18.09c.777-4.1,2.517-7.571,6.382-9.643a18.822,18.822,0,0,0,3.31-1.75,1.19,1.19,0,0,1,1.557-.09,1.338,1.338,0,0,1,.446,1.516c-.166.76-.73.941-1.415.943-4.347,0-6.69,2.623-8.148,6.31a25.783,25.783,0,0,0-.709,2.9c-.128.478-.295,1.045-.968.9-.577-.128-.454-.656-.456-1.083" transform="translate(-10.788 3.664)" fill="#ffc80c"/>
      <path id="Path_57" data-name="Path 57" d="M31.308,20.734a6.61,6.61,0,0,1-.4.891c-.936,1.548-1.862,3.105-2.855,4.618-.816,1.244-1.98,2.268-2.278,3.829-.129.671-.716.835-1.3.84a1.36,1.36,0,0,1-1.345-1.11c-.162-.558-.167-1.209.471-1.469,3.431-1.4,4.333-4.845,6.184-7.52.279-.4.385-.984,1.028-.887.307.046.569.274.49.809" transform="translate(-9.424 11.476)" fill="#17191a"/>
      <path id="Path_58" data-name="Path 58" d="M23.957,17.1a2.132,2.132,0,0,1-.392.733c-1.945,1.639-3.048,3.956-4.754,5.783a7.9,7.9,0,0,1-1.426,1.193.8.8,0,0,1-1.037-.156c-.325-.389.038-.689.287-.947a27.375,27.375,0,0,0,2.76-3.063c.8-1.122,1.657-2.152,1.688-3.662a1.437,1.437,0,0,1,1.663-1.419c.8.06,1.151.664,1.212,1.537" transform="translate(-13.357 8.964)" fill="#ffc80c"/>
      <path id="Path_59" data-name="Path 59" d="M22.578,22.993c-.028.837-2.207,3.127-2.9,3.157a.807.807,0,0,1-.635-.243.715.715,0,0,1,.077-.676c.859-.9,1.718-1.8,2.661-2.612.613-.525.627.2.8.374" transform="translate(-11.762 12.926)" fill="#1a1b1c"/>
      <path id="Path_60" data-name="Path 60" d="M164.832,27.391c0,.52,0,1.04,0,1.559l-.544-.009c0-.512,0-1.026-.006-1.538l.553-.011" transform="translate(71.96 15.784)" fill="#d9d9d9"/>
      <path id="Path_61" data-name="Path 61" d="M160.371,27.607a.906.906,0,0,1,.873,1c-.036.5-.3.971-.922.941a.883.883,0,0,1-.872-.991.925.925,0,0,1,.921-.95" transform="translate(69.177 15.908)" fill="#d9d9d9"/>
      <path id="Path_62" data-name="Path 62" d="M138.96,28.633a.894.894,0,0,1-.963.891c-.807,0-.53-.651-.572-1.081-.05-.484.087-.853.687-.793a.869.869,0,0,1,.848.984" transform="translate(56.478 15.929)" fill="#d9d9d9"/>
      <path id="Path_63" data-name="Path 63" d="M168.364,27.647c.681-.035.941.274,1.023.746a.9.9,0,0,1-.731,1.1c-.6.162-.75-.24-.727-.736.022-.456-.165-1.034.435-1.11" transform="translate(74.057 15.93)" fill="#d9d9d9"/>
    </g>
    <text id="SECURE_YOUR_IDENTITY_AS_YOU_ACCESS_E-SERVICES" data-name="SECURE YOUR IDENTITY AS
 YOU ACCESS E-SERVICES" transform="translate(-2757.571 67.868)" fill="#080808" font-size="8.8" font-family="Montserrat-ExtraBold, Montserrat" font-weight="800"><tspan x="0" y="0">SECURE YOUR IDENTITY AS</tspan><tspan x="0" y="10" xml:space="preserve"> YOU ACCESS E-SERVICES</tspan></text>
  </g>
</svg>
