<svg xmlns="http://www.w3.org/2000/svg" width="109.717" height="24.54" viewBox="0 0 109.717 24.54">
  <g id="Group_106" data-name="Group 106" transform="translate(2882.427 44.54)">
    <g id="Group_103" data-name="Group 103" transform="translate(-2892.467 -44.54)">
      <path id="Path_40" data-name="Path 40" d="M52.877,19.282c1.161.093,2.239.189,3.318.262a.856.856,0,0,1,.666.407A3.592,3.592,0,0,0,59.9,21.4c.556-.008,1.114.013,1.67,0a3.6,3.6,0,0,0,3.554-3.49c.047-2.83.055-5.662-.007-8.492a4.18,4.18,0,0,0-4.09-3.944,4.232,4.232,0,0,0-1.072,8.359,3.755,3.755,0,0,0,2.215-.108c.529-.2.605-.015.59.457-.027.86-.037,1.722,0,2.581.024.505-.174.672-.65.731a7.715,7.715,0,0,1-6.1-1.635c-.518-.425-.763-.319-1.21.062a7.257,7.257,0,0,1-10.7-1.632,6.147,6.147,0,0,1-.794-3.184c-.008-2.721.01-5.441-.014-8.161,0-.529.112-.749.686-.713a18.415,18.415,0,0,0,2.337,0c.581-.037.686.194.681.717-.023,2.693-.012,5.385-.01,8.079a2.659,2.659,0,0,0,2.3,2.8,3.491,3.491,0,0,0,3.83-1.507,1.407,1.407,0,0,0,.061-.968A7.885,7.885,0,0,1,66.031,3.73a7.5,7.5,0,0,1,2.753,5.833c.036,2.554.008,5.108.008,7.662,0,4.621-2.832,7.612-7.459,7.843-2.426.121-4.724-.222-6.572-2.008a5.592,5.592,0,0,1-1.884-3.779" transform="translate(-13.117 -0.551)" fill="#0a0c0d"/>
      <path id="Path_41" data-name="Path 41" d="M86.2,18.685v1.5c0,1.379,0,1.381-1.409,1.436-.222.008-.445,0-.668.006-1.681.074-1.689.075-1.62-1.616q.231-5.649.479-11.3a6.1,6.1,0,0,1,2.109-4.2c2.815-2.691,8.459-2.709,11.155.02a7,7,0,0,1,1.511,7.643A6.8,6.8,0,0,1,92,16.862a7.38,7.38,0,0,1-4.677-.823c-1.028-.533-1.124-.468-1.126.648q0,1,0,2m4.169-5.323A3.657,3.657,0,0,0,94.193,9.7a3.41,3.41,0,0,0-3.683-3.7A3.513,3.513,0,0,0,86.7,9.788a3.486,3.486,0,0,0,3.669,3.574" transform="translate(-24.988 -0.753)" fill="#f05b22"/>
      <path id="Path_42" data-name="Path 42" d="M123.024,12.741c0,1.193-.014,2.385.008,3.578.008.406-.14.521-.531.51q-1.334-.037-2.671,0c-.337.009-.534-.107-.6-.421-.12-.579-.389-.476-.811-.264-3.254,1.635-7.6.949-9.669-1.57a7.385,7.385,0,0,1-1.106-7.682c.979-2.65,3.1-3.947,5.811-4.387a9.653,9.653,0,0,1,3.89.111,6.853,6.853,0,0,1,5.644,6.963c.029,1.053,0,2.108,0,3.163h.029m-7.806-6.774a3.637,3.637,0,0,0-4.032,3.687,3.892,3.892,0,0,0,7.753.4c.028-2.652-1.242-4.047-3.722-4.086" transform="translate(-32.431 -0.715)" fill="#f05b22"/>
      <path id="Path_43" data-name="Path 43" d="M155.113,11.967c.39,0,.781.024,1.168-.006a1.544,1.544,0,0,1,1.37.606,2.662,2.662,0,0,0,3.236.763c.37-.153.77-.348.77-.779a.964.964,0,0,0-.8-.944c-1.078-.265-2.161-.51-3.241-.767-.513-.123-1.029-.236-1.534-.387a3.574,3.574,0,0,1-2.868-3.094A4.414,4.414,0,0,1,155.1,2.929a8.274,8.274,0,0,1,8.821.353,3.951,3.951,0,0,1,1.547,2.835c.034.37-.041.567-.478.555-.945-.026-1.891-.019-2.836,0a1.356,1.356,0,0,1-.922-.495,2.785,2.785,0,0,0-2.64-.644c-.54.139-1.025.489-.991,1.078.031.546.5.807,1.052.9,1.287.215,2.592.324,3.861.65a4.443,4.443,0,0,1,3.627,4.208,4.392,4.392,0,0,1-3.219,4.346,8.862,8.862,0,0,1-7.491-.5,4.449,4.449,0,0,1-2.309-3.809c-.033-.354.1-.44.409-.434.528.008,1.057,0,1.586,0" transform="translate(-46.385 -0.552)" fill="#f05b22"/>
      <path id="Path_44" data-name="Path 44" d="M142.847,6.823c-.445,0-.891-.006-1.336,0a1.327,1.327,0,0,1-1.093-.475,3.219,3.219,0,0,0-3.109-.483.924.924,0,0,0-.528.956.826.826,0,0,0,.754.772c1.011.176,2.034.289,3.044.471A5.892,5.892,0,0,1,144.012,9.6a4.176,4.176,0,0,1-1,6.6,8.812,8.812,0,0,1-8.478.006,4.14,4.14,0,0,1-2.238-3.215c-.108-.64.125-.908.775-.972a26.092,26.092,0,0,1,2.663.013,1.577,1.577,0,0,1,1.108.653,2.786,2.786,0,0,0,3.135.675c.342-.167.747-.337.714-.818a1,1,0,0,0-.76-.894,29.225,29.225,0,0,0-3.333-.733c-.407-.088-.818-.16-1.221-.266a3.68,3.68,0,0,1-2.988-2.9,4.252,4.252,0,0,1,1.439-4.207c2.4-2.1,7.155-1.968,9.511.194a5.7,5.7,0,0,1,1.389,2.694c.1.312,0,.4-.293.4-.529-.006-1.057,0-1.586,0" transform="translate(-40.07 -0.616)" fill="#f05b22"/>
      <path id="Path_45" data-name="Path 45" d="M24.242,4.457a6.057,6.057,0,0,1,5.9,4.278,3.665,3.665,0,0,0,.431.979.673.673,0,0,1-.756,1.067c-.367-.123-.36-.454-.339-.764a4.8,4.8,0,0,0-5.028-4.943,6.219,6.219,0,0,0-6.3,5.1,9.413,9.413,0,0,1-2.309,4.434c-.2.215-.392.583-.725.259s.107-.447.265-.627a9.947,9.947,0,0,0,2.251-4.472,6.865,6.865,0,0,1,6.616-5.314" transform="translate(-4.54 -1.35)" fill="#17191a"/>
      <path id="Path_46" data-name="Path 46" d="M27.279,2.261c5.056.01,8.434,4.419,7.389,9.5a23.982,23.982,0,0,1-1.736,5.261c-.116.25-.159.726-.554.569s-.1-.529,0-.783a22.98,22.98,0,0,0,1.847-6.262,6.977,6.977,0,0,0-8.457-7.527c-.244.053-.49.1-.735.146-.2.04-.424.07-.471-.183-.043-.232.158-.314.356-.374a7.681,7.681,0,0,1,2.357-.352" transform="translate(-7.441 -0.684)" fill="#17191a"/>
      <path id="Path_47" data-name="Path 47" d="M32.223,3.218c-.083.321-.176.625-.536.687s-.7,0-.763-.433c-.087-.633-.553-.909-1.016-1.23A9.233,9.233,0,0,0,17.2,4.637c-.144.191-.226.613-.6.36-.433-.292-.029-.52.131-.734A10.255,10.255,0,0,1,24.606.015,8.576,8.576,0,0,1,30.18,1.66a5.394,5.394,0,0,0,1.666,1.069c.246.067.32.284.376.489" transform="translate(-4.97 0)" fill="#1a1b1c"/>
      <path id="Path_48" data-name="Path 48" d="M24.9,8.871a9.9,9.9,0,0,1,2.324.624c.294.078.346.336.309.6a.671.671,0,0,1-.532.571.433.433,0,0,1-.573-.206,1.2,1.2,0,0,0-1.1-.864,3.051,3.051,0,0,0-2.149.459A3.334,3.334,0,0,0,21.869,12.2a12.169,12.169,0,0,1-3.607,6.421c-.2.194-.42.578-.733.222-.276-.315.121-.468.3-.646a12.673,12.673,0,0,0,3.515-6.3A3.585,3.585,0,0,1,24.9,8.871" transform="translate(-5.282 -2.687)" fill="#d72028"/>
      <path id="Path_49" data-name="Path 49" d="M32.975,12.239a19.25,19.25,0,0,1-2.765,7.294c-.316.519-.693,1-1.045,1.5-.1.146-.247.254-.42.142s-.15-.282-.054-.441c.086-.142.174-.283.272-.418a19.921,19.921,0,0,0,3.412-8.121,4.14,4.14,0,0,0-2.157-4.241c-.194-.105-.4-.192-.6-.291-.167-.084-.411-.139-.332-.4.091-.291.363-.233.562-.171a3.764,3.764,0,0,1,.91.392c1.569,1,2.2,2.5,2.215,4.751" transform="translate(-8.67 -2.134)" fill="#ffc80c"/>
      <path id="Path_50" data-name="Path 50" d="M27.7,13.019a12.479,12.479,0,0,1-.963,3.472c-.07.182-.171.381-.422.288-.3-.111-.211-.332-.13-.552a16.894,16.894,0,0,0,.855-2.774A1.731,1.731,0,0,0,27,12.31a1.162,1.162,0,0,0-1.068-.679,1.218,1.218,0,0,0-1.159.923c-.246.7-.414,1.433-.641,2.144a12.839,12.839,0,0,1-1.911,3.668c-.131.179-.22.528-.554.286-.3-.218-.086-.427.061-.632A14.258,14.258,0,0,0,24.1,12.582a2.005,2.005,0,0,1,2.077-1.554A1.771,1.771,0,0,1,27.7,13.019" transform="translate(-6.517 -3.338)" fill="#1a1b1c"/>
      <path id="Path_51" data-name="Path 51" d="M20.78,3.893a.582.582,0,0,1-.425.639c-2.148.539-2.919,2.321-3.646,4.092a21.3,21.3,0,0,1-1.016,3.057,4.152,4.152,0,0,1-.787,1.062c-.115.1-.261.244-.427.068a.262.262,0,0,1,.007-.376c1.029-1.177,1.26-2.684,1.7-4.1a8.3,8.3,0,0,1,2.351-3.563,4.514,4.514,0,0,0,1.128-1.2.478.478,0,0,1,.628-.27c.259.1.5.255.491.6" transform="translate(-4.363 -0.987)" fill="#17191a"/>
      <path id="Path_52" data-name="Path 52" d="M29.922,13.11c-.015-.188-.03-.3-.032-.408,0-.215-.076-.507.215-.552.339-.053.4.257.406.5a6.381,6.381,0,0,1-.061,1.406,18.568,18.568,0,0,1-4.039,8.374c-.175.2-.34.545-.65.275s.015-.486.189-.685a17.927,17.927,0,0,0,3.887-8.079,6.585,6.585,0,0,0,.085-.834" transform="translate(-7.765 -3.679)" fill="#d72028"/>
      <path id="Path_53" data-name="Path 53" d="M40.864,11.21c.057,1.044-.543,2.224-.384,3.494.038.3-.314.42-.588.5a.5.5,0,0,1-.583-.213c-.157-.232-.282-.492-.068-.766,1.741-2.226,1-4.532.212-6.835a6.18,6.18,0,0,0-.3-.592c-.1-.2-.2-.434.083-.569s.4.121.492.307a10.205,10.205,0,0,1,1.132,4.674" transform="translate(-11.832 -1.875)" fill="#17191a"/>
      <path id="Path_54" data-name="Path 54" d="M21.267,22.364c-.353-.115-.29-.326-.1-.553.511-.619,1.038-1.225,1.536-1.853a13.359,13.359,0,0,0,2.15-3.812,1.94,1.94,0,0,0,.16-1.52c-.146-.337.08-.585.354-.756a.528.528,0,0,1,.734.161.572.572,0,0,1-.036.825,3.289,3.289,0,0,0-.6,1.263,15.556,15.556,0,0,1-3.713,5.924.806.806,0,0,1-.487.321" transform="translate(-6.366 -4.175)" fill="#ffc80c"/>
      <path id="Path_55" data-name="Path 55" d="M35.26,15.193a23.706,23.706,0,0,1-1.492,4.783c-.322.774-.924,1.442-.85,2.38.026.33-.353.481-.668.507a.632.632,0,0,1-.621-.464.473.473,0,0,1,.254-.687,2.061,2.061,0,0,0,.917-1.131,23.24,23.24,0,0,0,1.853-5.389c.045-.218.07-.475.362-.468s.229.254.245.468" transform="translate(-9.563 -4.461)" fill="#17191a"/>
      <path id="Path_56" data-name="Path 56" d="M20.68,11.546A5.64,5.64,0,0,1,23.5,7.282a8.324,8.324,0,0,0,1.464-.774.526.526,0,0,1,.689-.04.592.592,0,0,1,.2.671c-.073.336-.323.416-.626.417-1.922,0-2.958,1.16-3.6,2.79a11.4,11.4,0,0,0-.314,1.283c-.056.211-.13.462-.428.4-.255-.056-.2-.29-.2-.479" transform="translate(-6.264 -1.926)" fill="#ffc80c"/>
      <path id="Path_57" data-name="Path 57" d="M26.7,20.278a2.923,2.923,0,0,1-.176.394c-.414.685-.823,1.373-1.262,2.042a4.865,4.865,0,0,0-1.007,1.693c-.057.3-.316.369-.574.372a.6.6,0,0,1-.595-.491c-.072-.247-.074-.535.208-.65,1.517-.618,1.916-2.143,2.735-3.326.123-.178.17-.435.454-.392.136.02.252.121.217.358" transform="translate(-6.981 -6.033)" fill="#17191a"/>
      <path id="Path_58" data-name="Path 58" d="M19.641,16.238a.943.943,0,0,1-.174.324,27.184,27.184,0,0,0-2.1,2.557,3.492,3.492,0,0,1-.631.528.353.353,0,0,1-.459-.069c-.144-.172.017-.3.127-.419A12.106,12.106,0,0,0,17.623,17.8a2.869,2.869,0,0,0,.747-1.619.636.636,0,0,1,.735-.627c.352.026.509.293.536.68" transform="translate(-4.913 -4.712)" fill="#ffc80c"/>
      <path id="Path_59" data-name="Path 59" d="M20.575,22.68a2.7,2.7,0,0,1-1.284,1.4.357.357,0,0,1-.281-.107.316.316,0,0,1,.034-.3c.38-.4.76-.8,1.177-1.155.271-.232.277.088.354.165" transform="translate(-5.752 -6.795)" fill="#1a1b1c"/>
      <path id="Path_60" data-name="Path 60" d="M164.524,27.391c0,.23,0,.46,0,.689l-.24,0c0-.227,0-.454,0-.68l.245,0" transform="translate(-49.767 -8.298)" fill="#d9d9d9"/>
      <path id="Path_61" data-name="Path 61" d="M159.857,27.607a.4.4,0,0,1,.386.443c-.016.222-.131.429-.408.416a.39.39,0,0,1-.385-.438.409.409,0,0,1,.407-.42" transform="translate(-48.304 -8.363)" fill="#d9d9d9"/>
      <path id="Path_62" data-name="Path 62" d="M138.1,28.081a.4.4,0,0,1-.426.394c-.357,0-.234-.288-.253-.478-.022-.214.038-.377.3-.351a.384.384,0,0,1,.375.435" transform="translate(-41.628 -8.374)" fill="#d9d9d9"/>
      <path id="Path_63" data-name="Path 63" d="M168.115,27.645c.3-.015.416.121.452.33a.4.4,0,0,1-.323.487c-.267.072-.332-.106-.321-.326.01-.2-.073-.457.192-.491" transform="translate(-50.87 -8.374)" fill="#d9d9d9"/>
    </g>
    <text id="SECURE_YOUR_IDENTITY_AS_YOU_ACCESS_E-SERVICES" data-name="SECURE YOUR IDENTITY AS YOU ACCESS E-SERVICES" transform="translate(-2830 -24)" fill="#080808" font-size="2" font-family="Montserrat-ExtraBold, Montserrat" font-weight="800"><tspan x="0" y="0">SECURE YOUR IDENTITY AS YOU ACCESS E-SERVICES</tspan></text>
  </g>
</svg>
