<?xml version="1.0" encoding="UTF-8" standalone="no"?>
<!-- Created with Inkscape (http://www.inkscape.org/) -->

<svg
   version="1.1"
   id="svg1"
   width="878.17334"
   height="1152.3867"
   viewBox="0 0 878.17334 1152.3867"
   sodipodi:docname="united-arab-emirates-eagle-seeklogo.eps"
   xmlns:inkscape="http://www.inkscape.org/namespaces/inkscape"
   xmlns:sodipodi="http://sodipodi.sourceforge.net/DTD/sodipodi-0.dtd"
   xmlns="http://www.w3.org/2000/svg"
   xmlns:svg="http://www.w3.org/2000/svg">
  <defs
     id="defs1" />
  <sodipodi:namedview
     id="namedview1"
     pagecolor="#ffffff"
     bordercolor="#000000"
     borderopacity="0.25"
     inkscape:showpageshadow="2"
     inkscape:pageopacity="0.0"
     inkscape:pagecheckerboard="0"
     inkscape:deskcolor="#d1d1d1">
    <inkscape:page
       x="0"
       y="0"
       inkscape:label="1"
       id="page1"
       width="878.17334"
       height="1152.3867"
       margin="0"
       bleed="0" />
  </sodipodi:namedview>
  <g
     id="g1"
     inkscape:groupmode="layer"
     inkscape:label="1">
    <path
       id="path1"
       d="m 4680,3639.93 c 60.7,-83.15 144.92,-177.31 180.34,-213.83 l 49.78,121.41 c 22.73,-80.54 56.3,-171.24 92.8,-240.23 104.17,-209.58 143.13,-232.61 229.82,-307.78 l 14.98,130.01 c 45.15,-170.86 117.66,-364.03 208.14,-491.55 44.71,-68.69 99.45,-106.42 175.36,-139.07 l 4.46,169.13 c 45.76,-149.64 104.26,-295.15 174.9,-434.93 34.83,-68.71 75.05,-110.6 134.08,-162.2 l 19.21,479.36 c 91.28,-294.14 326.33,-997.05 541.24,-1152.85 11.26,-8.16 26.62,2.01 23.49,15.56 -90.91,394.05 -152.14,794.36 -183.19,1197.56 -9.53,131.64 -3.89,263.99 16.8,394.39 29.7,17.76 32.9,46.3 79.78,70.02 -34.95,65.33 -31.49,95.54 -34.81,137.18 -18.95,256.44 -28.57,513.57 -28.82,770.78 19.3,-11.94 85.14,-52.59 164.11,-76.57 -53.7,175.55 -61.96,245.77 -81.16,393.39 l -25.18,272.5 c -13.13,146.37 -11.71,293.7 4.25,439.8 l 144.5,-72.07 c -69.79,451.82 -73.32,659.27 -105.62,1167.22 -10.52,170.46 -55.13,380.36 -126.72,536.39 -86.11,183.11 -199.79,351.95 -337.08,500.61 -141.69,178.29 -374.2,257.84 -595.44,203.69 -114.41,-24.87 -219.82,-81.62 -303.84,-163.65 -177.46,-53.09 -362.63,-75.8 -547.68,-67.15 -98.4,5.18 -194.21,33.91 -279.31,83.77 -48.99,30.23 -91.83,70 -125.8,116.89 -20.24,28.07 -37.7,58.08 -52.1,89.58 -102.45,278.01 -229.04,546.51 -378.33,802.44 -142.48,241.83 -353.23,431.46 -633.43,431.52 -119.19,2.93 -269.09,-27.46 -372.93,-89.7 -138.29,-85.75 -248.22,-210.25 -316.2,-357.91 -70.92,4.61 -136.53,-40.16 -157.44,-109.12 -23.9,-76.28 -20.09,-158.7 10.8,-232.58 3.34,-7.98 12.69,-11.51 20.47,-7.72 25,12.17 51.1,21.93 77.95,29.14 26.77,6.11 54.85,8.35 82.81,6.53 56.15,-4.46 111.54,-17.13 164.22,-37.59 0.53,-3.08 2.02,-6.01 4.45,-8.33 75.56,-71.89 139.53,-192.65 106.01,-299.31 -103.92,-234.53 -334.21,-372.97 -581.23,-407.45 -224.13,-27.33 -451.74,-7.94 -668.24,56.96 -67.61,67.23 -150.41,117.23 -241.44,145.75 -241.947,84.35 -501.088,7.94 -658.19,-186.09 C 318.688,6866.55 155.203,6565.16 118.074,6202.94 104.926,6084.3 94.9297,5956.51 90.0273,5837.12 77.2578,5526.3 48.8594,5248.04 1.44141,4939.95 l 145.63259,72.64 c 9.43,-57.7 13.571,-116.14 12.36,-174.62 l -5.09,-195.7 -19.617,-253.81 -37.8832,-283.8 -24.004,-110.32 -7.0507,-22.32 -27.2813,-55.48 -1.4414,-2.94 c 13.1172,4.03 25.5742,7.86 37.5547,11.69 39.2269,10.29 71.9299,22.21 105.5859,42.3 9.137,4.81 18.344,10.04 27.723,15.81 -0.309,-250.97 -9.649,-501.85 -28,-752.16 -16.18,-115.06 -17.059,-124.51 -33.297,-170.91 35.773,-38.17 20.301,-24.61 77.535,-55.47 16.516,-97.35 23.207,-196.11 19.973,-294.8 l -18.059,-297.62 c -36.922,-335.63 -93.164,-669.6 -168.3906,-999.52 -3.043,-13.35 11.875,-23.49 23.168,-15.75 96.9336,66.38 200.8866,255.04 250.4296,372.34 111.68,254.33 208.906,514.93 291.156,780.39 l 19.168,-478.2 c 43.703,36.66 83.371,73 111.192,123.12 81.687,150.5 147.949,308.79 197.836,472.43 l 4.425,-167.8 c 60.944,24.51 103.954,49.7 144.954,100.28 104.49,122.97 190.03,346.65 238.59,529.61 L 1353.5,3000 c 55.7,42.64 92.82,76.54 130.02,134.31 85.43,126.82 150.41,266.47 192.5,413.58 l 49.77,-121.38 c 37.8,37.61 120.59,130.58 180.27,212.6 -57.52,-235.2 -111.2,-471.32 -161.01,-708.28 l -51.46,-184.87 c -20.14,-73.44 -53.69,-140.44 -101.14,-200.09 -7.97,-10.02 -0.58,-24.78 12.22,-24.4 34.56,1.02 68.49,7.66 100.51,19.45 l -12.8,-45.32 c -21.36,-54.81 -43.63,-109.4 -66.77,-163.7 -0.54,-0.97 -0.98,-1.99 -1.3,-3.05 -41.23,-96.59 -85.24,-192.26 -131.91,-286.66 -18.77,-6.42 -37.19,-13.85 -55.15,-22.24 -92.61,51.66 -178.78,108.17 -256.09,169.85 l -17.15,1.12 -740.119,-446.49 -7.274,-12.88 v -701.91 l 6.016,-12.03 C 606.148,879.891 803.93,762.289 1012.57,666.824 1632.11,381.918 2434.45,214.133 3137.21,152.293 L 3260.14,6.77344 c 6.01,-7.113284 16.98,-7.113284 22.99,0 L 3406.07,152.309 c 655.64,59.082 1362.41,194.523 1980.71,451.457 260.31,106.527 506.17,245.578 731.67,413.814 l 6.05,12.06 v 701.91 l -7.28,12.88 -740.11,446.49 -17.24,-1.19 c -70.22,-56.87 -149.48,-109.8 -235.67,-158.87 -9.97,4.07 -20.07,7.85 -30.29,11.34 -92.46,187.98 -134.76,288.36 -212.1,492.89 l -1.01,5.95 c 32.12,-11.87 66.16,-18.54 100.84,-19.57 12.97,-0.38 20.31,14.74 11.98,24.69 -33.55,40.08 -59.59,85.88 -76.87,135.21 l -51.46,159.38 -148.11,660.12 z M 3713.11,1613.49 c -62.62,51.1 -140.74,100.21 -188.39,165.83 -37.06,-45.49 -144.91,-168.93 -229.11,-182.81 -62.34,0.83 -171.55,113.94 -228.08,179.69 -16.67,-26.21 -127.63,-128.11 -199.79,-154.84 -49.5,32.93 -95.24,113.37 -113.39,190.54 -51.49,-60.36 -154.83,-105.21 -227.49,-124.92 l -15.4,4.78 c -49.38,58.12 -78.89,129.88 -85.18,204.9 -54.93,-81.41 -144.25,-134.97 -244.16,-143.6 l -14.55,7.87 c -98.52,183.58 133.8,753.27 195.25,898.12 -35.81,-26.03 -74.93,-49.49 -116.73,-70.92 l 34.38,60.43 4.18,14.68 c 0.92,5.72 1.76,11.46 2.54,17.2 -13.94,-26.31 -32.11,-50.14 -55.14,-69.58 -32.2,-27.21 -55.89,-53.69 -76.59,-89.87 -34.36,-66.12 -58.53,-137.04 -71.7,-210.38 -1.65,-9.16 -11.12,-14.64 -19.88,-11.5 -36.5,13.07 -66.25,41.73 -88.79,76.7 -70.93,-151.51 -123.72,-255.7 -196.83,-386.69 49.5,-7.62 94.58,-33.76 125.64,-73.4 13.54,-16.49 45.76,-54.32 71.1,-126.14 402.54,-132.99 835.06,-206.67 1171.11,-238.38 l 9.47,-4.59 116.02,-121.65 c 31.37,33.1 114.97,121.11 125.56,126.24 47.98,4.52 97.09,9.82 147.07,15.91 111.49,13.01 227.67,31.19 372,57.75 234.57,44.24 475.07,104.65 700.32,182.23 0.13,0.73 0.31,1.46 0.56,2.19 28.48,85.8 98.02,168.66 190.56,180.57 -42.12,64.41 -88.12,154.58 -195.47,384.04 -22.82,-34.13 -53.18,-61.9 -89.86,-74.81 -8.83,-3.12 -18.34,2.52 -19.84,11.77 -13.91,85.49 -53.66,204.2 -110.4,263.83 l -47.89,45.68 c -19.82,18.46 -35.13,39.08 -46.92,61.54 3.38,-20.8 8.61,-38.43 16.41,-47.68 10.59,-12.56 -3.74,-30.58 -18.36,-23.08 -22.62,11.59 -44.27,24.64 -64.83,39 71.77,-156.16 165.14,-478.52 190.96,-583.53 22.91,-85.4 39.42,-232.79 -2.97,-306.09 l -14.32,-7.46 c -99.91,8.63 -189.23,62.19 -244.16,143.6 -6.29,-75.02 -35.8,-146.78 -85.18,-204.9 l -14.66,-4.96 c -73.06,15.9 -175.38,60.88 -227.24,122.81 -15.06,-72.48 -51.79,-150.27 -119.83,-196.12"
       style="fill:#000000;fill-opacity:1;fill-rule:evenodd;stroke:none"
       transform="matrix(0.13333333,0,0,-0.13333333,0,1152.3867)" />
    <path
       id="path2"
       d="m 3400.74,4049.72 -110.44,120.94 -106.48,-121.4 -40.76,110.08 -655.45,275.56 -112.31,-52.29 10.34,167.81 -163.94,-10.06 50.3,105.15 -269.67,658.4 -115.29,42.52 126.71,110.94 -123.99,108.57 110.27,38.26 276.25,656.21 -47.69,109 163.51,-6.99 -10.1,161.21 105.45,-50.21 659.87,269.03 43.88,111.65 109.98,-120.6 108.86,121.25 38.35,-110.01 657.84,-275.65 109.57,48.01 -7.7,-163.52 161.8,10.08 -50.3,-105.16 269.68,-658.4 115.16,-42.47 -124.19,-111 121.51,-108.58 -110.2,-38.24 -276.3,-656.37 53.6,-112.02 -166.95,10.42 7.57,-161.39 -105.32,50.15 -660.05,-269.1 z m 1352.44,-2236.88 84.31,24.28 c 34.82,-20.72 64.62,-48.65 87.49,-81.75 -467.73,-186.6 -1068.43,-300.83 -1536.98,-344.24 -11.96,-6.96 -86.27,-113.81 -116.99,-158.21 l -105.94,151.83 -10.87,6.37 c -400.2,39.4 -999.43,154.31 -1491.21,347.64 20.14,28.89 45.83,53.69 75.7,72.88 68.14,-27.27 137.13,-52.45 206.86,-75.48 l 11.75,-4.77 c 2.09,-0.84 4.2,-1.19 6.22,-1.12 20.16,-6.54 40.39,-12.91 60.68,-19.09 362.59,-110.82 735.46,-184.76 1112.91,-220.69 l 123.06,-129.03 c 5.93,-6.21 15.85,-6.21 21.77,0 L 3405,1510.49 c 338.78,32.3 673.93,95.15 1001.39,187.81 117.29,32.88 233.01,71.1 346.79,114.54 z m 522.36,113.14 c -19.44,17.65 -40.57,33.53 -63.15,47.38 -16.96,10.93 -34.55,20.92 -52.68,29.91 73,43.82 143.23,92.31 210.22,145.2 l 723.9,-436.7 V 1026.04 C 5704.59,745.02 5300.63,559.355 4838.18,432.004 4366.79,300.48 3884.23,212.914 3396.69,170.434 3385.38,164.57 3302.81,66.4453 3271.02,28.5469 l -115.41,136.6091 -10.15,5.274 C 2708.6,209.516 2275.55,283.395 1850.44,391.363 1331.26,525.09 867.781,712.961 446.129,1025.91 v 685.86 l 723.831,436.66 c 73.06,-58.46 150.38,-111.23 231.29,-157.89 -1.54,-0.87 -3.09,-1.74 -4.63,-2.62 -32.23,-17.3 -61.97,-38.6 -88.57,-63.23 -48.34,27.22 -94.15,55.52 -136.95,84.89 l -16.48,0.35 -587.35,-367.06 -7.071,-12.76 v -530.19 l 6.578,-12.44 C 945.707,829.648 1363.59,634.363 1804.47,509.098 2241.66,379.641 2691.24,295.805 3145.86,258.973 l 114.38,-118.278 c 5.92,-6.113 15.72,-6.113 21.63,0 l 114.38,118.27 c 408.16,32.598 812.69,100.957 1208.91,204.293 479.54,120.984 935.43,321.812 1348.48,594.052 l 6.76,12.56 v 560.24 l -7.47,13 -578.74,337 -16.17,-0.66 c -26.2,-18.25 -53.73,-36.08 -82.48,-53.47 z m -1882.51,1385.77 92.54,-1518.3 c -44.55,-51.9 -94.27,-99.14 -148.38,-141 -13.31,-10.23 -28.63,-17.54 -44.95,-21.47 -11.07,2.48 -21.6,6.93 -31.09,13.15 -63.54,42.05 -117.01,100.01 -163.84,159.46 l 94.79,1508.81 c 38.74,-33.74 68.58,-80.72 70.19,-133.49 0.21,-15.71 12.62,-28.53 28.31,-29.25 17.31,-1.42 32.18,12.19 32.28,29.56 1.15,28.1 9.81,55.39 25.08,79.01 12.72,19.66 27.86,37.64 45.07,53.52 z m -259.1,41.53 -93.55,-1535.1 -30.69,-46.34 c -18.73,-20.85 -39.48,-39.79 -61.95,-56.55 -23.46,-16.91 -47.45,-33.09 -71.93,-48.5 l -15.1,12.1 c -17.8,15.34 -34.82,43.17 -43.15,62.59 -12.6,29.7 -21.11,60.97 -25.31,92.95 l 249.27,1559.11 c 32.19,-10 63.18,-23.5 92.41,-40.26 z m -151.52,54.34 -248.94,-1556.97 c -6.65,-13.71 -15.88,-26 -27.19,-36.2 -49.87,-42.74 -108.79,-73.62 -172.32,-90.29 -42.59,56.43 -65.17,125.45 -64.16,196.14 l 314.99,1427.08 c 42.94,36.92 99.84,64.27 157.42,64.1 13.47,-0.44 26.89,-1.73 40.2,-3.86 z m -281.9,-160.91 -283.39,-1283.92 c -1.78,-2.21 -3.24,-4.65 -4.35,-7.26 -38.68,-88.3 -119.59,-150.87 -214.79,-166.08 -4.4,11.08 -7.29,22.7 -8.6,34.55 -7.7,75.63 0.36,146.79 18.83,220.18 50.55,205.56 118.17,406.53 202.17,600.83 0.55,1.27 0.77,2.65 0.64,4.02 l -1.21,13.3 c 31.65,27.06 60.24,57.51 85.24,90.81 53.45,69.78 85.5,141.4 102.24,227.97 17.62,94.18 52.62,184.24 103.22,265.6 z m 844.47,-1431.82 -93.86,1539.93 c 28.83,17.54 59.81,31.25 92.17,40.81 l 249.38,-1559.74 c -12.88,-62.55 -37.69,-124.32 -83.72,-170.03 -61.68,52.51 -98,81.6 -158.58,143.62 z m 97.44,1596.55 c 58.33,-5.1 113.65,-28.14 158.36,-65.96 L 4115.34,1920.3 c 1.01,-70.35 -21.34,-139.06 -63.56,-195.35 -57.8,17.84 -112.41,44.73 -161.79,79.68 -16.12,12.25 -29.23,28.02 -38.33,46.11 l -249.02,1557.5 c 13.2,1.75 26.47,2.81 39.78,3.2 z M 4168.02,1962.79 3884.2,3248.7 c 52.68,-80.45 85.59,-173.78 103.69,-267.76 22.27,-115.43 80.73,-220.77 166.9,-300.74 l 22.73,-41.58 c 69.29,-162.37 128.18,-328.98 176.32,-498.83 18.09,-64.97 31.59,-131.13 40.38,-197.99 l 4.37,-87.07 c 0.34,-22.3 -3.68,-44.46 -11.85,-65.21 -95.04,15.34 -175.79,77.9 -214.4,166.1 -1.1,2.58 -2.55,4.99 -4.32,7.17 z m 764.57,1942.19 c 17.09,-16.32 45.45,-7.67 50.52,15.41 2.39,10.85 7.26,21 14.22,29.66 l 26.07,22.89 c 26.86,15.71 55.94,27.24 86.27,34.2 20.4,-106.02 56.02,-205.68 101.52,-304.66 -6.68,-36.83 -10.92,-74.07 -12.69,-111.47 -2.2,-41.13 -3,-82.32 -2.39,-123.5 1.27,-87.1 6.47,-174.11 15.59,-260.74 l -14.82,-128.63 c -61.15,61.73 -111.33,144.61 -147.6,221.91 -47.89,102.66 -86.18,209.52 -114.39,319.23 -3.11,95.2 -3.88,190.47 -2.3,285.7 z m 1061.93,-813.6 c 31.65,-23.85 66.4,-43.27 103.29,-57.74 25.25,-9.9 49.79,15.81 38.73,40.57 -16.03,35.9 -13.13,77.43 7.74,110.75 40.36,-78.53 114.9,-133.86 201.74,-149.76 -3.04,-3.64 -23.36,-27.48 -23.84,-30.25 -17.11,-95.62 -25.31,-192.61 -24.52,-289.75 1.95,-137.85 10.89,-275.51 26.81,-412.45 13.78,-122.82 31.38,-245.17 52.75,-366.89 25.24,-149.8 53.71,-299.04 85.37,-447.61 -56.42,78.82 -105.6,162.56 -146.96,250.22 -44.69,93.79 -86.08,189.12 -124.09,285.82 -77.33,200.21 -147.1,403.26 -209.16,608.73 -4.76,26.77 -12.89,329.84 12.14,458.36 z M 4880.8,4029.79 c -6.49,-79.02 -9.04,-158.33 -7.65,-237.61 0.17,-71.74 1.55,-143.47 4.12,-215.17 l -33.52,-81.73 -19.1,19 c -58.85,69.88 -112.34,144.1 -160.02,222.02 l -57.99,155.47 c -6.16,16.34 -13.46,32.23 -21.85,47.54 -17.77,32.07 -37.94,62.74 -60.36,91.74 83.25,35.72 135.28,113.38 149.39,204.89 5.74,35.61 7.89,71.71 6.4,107.75 -1.43,36.95 2.08,73.94 10.45,109.96 7.58,27.23 29.94,47.81 57.71,53.11 8.64,1.65 16.14,6.99 20.54,14.61 0.26,-2.95 0.53,-5.9 0.82,-8.85 17.03,-164.86 54.33,-327 111.06,-482.73 z m 390.35,-815.88 c -13.79,137.61 -21.4,266.95 -10.1,406.01 37.26,-65.27 77.95,-128.52 121.9,-189.47 14.26,-19.69 44.72,-15.42 53.02,7.42 14.53,39.99 31.93,78.87 52.07,116.34 15.91,-64.5 43.79,-125.44 82.19,-179.65 -8.15,-46.99 -12.57,-94.56 -13.21,-142.25 -1.16,-52.18 -0.37,-104.39 2.37,-156.52 5.75,-109.86 16.68,-219.38 32.75,-328.2 l -4.96,-187.98 c -61.51,39.84 -111.3,107.88 -144.26,170.93 -37.36,72.56 -69.95,147.48 -97.55,224.28 -29.64,84.88 -54.42,171.39 -74.22,259.09 z m 378.39,-440.02 c -20.56,143.02 -43.56,394.98 -29.21,527.33 28.5,-40.59 58.94,-79.78 91.21,-117.44 20.21,-23.53 58.53,-5.08 52.75,25.39 -2.54,13.39 -2.24,27.15 0.9,40.41 10.13,18.88 21.92,36.81 35.24,53.58 9.58,11.88 20.68,22.45 33.01,31.45 18.53,-74.25 56.24,-142.33 109.35,-197.43 -8.19,-36.3 -13.91,-73.13 -17.11,-110.2 -3.93,-41.68 -6.5,-83.46 -7.68,-125.3 -2.57,-89.57 -1.34,-179.2 3.68,-268.65 l -18.86,-470.64 c -11.23,13.74 -21.42,28.3 -30.49,43.55 -46.59,85.09 -87.85,172.98 -123.56,263.18 -38.48,99.75 -71.61,201.48 -99.23,304.77 z m 66.11,2681.94 c 0.74,1.14 1.8,2.05 3.04,2.61 -1.16,-0.57 -2.1,-1.49 -3.04,-2.61 z M 5246.2,4979.19 5242.4,5435 c 49.76,-32.45 102.52,-60.02 157.56,-82.34 5.74,-2.32 11.9,2.29 11.28,8.45 l -8.2,81.62 c 1.83,17.13 4.98,34.08 9.41,50.72 l 7.1,-26.03 c -14.85,-231.87 -11.11,-464.56 11.2,-695.83 l 4.12,-27.83 c 8.42,-48.71 8.14,-98.52 -0.82,-147.13 -42.84,46.55 -79.33,98.58 -108.53,154.72 -17.54,34.33 -32.53,69.92 -44.86,106.45 -13.38,39.9 -24.88,80.41 -34.46,121.39 z m 906.23,-527.47 -31.3,560.37 c 31,-26.22 64.6,-49.21 100.28,-68.63 28.63,-15.48 58.2,18.93 38.59,44.91 -12.89,17.06 -22.51,36.36 -28.39,56.92 -8.77,42.48 -10.7,86.09 -5.7,129.17 37.39,-70.14 100.07,-127.96 168.09,-166.99 -4.5,-31.86 -7.42,-63.92 -8.77,-96.07 -8.1,-182.51 4.73,-391.9 25.68,-576.41 11.51,-104.74 27.73,-208.9 48.61,-312.17 l 10.19,-45.84 -29.14,11.99 c -55.33,26.68 -210.41,138.45 -288.14,462.75 z m -95,614.7 40.24,-648.49 -14.26,-194.39 c -52.72,53.57 -101.34,111.02 -145.45,171.88 -55.21,75.79 -100.64,158.25 -135.19,245.42 l -31.64,534.75 c 29.15,-41.98 62.57,-80.84 99.72,-115.95 21.9,-20.55 57.14,-0.14 50.21,29.09 -4.08,17.22 -5.07,35.04 -2.91,52.61 7.1,36.44 21.76,70.98 43.05,101.4 6.9,-26.45 16.88,-51.99 29.75,-76.1 18.79,-35.52 41.05,-69.1 66.48,-100.22 z m -564.38,-309.04 c -19.73,194.88 -26.07,390.89 -19.01,586.64 14.5,-23.98 31.1,-46.61 49.61,-67.65 34.49,-39.5 77.87,-70.25 126.56,-89.73 27.31,-10.82 52.49,19.65 36.72,44.43 -6.35,9.98 -10.08,21.4 -10.85,33.2 -0.39,26.74 3.32,53.38 10.99,79 5.29,-21.91 11.05,-43.7 17.3,-65.36 l 38.09,-643.93 c -12.23,-58.36 -21.16,-117.36 -26.75,-176.72 -2.86,-27.11 -3.85,-54.38 -2.98,-81.63 -3.5,3.78 -6.89,7.68 -10.14,11.68 -84.84,113.74 -155.05,237.69 -208.99,368.93 z m -292.85,725.09 c -1.76,-79.56 -2.68,-159.13 -2.75,-238.7 1.79,-122.86 2.57,-245.73 2.33,-368.6 0.03,-31.94 -6.53,-79.94 -20.71,-108.71 -95.65,262.64 -115.6,587.74 -101.78,862.5 14.16,-29.87 32.54,-57.55 54.56,-82.19 20.8,-23.45 43.68,-44.97 68.35,-64.3 z M 1709.23,3573.73 c 4.98,123.96 6.02,248.06 3.12,372.09 l -7.98,84.08 c 55.76,150.72 99.66,332.17 111.88,491.44 4.38,-7.59 11.84,-12.9 20.44,-14.57 21.75,-4.22 40.49,-17.91 51.12,-37.35 9.73,-28.46 15.15,-58.21 16.09,-88.28 l 3.65,-108.43 c 3.84,-100.05 60.76,-197.03 152.86,-240.85 -35.35,-44.65 -64.1,-94.15 -85.36,-146.97 -21.16,-50.02 -40.17,-100.92 -56.97,-152.56 -43.23,-70.03 -90.95,-137.18 -142.87,-201.04 l -34.15,-35.2 z m -56.68,331.25 c 1.58,-94.87 0.83,-189.76 -2.26,-284.6 -11.94,-49.76 -25.98,-98.99 -42.08,-147.57 -18.18,-53.43 -40.11,-105.53 -65.62,-155.88 l -77.75,-139.55 c -21.15,-36.24 -46.89,-69.6 -76.57,-99.26 l -14.82,128.64 c 13.21,121.5 18.22,243.75 14.99,365.92 -1.31,45.62 -6.54,91.05 -15.6,135.79 47.5,91.31 90.54,193.75 108.13,295.37 22.17,-4.62 43.72,-11.8 64.23,-21.41 l 35.82,-24.73 c 10.52,-10.17 17.83,-23.2 21.05,-37.47 5.18,-22.98 33.45,-31.52 50.48,-15.25 z M 1324.7,3621.26 c 1.62,-16.69 2.68,-33.44 3.16,-50.2 2.91,-121.61 -2.22,-243.28 -15.33,-364.22 -14.94,-64.45 -32.27,-128.31 -51.95,-191.47 -23.51,-71.76 -50.53,-142.33 -80.95,-211.46 -21.56,-49.78 -47.58,-97.5 -77.77,-142.57 -27.16,-40.73 -62.56,-75.31 -103.903,-101.53 l -4.953,187.76 c 23.416,154.69 35.736,310.86 36.856,467.32 0.27,54.71 -4.92,109.31 -15.49,162.99 24.97,41.55 69.87,124.5 82.8,166.91 l 33.62,-61.75 33.83,-83.18 c 2.43,-5.98 10.47,-6.96 14.27,-1.75 52.38,71.84 101.05,146.32 145.81,223.15 z m -359.856,-320.3 c 3.074,-28.45 4.547,-57.05 4.414,-85.66 -1.395,-148.06 -12.684,-295.86 -33.793,-442.41 -23.711,-87.05 -50.906,-173.12 -81.52,-258 -34.308,-93.14 -74.125,-184.16 -119.238,-272.58 -14.48,-28.3 -32.055,-54.91 -52.402,-79.33 l -18.844,470.07 c 7.617,128.64 6.883,257.63 -2.199,386.16 -2.883,39.84 -9.153,79.36 -18.739,118.14 53.09,55.13 90.762,123.24 109.25,197.51 15.192,-10.31 29.11,-22.39 41.469,-35.97 l 23.285,-38 c 6.145,-16.51 7.645,-34.38 4.34,-51.68 -5.804,-30.38 32.278,-48.91 52.598,-25.6 32.609,37.4 63.113,76.57 91.379,117.35 z M 590.633,3091.38 c 4.918,-25.27 8.32,-50.8 10.183,-76.47 8.801,-127.28 9.442,-255.01 1.957,-382.4 C 529.598,2387.45 444.52,2146.1 347.84,1909.32 c -38.5,-93.5 -81.801,-184.95 -129.727,-273.98 l -66.996,-109.32 c -8.586,-13.5 -18.019,-26.45 -28.25,-38.76 80.453,365.19 134.813,735.63 162.66,1108.53 10.137,140.03 3.575,280.78 -19.547,419.26 -0.335,2 -1.398,3.81 -2.984,5.08 l -14.348,11.45 c 82.45,22.62 151.903,78.28 191.938,153.83 21.121,-33.39 24.129,-75.13 8.019,-111.2 -11.058,-24.76 13.485,-50.47 38.735,-40.57 36.89,14.47 71.64,33.89 103.293,57.74 z M 528.16,5073.71 c 43.625,52.2 77.625,99.26 95.789,168.88 18.617,-26.48 32.426,-56.04 40.793,-87.31 4.711,-21.98 4.485,-44.73 -0.668,-66.61 -6.929,-29.33 28.547,-49.68 50.367,-28.9 36.914,35.25 70.27,74.05 99.579,115.84 l -31.637,-534.78 c -31.778,-78.92 -72.535,-153.92 -121.465,-223.53 -47.723,-68.63 -100.973,-133.25 -159.219,-193.21 -5.777,78.73 -11.844,149.57 -8.254,227.09 z m -64.133,-61.55 -31.179,-558.08 c -17.309,-73.8 -42.2,-145.62 -74.274,-214.3 -36.344,-74.24 -84.586,-142.03 -142.816,-200.69 -20.266,-18.55 -42.664,-34.64 -66.723,-47.91 l -32.426,-13.59 c 4.598,14.36 8.528,28.92 11.77,43.64 25.492,125.23 43.777,251.81 54.762,379.14 22.031,218.91 30.543,383.17 7.019,606.54 68.649,38.87 132.852,96.65 169.262,165.65 4.238,-36.49 3.75,-73.38 -1.453,-109.75 -5.196,-27.02 -16.453,-52.52 -32.918,-74.58 -19.531,-26.1 10.304,-60.4 38.863,-44.68 35.496,19.61 69.02,42.58 100.113,68.61 z m 878.713,422.18 -3.79,-455.31 c -15.84,-71.64 -39.19,-141.41 -69.65,-208.15 -30.51,-63.62 -70.33,-122.33 -118.14,-174.22 -8.11,45.29 -8.98,91.57 -2.58,137.13 1.44,1.35 2.35,3.17 2.55,5.14 25.18,241.95 30.02,485.59 14.47,728.34 l 7.24,26.35 c 8.65,-31.52 13.74,-58.42 5.54,-91.14 -6.1,-24.35 18.35,-45.12 41.39,-35.18 42.94,18.57 84.1,41.01 122.97,67.04 z m 60.98,45.66 c 38.32,32.87 65.1,60.2 93.19,101.92 4.25,-101.21 3.4,-202.56 -2.55,-303.69 -9.79,-156.52 -34.39,-323.53 -86.96,-471.14 -2.74,11.68 -4.71,23.52 -5.88,35.45 -2.49,40.91 -3.18,81.91 -2.08,122.88 z m -292.64,-135.36 c 7.11,-195.95 0.76,-392.16 -18.97,-587.25 l -0.52,-1.04 c -50.66,-121.87 -114.402,-237.88 -190.09,-346 -8.75,-12.32 -18.437,-23.94 -28.98,-34.77 0.601,20.58 0.062,41.18 -1.614,61.7 -5.093,66.13 -14.519,131.85 -28.218,196.73 l 39.117,661.28 c 5.336,14.21 10.285,28.55 14.847,43.02 l 4.95,-13.87 7.968,-49.76 c 0.594,-15.48 -3.433,-30.78 -11.57,-43.95 -15.363,-24.88 9.949,-54.94 37.082,-44.03 49.004,19.69 115.058,57.11 175.998,157.94"
       style="fill:#ffffff;fill-opacity:1;fill-rule:evenodd;stroke:none"
       transform="matrix(0.13333333,0,0,-0.13333333,0,1152.3867)" />
    <path
       id="path3"
       d="m 5234.55,1452.62 c 5.39,-44.67 -10.21,-89.56 -55.37,-113.35 -15.99,-8.43 -30.53,13.35 -16.61,24.89 3.54,2.93 8.88,14.65 7.54,30.43 -1.62,13.32 -4.84,26.39 -9.59,38.93 -36.47,17.35 -58.22,59.3 -69.41,100.48 -16.23,-14.84 -38.34,-18.39 -61.75,-12.21 l -16.1,-2.76 -59.25,-23.72 c -6.85,-2.74 -14.67,-0.11 -18.48,6.2 -17.39,28.87 7.02,62.11 29.47,81.88 -10.39,19.14 -14.01,41.4 -10.01,63.08 1.88,24.64 -2.15,49.37 -11.45,71.42 -1.49,3.05 -3.02,6.07 -4.61,9.07 -27.53,-10.57 -55.28,-20.55 -83.24,-29.96 -155.87,-55.9 -314.4,-104.05 -474.93,-144.27 -323.59,-83.3 -653.3,-140.67 -986,-171.55 l -114.33,-163.86 c -5.99,-8.58 -18.69,-8.58 -24.68,0 l -114.37,163.92 c -374.87,37.98 -745.36,111.05 -1106.47,218.21 -132.43,38.07 -263.09,82 -391.48,131.64 -4.82,-9.01 -9.15,-18.32 -12.96,-27.89 -5.62,-18.34 -7.74,-37.58 -6.25,-56.71 4,-21.66 0.4,-43.9 -9.96,-63.03 18.15,-15.81 37.15,-39.8 35.16,-60.29 -1.18,-12.04 -6.7,-36.63 -25.33,-27.36 -20.02,9.96 -40.88,18.12 -62.35,24.37 l -11.67,1.66 c -27.61,-7.4 -46.62,-1.98 -59.67,11.68 -11.04,-42.22 -35.02,-83.14 -71.76,-100.1 -5.77,-15.13 -9.11,-31.1 -9.87,-47.29 l 1.86,-11.99 8.88,-13.14 c 8.76,-12.97 -5.65,-29.04 -19.49,-21.72 -54.75,28.93 -58.61,78.58 -49.75,135.85 -10.84,14.65 -18.37,31.51 -22.03,49.42 -3.19,16.9 -5.18,35.2 -4.38,52.79 -2.93,-3.48 -5.93,-6.9 -9.02,-10.25 -21.21,-21.38 -56.5,-34.36 -81.67,-15.11 -16.94,-14.8 -23.17,-39.08 -14.42,-60.66 6.46,-15.93 -14.52,-28.48 -25.51,-15.27 -34.56,41.59 -49.33,106.08 -9.54,149.37 -15.53,61.29 -5.9,115.24 27.2,172.15 18.52,37.73 42.33,72.31 70.49,102.77 -41.65,24.55 -82.41,50.62 -122.21,78.19 L 587.316,1621.14 V 1107.28 C 1017.43,817.543 1452.47,629.078 1953.31,496.105 2345.39,390.504 2746.27,320.805 3150.98,287.871 l 9.59,-4.535 107.49,-111.141 c 29.88,31.114 106.48,110.637 117.2,115.68 456.3,35.25 907.86,116.59 1347.78,242.785 427.16,122.113 823.38,302.133 1194.31,546.67 v 543.5 l -563.08,327.88 c -22.89,-15.48 -46.07,-30.5 -69.52,-45.05 29.4,-30.95 54.09,-66.32 73.05,-105.03 36.88,-45.8 41.69,-115.85 27.68,-173.12 39.07,-42.37 24.47,-107.94 -9.43,-149.37 -10.93,-13.35 -32.07,-0.8 -25.59,15.18 9.04,22.28 2.1,47.44 -16.1,62.07 -35.45,-21.16 -68.73,-2.41 -92.89,25.47 1.65,-22.47 0.83,-27.12 0.8,-40.01 -0.07,-23.83 -4.94,-40.57 -22.4,-63.04 0.72,-2.57 2.69,-12.32 4.68,-23.19 z M 4988.57,741.766 c -1.17,-2.032 -2.79,-3.411 -4.99,-4.235 -23.41,-7.769 -44.83,-9.722 -69.26,-6.312 -6.06,0.847 -11.66,-3.383 -12.51,-9.446 l -6.2,-44.707 c -0.85,-6.062 3.38,-11.66 9.45,-12.503 46.8,-6.5 126.4,-1.766 146.91,54.25 7.95,22.562 6.57,44.707 -4.14,66.101 l -126.62,293.366 c -2.43,5.62 -8.95,8.21 -14.57,5.78 l -41.43,-17.88 c -5.62,-2.43 -8.21,-8.95 -5.79,-14.57 l 127.19,-294.649 c 2.33,-4.957 2.95,-9.813 1.96,-15.195 z M 4532.75,623.504 c 63.59,16.801 116.09,35.648 175.85,63.133 48.25,22.191 -13.44,139.199 -39.71,179.98 -24.03,36.903 -41.05,70.238 -56.85,111.336 -2.14,5.738 -8.52,8.656 -14.26,6.52 l -42.29,-15.75 c -5.74,-2.137 -8.65,-8.52 -6.52,-14.258 17.29,-46.426 36.48,-83.981 63.95,-125.207 20.04,-29.871 32.94,-57.903 42.59,-92.559 -46.84,-20.035 -87.62,-34.133 -136.83,-47.301 l -107.24,-28.992 c -1.82,-0.265 -5.99,0.617 -6.67,1.957 -4.16,8.18 12.6,87.203 15.61,102.938 11.48,60.07 -8.49,148.437 -32.33,208.933 -2.24,5.692 -8.67,8.489 -14.37,6.25 l -41.99,-16.531 c -5.69,-2.242 -8.49,-8.676 -6.25,-14.371 16.74,-42.539 25.81,-80.535 30.08,-126.047 3.91,-38.305 -12.27,-95.648 -19.17,-137.105 -5.85,-35.211 9.43,-82.106 47.97,-91.696 13.35,-3.472 25.39,-3.73 38.88,-0.832 z m -575,635.936 c 37.45,-243.25 74.61,-447.772 125.11,-688.655 1.25,-5.992 7.12,-9.828 13.12,-8.574 l 44.16,9.262 c 6,1.254 9.84,7.129 8.58,13.121 -50.24,239.633 -87.2,443.096 -124.46,685.086 -0.94,6.05 -6.59,10.2 -12.64,9.27 l -44.61,-6.86 c -6.05,-0.94 -10.2,-6.6 -9.26,-12.65 z M 3378.52,486.582 c 14.23,-3.48 70.07,3.52 74.96,3.871 87.19,3.824 160.27,37.699 219.53,101.758 20.81,-60.723 58.71,-104.457 119.06,-118.172 67.75,-15.394 140.1,5.324 182.79,60.473 19.38,24.699 27.27,52.566 23.71,83.761 l -88.31,608.207 c -0.88,6.05 -6.5,10.25 -12.56,9.37 l -44.66,-6.48 c -6.06,-0.89 -10.25,-6.51 -9.38,-12.57 l 88.16,-607.128 c 2.88,-25.602 -20.27,-49.734 -42.55,-60.785 -40.33,-20.008 -104.2,-17.157 -132.67,24.605 -14.8,21.696 -27.28,66.957 -36.21,97.231 26.61,6.257 51.57,24.984 63.33,50.015 21.41,48.797 4.33,104.586 -40.73,133.032 -44.01,26.183 -118.03,22.566 -166.9,-2.618 -20.46,-10.797 -33.49,-28.429 -37.81,-51.16 -12.6,-68.019 40.24,-123.879 101.96,-138.359 l -21.41,-29.25 c -28.04,-33.422 -85.31,-62.133 -132.58,-70.043 -29.92,-4.547 -55.32,-7.453 -85.49,-9.789 l -0.21,0.66 -6.99,232.406 c -0.18,6.078 -5.21,10.867 -11.29,10.75 l -44.66,-0.883 c -6.08,-0.117 -10.92,-5.101 -10.86,-11.183 l 1.53,-163.66 c 0.93,-37.571 -2.31,-69.446 -10.79,-106.055 -6.23,-25.965 -22.67,-61.273 -50.7,-70.582 -28.47,-7.32 -54.01,-8.188 -82.91,-2.816 -6.02,1.117 -11.81,-2.856 -12.93,-8.872 l -8.24,-44.371 c -1.12,-6.019 2.86,-11.804 8.87,-12.922 39.79,-7.39 74.97,-6.046 114.07,4.356 53.61,15.129 79.73,56 92.87,107.203 z m 289.64,238.676 c -17.41,1.074 -31.95,6.902 -45.28,18.156 -13.35,11.074 -19.83,26.469 -18.4,43.758 3.02,6.141 20.5,13.664 29.48,14.766 21.74,2.675 54.46,6.304 74.95,-6.235 14.36,-10.359 20.08,-27.953 14.55,-44.777 -4.01,-6.153 -8.85,-10.449 -15.44,-13.68 z M 2620.38,491.898 c 0,22.758 -18.44,41.204 -41.2,41.204 -22.75,0 -41.2,-18.446 -41.2,-41.204 0,-22.753 18.45,-41.199 41.2,-41.199 22.76,0 41.2,18.446 41.2,41.199 z m 2695.84,670.752 c -37.08,21.41 -81.29,17.18 -113.62,-10.89 l -21.67,-24.29 c -40.84,-53.18 -30.84,-129.396 22.34,-170.236 3.65,-2.808 6.87,-5.011 10.8,-7.406 -30.42,-14.676 -56.66,-25.933 -88.26,-37.867 l -235.04,536.589 c -2.46,5.61 -8.99,8.16 -14.6,5.71 -0.03,-0.01 -0.05,-0.03 -0.08,-0.04 l -41.2,-18.44 c -5.55,-2.49 -8.06,-8.98 -5.62,-14.56 L 5076.8,856.113 c 7.08,-16.152 25.14,-24.058 41.81,-18.304 83.46,28.824 151.37,60.906 226.64,107.078 45.36,25.734 71.5,79.583 51.84,131.063 -15.98,39.52 -42.55,68 -80.87,86.7 z m -5.12,-159.76 c -17.83,-8.452 -36.55,-8.292 -54.24,0.47 -2.72,1.23 -4.95,2.44 -7.46,4.07 -25.89,16.82 -33.25,51.45 -16.43,77.34 l 14,15.75 12.04,5.25 c 34.02,-0.38 62.61,-20.38 74.62,-52.22 6.91,-21.03 -5.33,-39.96 -22.53,-50.66 z m 230.65,674.83 c 80.32,-175.39 152.82,-321.34 244.06,-491.31 2.89,-5.39 9.61,-7.42 15.01,-4.52 l 39.76,21.34 c 5.39,2.9 7.42,9.61 4.52,15.01 -90.53,168.65 -162.46,313.47 -242.17,487.5 -2.54,5.57 -9.12,8.01 -14.69,5.46 l -41.03,-18.79 c -5.57,-2.55 -8.01,-9.12 -5.46,-14.69 z m -132.99,-579.4 c 23.1,-23.35 47.29,-38.62 78.31,-49.41 l -14.05,-70.199 c -1.31,-7.637 3.82,-14.887 11.46,-16.191 0.49,-0.086 0.91,-0.133 1.41,-0.168 66.45,-4.52 122.97,-3.137 189.12,4.636 13.25,1.555 12,14.739 16.21,23.727 23.22,36.395 41.14,68.205 60.24,106.925 3.42,6.95 0.57,15.36 -6.38,18.79 -0.35,0.16 -0.65,0.3 -1.01,0.44 l -70.57,28.16 c 13.96,55.33 2.3,122.04 -23.02,174.7 -53.24,109.85 -100.21,201.61 -158.2,309.02 -3.64,6.84 -12.14,9.44 -18.98,5.8 l -39.84,-21.19 c -6.84,-3.64 -9.44,-12.13 -5.8,-18.97 56.87,-106.96 103.48,-198 157,-306.67 15.84,-33.49 35.65,-109.69 15.14,-139.51 -14.15,-20.57 -40.48,-33.2 -65.6,-34.25 -4.63,2.63 -9.15,3.34 -13.78,0.95 -37.56,6.29 -84.37,58.34 -103.48,93.56 -50.17,97.92 -90.07,181.85 -134.32,282.59 -3.11,7.08 -11.37,10.31 -18.46,7.22 l -41.6,-18.14 c -7.1,-3.1 -10.35,-11.37 -7.25,-18.47 0.01,-0.03 0.03,-0.06 0.04,-0.09 45.07,-102.64 85.81,-188.12 137.14,-287.78 15.33,-29.5 32.38,-52.37 56.27,-75.48 z m 226.79,-10.6 28.47,-11.36 -27.25,-45.61 c -30.26,-2.64 -55.91,-3.65 -86.28,-3.39 l 2.64,14.2 1.97,6.43 c 27.86,4.35 59.54,20.09 80.45,39.73 z M 2405.1,1287.79 c -70.3,-235.86 -124.3,-436.595 -181.8,-675.903 -1.43,-5.953 2.24,-11.938 8.19,-13.367 l 43.88,-10.543 c 5.95,-1.43 11.93,2.234 13.36,8.187 57.21,238.066 110.92,437.766 180.86,672.406 1.75,5.87 -1.59,12.04 -7.45,13.79 l -43.25,12.89 c -5.87,1.75 -12.04,-1.59 -13.79,-7.46 z m -737.3,-186.01 c 0,22.75 -18.45,41.2 -41.21,41.2 -22.75,0 -41.2,-18.45 -41.2,-41.2 0,-22.76 18.45,-41.21 41.2,-41.21 22.76,0 41.21,18.45 41.21,41.21 z M 1493.01,984.285 c -21.16,146.505 -19.72,184.285 -9.05,252.235 0.81,5.14 -1.89,9.97 -6.69,11.96 l -44.36,18.41 c -5.65,2.34 -12.14,-0.34 -14.48,-5.99 -0.2,-0.48 -0.34,-0.9 -0.48,-1.4 -15.52,-58.26 -6.36,-181.39 2.35,-250.79 -24.69,8.81 -44.84,18.23 -67.44,31.5 47.54,39.43 42.9,115.8 13.35,165.46 -25.08,41.74 -57.9,70.41 -102.63,89.67 -5.6,2.48 -12.14,-0.06 -14.62,-5.66 l -18.23,-41.28 c -2.48,-5.6 0.06,-12.14 5.66,-14.61 31.43,-13.89 54.5,-34.05 72.48,-63.33 11.04,-17.82 24.33,-54.84 6.29,-74.4 -6.18,-4.95 -12.31,-8.03 -19.97,-10.04 -23.91,-6.5 -53.06,-7.42 -75.69,5.61 -24.28,15.2 -43,31 -62.05,52.39 -4.07,4.57 -11.07,4.98 -15.65,0.91 -0.16,-0.16 -0.3,-0.29 -0.46,-0.45 l -26.67,-26.66 c -4.05,-4.05 -4.37,-10.41 -0.75,-14.85 40.07,-49.12 90.93,-84.7 153.65,-87.34 53,-38.536 100.18,-60.13 162.68,-81.208 l 14.97,-89.789 c 7.47,-37.195 28.71,-75.348 67.97,-81.445 6.05,-0.938 11.71,3.203 12.65,9.253 0.04,0.27 0.07,0.5 0.09,0.774 l 3.07,36.562 c 10.91,10.77 -6.77,20.786 -10.7,28.59 -6.95,13.805 -11.73,51.946 -14.52,71.289 l 54.29,-18.234 c 17.85,-4.774 35.25,-8.91 53.07,-4.152 0.96,-3.454 18.19,-20.043 22.33,-22.348 l 27.23,-12.445 c 23.69,-13.141 46.43,-19.547 73.5,-20.707 -9.62,-40.997 8.46,-86.825 39.86,-113.989 57.04,-49.343 146.94,-45.734 197.57,12.594 l 82.26,-56.695 c 27.58,-18.383 73.91,-28.008 100.39,-1.094 9.54,9.586 15.41,19.957 18.73,33.062 63.84,214.11 108.85,397.572 151.34,616.922 1.17,6.01 -2.76,11.82 -8.77,12.99 l -44.31,8.58 c -6.01,1.17 -11.82,-2.76 -12.98,-8.77 -41.82,-215.85 -86.06,-396.405 -148.77,-607.136 l -2,-3.574 c -4.26,0.879 -14.5,4.356 -19.54,7.25 -8.05,4.621 -90.91,63.379 -93.98,66.063 -0.32,14.211 -2.59,26.195 -7.48,39.539 -9.91,29.457 -30.39,50.57 -59.53,61.371 -34.58,21.289 -73.21,24.672 -110.96,9.711 -2.18,-0.621 -70.4,-9.602 -86.6,-8.762 -12.15,0.633 -39.82,13.566 -55.34,20.547 l 10.15,57.434 c 0.9,5.113 -1.71,9.988 -6.46,12.078 l -32.46,14.259 c -4.75,2.08 -10.11,0.71 -13.27,-3.42 l -31.79,-41.585 -5.32,-5.637 c -12.31,-0.254 -83.39,24.523 -101.93,30.777 z m 341.05,-141.293 c 21.37,1.992 39.66,1.379 60.85,-2.039 l 3.53,-2.734 c 2.07,-2.164 20.45,-44.856 25.87,-57.367 -9.9,-22.497 -48.54,-31.813 -73.57,-29.336 -27.97,3.597 -48.88,25.613 -51.05,53.726 -0.81,6.274 0.07,11.817 2.81,17.52 9.34,9.445 19.07,15.679 31.56,20.23 z m -73.78,215.518 c 0,22.76 -18.44,41.2 -41.2,41.2 -22.76,0 -41.2,-18.44 -41.2,-41.2 0,-22.75 18.44,-41.2 41.2,-41.2 22.76,0 41.2,18.45 41.2,41.2 z m 978.27,-451.678 23.06,236.449 c 1.49,18.524 -12.31,34.754 -30.83,36.25 -4.39,0.356 -8.16,-0.043 -12.38,-1.308 -83.49,-25.035 -202.43,-98.36 -205.36,-189.391 -4.56,-141.324 235.7,-149.867 313.81,-159.531 34.03,-5.395 65.4,4.695 89.9,28.914 10.9,-18.578 25.07,-31.524 44.55,-40.699 27.44,-13.489 52.64,-20.911 83,-24.446 31.58,-9.519 60.47,-10.773 92.75,-4.031 34.33,7.609 55.91,39.574 60.42,72.492 l 30.78,215.309 c 0.86,6.058 -3.35,11.672 -9.41,12.539 l -44.67,6.387 c -6.06,0.867 -11.68,-3.344 -12.54,-9.403 l -30.46,-213.097 c -1.17,-6.118 -6.88,-19.215 -13.04,-19.801 -48.61,-1.973 -90.35,6.926 -133.94,28.558 -7.49,4.188 -12.96,17.668 -12.05,27.399 l 30.2,182.348 c 3.17,17.703 -8.61,34.625 -26.31,37.796 -0.23,0.043 -0.43,0.075 -0.66,0.114 -18.25,3.492 -35.88,-8.469 -39.38,-26.723 -0.09,-0.48 -0.16,-0.887 -0.23,-1.371 -7.36,-55.965 -18.47,-102.625 -37.13,-155.898 -6.53,-17.286 -15.84,-30.551 -29.86,-42.579 -9.65,-6.996 -20.46,-9.418 -32.17,-7.207 z m -66.64,9.547 c -86.34,22.617 -92.82,64.566 -92.65,70.723 1.22,45.418 77.52,91.707 110.46,107.648 z m 46.46,-150.285 c 0,22.758 -18.44,41.203 -41.2,41.203 -22.76,0 -41.21,-18.445 -41.21,-41.203 0,-22.754 18.45,-41.203 41.21,-41.203 22.76,0 41.2,18.449 41.2,41.203 z m 1852.55,832.846 c 80.62,-195.1 151.67,-358.573 239.31,-550.624 2.54,-5.57 9.11,-8.023 14.68,-5.484 l 41.05,18.734 c 5.58,2.543 8.03,9.118 5.49,14.688 -87.28,191.269 -158.04,354.086 -238.34,548.386 -2.34,5.66 -8.82,8.35 -14.47,6.01 l -41.71,-17.23 c -5.66,-2.34 -8.35,-8.82 -6.01,-14.48 z m 15.34,-221.38 c 0,22.76 -18.45,41.2 -41.2,41.2 -22.76,0 -41.2,-18.44 -41.2,-41.2 0,-22.76 18.44,-41.2 41.2,-41.2 22.75,0 41.2,18.44 41.2,41.2 z M 957.098,1388.54 c -4.27,-46.73 46.342,-62.05 64.112,-65.61 16.98,-3.29 33.27,3.95 42.22,18.75 l 13.65,19.21 c 5.44,6.27 3.51,14.13 1.67,21.47 l -8.77,28.22 c -0.99,2.54 -2.98,6.8 -5.19,8.67 l -2.12,1.56 0.9,-0.59 -29.52,22.7 -2.18,1.31 c -12.92,5.85 -24.68,9 -38.792,10.4 -66.406,8.14 -158.074,-16.45 -204.973,-68.94 -39.375,-44.08 -35.562,-111.73 8.512,-151.11 10.332,-9.22 20.539,-15.42 33.496,-20.31 33.817,-16.41 63.532,-27.93 99.571,-38.6 44.007,-13.06 86.676,-7.08 125.386,17.59 5.16,3.29 6.68,10.14 3.39,15.31 l -24.25,38.06 c -3.28,5.14 -10.09,6.67 -15.25,3.42 -51.698,-32.6 -114.862,6.55 -163.515,26.58 -4.222,1.64 -7.578,3.59 -11.09,6.45 -17.632,14.34 -20.296,40.26 -5.953,57.9 15.039,16.31 31.434,26.83 52.52,33.72 z m 93.132,180.84 c 0,22.75 -18.45,41.2 -41.21,41.2 -22.75,0 -41.2,-18.45 -41.2,-41.2 0,-22.76 18.45,-41.21 41.2,-41.21 22.76,0 41.21,18.45 41.21,41.21 z m 92.38,-43.34 c 0,22.75 -18.45,41.2 -41.21,41.2 -22.76,0 -41.2,-18.45 -41.2,-41.2 0,-22.75 18.44,-41.2 41.2,-41.2 22.76,0 41.21,18.45 41.21,41.2 z m 3329.85,-489.98 c 0,22.76 -18.45,41.21 -41.2,41.21 -22.76,0 -41.21,-18.45 -41.21,-41.21 0,-22.75 18.45,-41.201 41.21,-41.201 22.75,0 41.2,18.451 41.2,41.201 z M 2742.43,971.023 c 0,22.754 -18.45,41.207 -41.21,41.207 -22.75,0 -41.2,-18.453 -41.2,-41.207 0,-22.753 18.45,-41.203 41.2,-41.203 22.76,0 41.21,18.45 41.21,41.203 z m 98.22,-24.492 c 0,22.758 -18.44,41.203 -41.2,41.203 -22.75,0 -41.2,-18.445 -41.2,-41.203 0,-22.754 18.45,-41.203 41.2,-41.203 22.76,0 41.2,18.449 41.2,41.203 z m 127.6,-511.433 c 0,22.754 -18.45,41.199 -41.2,41.199 -22.76,0 -41.21,-18.445 -41.21,-41.199 0,-22.758 18.45,-41.203 41.21,-41.203 22.75,0 41.2,18.445 41.2,41.203"
       style="fill:#ff0000;fill-opacity:1;fill-rule:evenodd;stroke:none"
       transform="matrix(0.13333333,0,0,-0.13333333,0,1152.3867)" />
    <path
       id="path4"
       d="m 5075.9,1998.36 c -44.63,-11.49 -87.86,-28.09 -128.82,-49.52 -20.19,-10.67 -40.29,-25.27 -57.68,-41.2 -14.5,-6.4 -29.11,-12.71 -43.84,-18.94 3.11,21.87 -8.47,44.5 -22.99,62.94 4.74,-3.58 11.42,-4.48 17.79,0.3 58.48,43.96 145.94,79.96 220.72,82.69 3.26,-6.66 6.09,-12.42 8.48,-17.24 l 8.77,-7.61 c 3.9,-1.28 7.72,-2.57 11.49,-3.87 -4.62,-2.53 -9.27,-5.04 -13.92,-7.55 z m -173.82,-120.19 c 66.9,27.96 132.19,59.53 195.56,94.53 15.08,3.48 30.32,6.34 45.68,8.59 1.86,0.27 3.51,0.78 4.95,1.48 23.68,-10.84 44.18,-22.37 62.44,-34.93 -98.73,-6.64 -193.55,-42.33 -272.37,-102.88 -15.91,-12.22 2.43,-36.08 18.33,-23.86 81.39,62.53 180.94,96.85 283.58,97.78 2.16,0.01 4.09,0.38 5.78,1.02 1.39,-1.26 2.76,-2.52 4.12,-3.8 -89.08,-51.85 -188.95,-99.76 -296.27,-143.78 -23.56,36.11 -56.35,67.6 -90.39,89.79 12.74,5.3 21.52,7.01 38.59,16.06 z m 299.05,-118.88 c -14.04,3.73 -28.53,5.63 -43.12,5.63 -3.64,-0.26 -22.68,-6.14 -27.65,-7.63 -19.21,-5.77 -10.56,-34.59 8.65,-28.82 l 21.14,6.35 c 17.62,-0.28 35.01,-3.92 51.24,-10.73 2.82,-13.09 4.6,-26.43 5.31,-39.91 -14.04,3.94 -28.54,6.16 -43.19,6.6 -3.46,-0.13 -22.63,-5.09 -27.44,-6.3 -19.45,-4.89 -12.12,-34.07 7.33,-29.18 l 21.24,5.33 c 14.25,-0.62 28.31,-3.26 41.78,-7.84 0,-0.27 0.01,-0.55 0.03,-0.83 0.05,-1.6 0.3,-3.07 8.13,-42.69 -14.46,4.43 -29.5,6.88 -44.7,7.25 -3.8,-0.19 -22.69,-5.81 -27.85,-7.3 -19.28,-5.56 -10.94,-34.47 8.33,-28.91 l 21.04,6.07 c 15.97,-0.66 31.68,-4.11 46.43,-10.2 l 0.26,-17.13 -3.35,-23.27 c -0.33,-1.62 -0.72,-3.23 -1.15,-4.84 -18.88,7.09 -38.9,10.74 -59.13,10.74 -23,-1.68 -33.13,-8.29 -36.6,-14.42 -8.74,21.43 -13.13,44.7 -12.59,68.32 10.44,67.47 -2.8,136.37 -37.26,195.06 21.53,10.04 72.36,18.21 106.45,2.91 0.81,-0.37 8.05,-11.07 16.67,-34.26 z m 44.85,-62.82 c -4.91,54.03 -25.23,105.8 -58.88,148.97 28.63,15.43 56.91,31.53 84.82,48.29 3.97,-4.46 14.46,-15.62 18.28,-20.31 -16.19,-2.94 -21.58,-4.13 -36.05,-12.23 -2.42,-1.53 -23.34,-20.53 -26.61,-23.48 -14.9,-13.43 5.25,-35.78 20.15,-22.35 l 22.58,20.36 c 15.81,8.56 20.12,13.43 38.04,14.28 7.92,-11.21 12.07,-20.86 19.98,-33.43 -16.09,-2.44 -31.69,-7.73 -46.05,-15.68 -2.46,-1.55 -23.07,-20.24 -26.38,-23.23 -14.91,-13.41 5.22,-35.77 20.13,-22.36 l 22.28,20.06 c 14.68,7.84 30.94,12.15 47.52,12.64 13.66,-22.8 20.89,-35.71 21.25,-36.89 -19.4,-1.63 -38.32,-7.31 -55.5,-16.73 -10.72,-6.01 -20.89,-15.81 -27.86,-25.87 -11.42,-16.49 13.31,-33.62 24.73,-17.13 4.75,6.85 10.91,12.62 18.08,16.89 14.29,7.84 30.53,12.36 47.17,13.13 2.02,-13.52 2.72,-27.2 2.11,-40.83 -21.22,-1.09 -42,-6.86 -60.81,-16.96 -2.55,-1.57 -23.34,-20.21 -26.76,-23.25 -14.99,-13.33 5.01,-35.81 20,-22.48 l 22.51,20.02 c 12.96,6.71 27.05,10.85 41.49,12.24 -1.22,-6.38 -2.74,-12.72 -4.55,-19 l 4.41,-15.37 c 7.59,-6.81 13.55,-15.23 17.45,-24.65 l 4.1,-23.17 c -0.5,-5.72 -1.4,-11.37 -2.69,-16.91 -7.09,16.3 -19.37,30.42 -35.89,39.68 -6.6,3.7 -14.91,1.92 -19.42,-4.15 -3.55,-4.77 -8.76,-7.98 -14.55,-9.04 l -17.2,5.08 -14.72,11.75 c -13.25,14.53 -24.89,30.43 -34.75,47.4 -10.98,16.35 -9.39,65.52 -8.41,54.71 z m -106.79,-191.94 c 10.45,3.12 5.88,5.16 27.42,7.04 15.23,-0.23 30.28,-2.99 44.58,-8.12 -1.94,-2.95 -4.05,-5.81 -6.33,-8.54 -3.09,-2.7 -4.48,-6.85 -3.26,-12.12 1.9,-9.28 7.45,-30.07 7.26,-42.92 0.16,-11.96 -2.51,-23.53 -7.53,-33.92 -0.25,22.6 -6.29,45.54 -20.53,59.1 -9.79,3.64 -18.59,9.52 -25.68,17.18 -5.93,7 -11.25,14.46 -15.93,22.3 z m -458.9,359.79 c 8.71,-8.26 14.78,-19 17.31,-30.86 l -41.49,-11.96 c 6.75,15.04 14.85,29.36 24.18,42.82 z m 46.27,-22.52 c -4.28,17.97 -13.99,34.12 -27.7,46.31 10.71,12.23 22.55,23.5 35.4,33.66 8.14,-8.16 16.78,-16.49 21.34,-27.09 6.03,-13.99 7,-21.79 5.16,-40.46 -10.35,-4.24 -17.39,-6.76 -34.2,-12.42 z m 66.18,25.1 c 2.58,26.03 -15.12,52.86 -33.13,71.96 7.99,4 16.39,7.31 25.07,9.89 8.81,-8.58 16.58,-18.17 23.16,-28.57 10.06,-25.81 10.33,-32.18 8.36,-43.73 -7.79,-3.2 -15.61,-6.39 -23.46,-9.55 z m 254.08,197.15 c -37.18,-2.57 -73.73,-11.14 -108.25,-25.42 -34.82,-12.38 -68.36,-29.43 -99.38,-50.54 l -33.41,65.65 c 58.27,41.67 141.49,78.78 209.06,77.72 11.81,-25.23 22.69,-48.1 31.98,-67.41 z m -45.89,97.3 c -16.25,-0.74 -32.39,-3.23 -48.15,-7.42 -57.61,-13.95 -112.24,-38.77 -160.82,-73.05 l -31.84,62.57 c 59.02,41.49 142.68,73.29 213.31,73.79 0.66,0.01 1.29,0.05 1.9,0.11 8.71,-19.28 17.3,-38.07 25.6,-56 z m -38.91,85.71 c -80.08,-3.19 -154.55,-33.88 -215.71,-76.48 l -27.3,53.62 c 61.58,40.75 148.02,77.37 218.46,78.92 8.08,-18.77 16.32,-37.55 24.55,-56.06 z m -37.16,85.65 c -15.92,-1.05 -31.73,-3.62 -47.2,-7.68 -61.19,-14.14 -119.66,-39.17 -172.4,-73.81 l -28.74,56.46 c 61.74,42.34 150.83,74.99 225.45,80.71 7.27,-18.19 14.96,-36.84 22.89,-55.68 z m -34.4,84.96 c -40.11,-3.71 -79.53,-13.09 -117.06,-27.9 -38.85,-13.01 -76.26,-31.59 -110.66,-55.01 -27.02,53.05 -30.42,58.49 -33.36,63.18 10.7,21.4 18.77,44.11 23.96,66.51 31.13,-34.63 68.95,-56.5 116.16,-68.57 7.41,-1.9 15.06,2.07 17.78,9.21 19.61,51.45 29.73,105.93 29.94,160.8 9.87,-6.64 20.21,-12.57 30.94,-17.76 6.97,-32.97 22.47,-78.98 42.3,-130.46 z m 115.72,-816.2 c -7.96,12.55 7.05,26.02 19.6,12.55 2.3,-2.47 15.28,-14.79 16.83,-16.39 10.42,-11.7 19.21,-24.75 26.16,-38.76 l 11.83,12.76 3.94,22.69 c -5.97,10.48 -13.22,20.21 -21.67,28.83 -16.58,16.9 -22.56,13.24 -27.02,12.56 -19.82,-3.06 -24.4,26.67 -4.58,29.73 21.63,3.34 41.73,-9.66 57.39,-26.34 0.07,11.59 -0.61,23.14 -2.04,34.59 -2.86,1.68 -28.01,39.78 -78.36,22.74 -18.99,-6.43 -28.64,22.07 -9.64,28.5 26.31,8.9 54.56,6.32 78.32,-6.07 -3.55,11.57 -7.9,22.9 -13.02,33.93 -18.01,8.1 -38.06,10.22 -57.23,6.17 -12.2,-5.15 -24.44,-10.18 -36.73,-15.1 14.47,-30.14 21.9,-62.41 18.35,-94.53 -2.19,-19.85 -1.4,-34.68 9.74,-50.88 3.54,-5.25 5.38,-7.57 5.37,-12.29 -0.01,-4.72 -2.24,-9.37 -6.41,-12.3 -12.56,-8.81 -23.15,-20.13 -31.1,-33.23 l -0.74,-2.5 c 15.73,6.78 31.89,12.57 48.37,17.32 4.16,1.04 15.45,2.36 21.39,2.39 -4.13,6.63 -7.66,14.46 -12.82,20.36 z M 1527.45,1965.6 c 29.03,-7.29 65.33,-21.15 95.03,-37.65 6.2,-3.44 14.81,-12.81 20.75,-16.71 -31.15,13.94 -85.61,39.53 -115.78,54.36 z m 186.07,-84.74 c 1.27,4.48 0.39,9.61 -3.93,14.11 -52.26,54.38 -139.89,90.59 -220.5,108.36 2.04,0.75 4.09,1.49 6.16,2.22 17.43,5.09 20.34,8 25.13,19.85 1.47,2.99 2.98,6.08 4.53,9.25 38.12,-1.16 75.74,-9.23 111.02,-23.83 39.79,-14.18 76.55,-33.94 109.72,-58.88 5.88,-4.42 12.03,-3.98 16.68,-1.06 -28.4,-35.55 -23.45,-60.36 -19.72,-71.22 1.09,-3.18 2.8,-5.55 4.86,-7.21 l -8.8,-0.57 c -0.48,-0.27 -0.96,-0.54 -1.44,-0.82 -7.93,3.24 -15.83,6.51 -23.71,9.8 z m -362.73,-139.44 c -0.25,-0.75 -0.43,-1.51 -0.54,-2.28 -5.22,-22.28 -8.46,-44.94 -9.93,-66.34 -6.59,-5.22 -6.53,-13.92 -2.58,-19.96 -12.25,-23.68 -28.08,-45.34 -46.95,-64.21 -4.93,-4.67 -11.15,-8.31 -17.96,-10.46 l -12.06,1.1 -13.25,10.24 -16.55,1.21 c -16.73,-9.38 -29.11,-23.74 -36.15,-40.3 -0.47,1.79 -0.91,3.6 -1.3,5.41 l 0.64,28.12 c 3.31,12.27 10.15,23.31 19.7,31.74 l 4.51,15.4 c -1.79,6.29 -3.3,12.65 -4.52,19.05 14.43,-1.4 28.5,-5.53 41.45,-12.24 l 22.5,-20.02 c 14.99,-13.33 34.99,9.15 20,22.48 -28.66,25.49 -53.51,38.82 -87.57,40.28 -0.65,13.6 -0.04,27.25 1.84,40.77 16.75,-0.73 33.15,-5.3 47.93,-13.41 6.68,-4 12.84,-9.77 17.59,-16.62 11.42,-16.49 36.15,0.64 24.73,17.13 -18.16,26.22 -51.52,39.97 -83.76,42.61 6.07,18.83 4.99,16.95 17.47,38.67 16.66,-0.46 36.96,-6.56 51.7,-14.43 l 22.28,-20.06 c 14.91,-13.42 35.04,8.94 20.13,22.36 -24.43,22 -45.84,35.08 -73.01,39.13 7.9,12.41 16.15,24.25 24.76,35.55 27.59,-0.6 46.17,-8.92 64.49,-29.74 13.25,-15.06 35.83,4.81 22.58,19.87 -18.92,21.51 -36.66,32.1 -64.26,37.54 2.93,3.29 5.91,6.54 8.92,9.72 27.65,-15.68 55.67,-30.69 84.04,-45.03 -22.32,-27.41 -37.59,-64.7 -46.87,-103.28 z m 27.23,-15.95 c 15.25,5.92 31.45,9.09 47.83,9.35 l 21.15,-6.35 c 19.2,-5.77 27.86,23.05 8.64,28.82 -24.58,7.37 -46.43,7.99 -68.41,2.69 3.04,9.51 6.45,18.92 10.24,28.19 0.67,1.55 1.38,3.09 2.1,4.62 0.65,0.21 1.31,0.46 1.98,0.76 17.13,7.69 35.65,11.81 54.42,12.1 l 21.14,-6.35 c 5.15,-1.54 9.54,-0.6 12.84,1.71 6.39,-2.83 12.8,-5.63 19.22,-8.38 -35.23,-58.94 -48.91,-128.38 -38.54,-196.42 -1.46,-23 -5.99,-45.69 -13.45,-67.48 -1.76,2.33 -4.38,4.23 -7.99,5.31 -31.2,9.37 -57.99,7.84 -86.23,-2.85 l -3.12,12.2 -1.95,32.67 c 14.82,6.16 30.64,9.65 46.72,10.32 l 21.03,-6.07 c 19.27,-5.56 27.61,23.35 8.34,28.91 -25.76,7.42 -48.61,7.2 -71.48,0.47 l 6.55,38.88 c 0.22,0.89 0.37,1.84 0.45,2.85 0.04,0.46 0.07,0.92 0.07,1.37 13.47,4.57 27.54,7.22 41.79,7.84 l 21.24,-5.33 c 19.45,-4.89 26.78,24.29 7.33,29.18 -24.72,6.21 -46.53,6.05 -68.41,0.38 1.43,13.66 3.6,27.21 6.5,40.61 z m 506.03,159.76 c -13.6,-13.28 -22.76,-30.68 -25.88,-49.77 -0.35,-2.13 -0.31,-4.08 0.02,-5.85 l -39.96,16.18 c 5.93,3.36 9.77,10.31 6.31,18.72 -1.78,4.32 -2.13,9.09 -1.02,13.61 l 6.88,16.56 c 5.38,8.76 11.65,16.93 18.71,24.37 l 12.02,-8.3 c 8.05,-8.16 15.7,-16.68 22.92,-25.52 z m -2.67,-65.02 c 3.2,2.02 5.67,5.43 6.48,10.4 1.86,11.37 6.94,21.84 14.49,30.25 13.66,-19.87 25.35,-41.06 34.88,-63.27 z m -57.47,116.24 c -37.69,-40.2 -32.59,-68.96 -27.87,-81.67 l -36.78,14.9 c 8.23,1.49 15.43,9.2 11.81,19.75 -1.56,4.53 -1.68,9.43 -0.36,14.01 l 7.45,16.74 c 6.37,10.07 13.86,19.38 22.32,27.75 5.65,-1.9 11.19,-4.15 16.58,-6.75 z m -77.11,51.65 c -31.03,21.11 -64.66,38.19 -100.08,50.79 -33.92,14.06 -70.39,22.6 -107.56,25.17 9.81,20.37 20.63,43.12 32.01,67.41 86.35,1.5 175.01,-53.94 208.96,-77.8 -14.66,-28.83 -26.48,-52.09 -33.33,-65.57 z m 47.19,92.81 c -48.56,34.26 -103.21,59.08 -161.1,73.1 -15.5,4.13 -31.57,6.6 -47.8,7.34 8.39,18.14 16.99,36.91 25.61,56 0.6,-0.07 1.23,-0.1 1.87,-0.11 40.14,-0.28 79.84,-8.32 116.92,-23.67 34.7,-12.32 66.97,-29.11 96.39,-50.05 -11.16,-21.89 -21.96,-43.09 -31.89,-62.61 z m 45.69,89.68 c -30.68,21.36 -64.11,38.54 -99.41,51.06 -36.54,15.14 -76.08,23.8 -116.24,25.41 8.29,18.62 16.53,37.4 24.58,56.08 90.18,-1.64 183.62,-56.41 218.41,-79.06 -9.06,-17.69 -18.25,-35.69 -27.34,-53.49 z m 41.19,80.55 c -52.78,34.68 -111.33,59.75 -172.96,74 -15.15,3.98 -30.83,6.52 -46.69,7.57 7.98,18.92 15.68,37.58 22.94,55.7 80.27,-5.65 159.6,-34.98 225.65,-80.92 -9.03,-17.53 -18.79,-36.53 -28.94,-56.35 z m 42.85,83.3 c -68.92,47.05 -148.19,75.82 -228.05,83.22 20.2,52.31 35.68,98.36 42.25,130.51 10.73,5.19 21.07,11.13 30.94,17.78 0.44,-55.17 17.73,-104.28 38.55,-155.57 2.85,-7.03 10.48,-10.83 17.81,-8.88 40.75,10.86 79.76,28.5 109.03,61.2 5.64,-22.15 13.32,-43.75 22.94,-64.54 -6.36,-11.61 -18.31,-34.43 -33.47,-63.72 z m -334.38,-733.79 c 8.62,13.99 11.74,30.78 8.58,47.05 -5.65,34.09 2.73,68.77 19.43,100.97 -6.39,2.52 -12.76,5.05 -19.14,7.6 -2.75,-0.9 -5.96,-0.96 -9.51,0.19 -21.9,7.08 -45.64,5.77 -66.62,-3.67 -5.12,-11.03 -9.47,-22.36 -13.02,-33.93 23.76,12.39 43.23,14.97 69.55,6.07 18.99,-6.44 9.35,-34.93 -9.65,-28.5 -26.44,8.95 -46.9,1.31 -65.58,-19.43 -1.27,-1.41 -2.61,-2.5 -4,-3.31 -1.4,-11.24 -2.08,-22.58 -2.04,-33.96 15.45,16.64 35.18,29.14 57.39,25.71 19.83,-3.06 15.24,-32.79 -4.58,-29.73 -4.46,0.68 -9.02,-0.07 -13.01,-2.15 -22.79,-19.44 -30.34,-29.59 -36.44,-40.6 0.06,-8.4 2.04,-16.67 5.8,-24.2 l 10.89,-10.24 c 0,0 0,0 0,0 11.2,21.43 14.01,27.27 34.49,44.32 8.31,6.92 17.74,3.39 22.25,-3.34 4.5,-6.73 1.96,-14.4 -1.41,-16.8 l -11.42,-9.51 c -5.2,-6.05 -5.19,-8.77 -9.51,-15.46 7.64,-0.33 22.85,-2.61 27.26,-4.11 l 42.08,-16.85 -4.46,9.75 c -7.74,10.55 -17.11,19.81 -27.78,27.41 -2.02,1.45 -7.62,5.51 -8.68,7.57 z m -245.29,318.31 c 0.55,-0.05 1.12,-0.08 1.71,-0.08 102.63,-0.93 202.18,-35.25 283.57,-97.78 15.91,-12.22 34.24,11.64 18.33,23.86 -77.41,59.47 -170.27,94.96 -267.11,102.5 16.41,11.45 33.7,21.82 51.9,31.16 40.46,-22.32 81.77,-43.13 123.86,-62.38 49.43,-23.06 99.38,-44.99 149.81,-65.76 -26.82,-20.13 -52.5,-45.82 -72.29,-74.5 -104.84,42.27 -204.42,88.17 -295.69,137.74 1.95,1.77 3.92,3.51 5.91,5.24 z m 30.33,-415.67 c 14.42,5.23 29.63,8.04 45.01,8.28 l 21.15,-6.34 c 1.67,-0.51 3.27,-0.75 4.78,-0.76 l -9.02,-16.02 c -7.98,-10.59 -18.8,-18.72 -31.21,-23.43 l -8.52,-8.24 c -5.18,-12.33 -10.83,-30.15 -12.96,-48.39 -3.22,7.38 -5.28,15.32 -5.99,23.56 -1.28,16.32 0.82,32.86 6.18,48.46 l -3.21,15.12 c -2.26,2.44 -4.34,5.03 -6.21,7.76 z M 671.309,4334.45 c 17.66,-54.97 28.55,-111.89 32.425,-169.5 16.934,-246.2 16.496,-493.29 -1.308,-739.43 l -5.43,-54.65 c -21.215,-104.3 -85.59,-194.74 -177.191,-248.94 1.59,48.93 -16.973,96.36 -51.34,131.21 23.23,52.42 39.941,107.49 49.758,163.98 32.418,179.64 50.117,361.63 52.918,544.15 1.488,76.68 -2.516,153.36 -11.969,229.47 l -0.93,11.4 18.321,17.74 c 33.757,36.33 65.394,74.59 94.746,114.57 z M 501.422,4144.31 c 10.41,-196.09 3.594,-392.72 -20.371,-587.61 L 458.52,3427.53 c -10.153,-58.47 -28.387,-115.23 -54.18,-168.67 l -11.906,-29.75 C 357.898,3155.86 287.5,3106.07 206.93,3097.9 c 35.566,150.56 45.832,678.36 46.113,898.98 83.852,76.32 140.492,168.12 185.238,274.68 l 11.582,-157.88 c 0.508,-6.94 8.864,-10.16 13.891,-5.35 z m 977.108,-72.81 c 6.08,173.17 -12.8,346.32 -56.06,514.12 -16.62,63.42 -49.87,127.22 -90.52,178.45 5.41,11 10.53,22.14 15.37,33.4 9.62,-34.98 31.81,-71.7 55.98,-99.48 7.44,-8.54 21.26,-6.29 25.6,4.17 58.41,138.34 96.65,284.34 113.57,433.54 19.1,-18.11 23.72,-20.22 33.24,-46.87 l 7.93,-27.89 6.36,-47.43 -1.29,-92.4 c -0.04,-2.34 0.93,-4.59 2.66,-6.17 60.63,-55.72 114.43,-118.44 160.28,-186.84 9.01,-56.75 11.73,-114.33 8.1,-171.67 -15.84,-168.14 -52.43,-333.68 -108.94,-492.82 -5.02,-0.49 -9.25,-3.54 -8.72,-9.11 l 1.13,-11.76 -16.04,-41.54 c -16.5,17.6 -36.27,31.82 -58.21,41.86 -28.62,13.79 -59.08,23.37 -90.44,28.44 z m -526.964,313.11 c 15.872,-46.26 28.055,-93.71 36.434,-141.9 33.16,-193.11 52.09,-388.4 56.66,-584.28 l 0.41,-8.81 c 4.74,-24.56 3.33,-49.91 -4.11,-73.78 l -31.41,-81.06 c -39.163,-73.87 -84.636,-144.23 -135.905,-210.28 -18.793,52.25 -64.485,95.3 -111.934,120.98 19.269,254.15 20.098,509.35 2.48,763.61 -5.363,76.83 -21.875,152.48 -49.023,224.55 31.836,45.37 60.309,93.01 85.18,142.54 10.672,-72.72 16.746,-146.1 5.679,-219.39 -4.152,-25.64 23.899,-44.18 45.86,-30.31 11.168,7.13 44.961,26.99 99.679,98.13 z m 349.114,320.54 c 28.33,-41.25 49.7,-86.88 63.22,-135.07 29.4,-119.99 48.34,-242.31 56.61,-365.57 2.67,-43.36 2.42,-86.84 -0.77,-130.16 -7.44,-94.15 -39.51,-200.3 -78.33,-285.6 -44.77,-94.56 -96.89,-185.46 -155.89,-271.87 -22.37,51.61 -49.28,101.13 -80.42,147.97 -5.47,203.09 -25.05,405.56 -58.59,605.93 -9.98,59.95 -27.74,118.34 -52.842,173.69 34.622,53.62 66.422,109.02 95.242,165.97 3.65,-26.22 9.4,-52.1 17.18,-77.4 6.65,-21.62 33.8,-28.59 50.05,-12.84 56.45,54.71 105.09,116.95 144.54,184.95 z M 6104.84,3557.44 c -23.89,194.67 -30.67,391.05 -20.26,586.9 l 37.62,-36.23 c 5.03,-4.83 13.41,-1.63 13.92,5.33 l 11.55,157.39 c 43.67,-102.54 106.54,-195.78 185.24,-274.69 0.12,-246.73 8.11,-493.39 23.95,-739.62 2.98,-53.19 9.64,-106.11 19.95,-158.38 -89.62,9.97 -165.22,71.22 -193.56,156.82 l -1.61,3.93 c -25.78,53.43 -44,110.18 -54.16,168.63 z m -190.25,776.78 c 36.34,-48.69 75.8,-94.98 118.13,-138.56 -23.31,-259.93 -11.52,-521.82 35.07,-778.6 9.82,-56.47 26.52,-111.52 49.75,-163.92 -34.37,-34.85 -52.93,-82.28 -51.34,-131.21 -67.17,39.75 -120.33,99.38 -152.12,170.66 -14.7,42.58 -24.31,86.75 -28.64,131.58 -7.9,83.67 -12.56,167.62 -13.98,251.65 -3.76,163.12 -0.15,326.33 10.81,489.13 3.79,57.53 14.64,114.39 32.32,169.27 z m -514,-818.02 c -69.78,99.62 -128.05,206.81 -173.71,319.54 -13.91,33.92 -24.8,63.07 -34.33,98.51 -9.69,36.92 -17.48,74.31 -23.34,112.03 -8.96,176.36 8.89,353.06 52.96,524.06 13.52,48.09 34.86,93.64 63.15,134.82 39.45,-68.01 88.09,-130.25 144.54,-184.96 16.25,-15.75 43.4,-8.78 50.05,12.84 7.77,25.26 13.51,51.11 17.16,77.28 28.75,-56.98 60.53,-112.39 95.22,-165.96 -25.08,-55.32 -42.83,-113.67 -52.79,-173.58 -32.05,-188.8 -50.3,-379.69 -54.61,-571.14 l -19.6,-37.15 c -22.93,-48.15 -44.5,-96.93 -64.7,-146.29 z m 142.71,201.73 c 7.26,181.94 25.95,363.25 55.97,542.86 7.13,42.78 18.59,84.73 34.2,125.21 28.05,-36.41 62.25,-74.85 100.32,-99.32 21.99,-13.94 50.16,4.51 46.17,30.23 -10.35,71.57 -4.3,146.72 5.71,217.16 28.18,-58.11 48.38,-89.81 84.13,-144.5 -26.85,-70.73 -43.03,-145.07 -48,-220.56 -17.48,-254.33 -16.64,-509.59 2.51,-763.8 -47.45,-27.76 -93.24,-71.5 -111.71,-122.2 -28.07,34.72 -54.85,70.48 -80.26,107.2 -36.5,53.23 -91.13,150.44 -88.07,220.62 1.31,35.7 0.99,71.43 -0.97,107.1 z m -708.92,1010.08 c 55.74,79.64 91.41,127.86 160.29,194.08 1.65,1.58 2.56,3.77 2.53,6.05 l -1.2,85.37 6.36,47.43 7.93,27.89 c 2.94,8.23 13.52,27.71 15.87,30.4 l 17.11,16.23 c 17.3,-146.1 58.34,-296.78 114.09,-434.39 4.38,-10.82 18.78,-12.91 26.06,-3.79 24.48,30.12 44.66,64.12 54.92,101.86 4.91,-11.51 10.04,-22.92 15.37,-34.23 -42.89,-58.77 -71.76,-109.2 -90.18,-179.29 -43.28,-167.85 -62.15,-341.06 -56.05,-514.3 -53.57,-9.16 -112.55,-32.8 -148.71,-71.04 -60.83,155.32 -108.11,335.99 -128.47,503.01 -8.61,74.76 -7.24,150.33 4.08,224.72 z m -1318.09,-732.69 660.03,269.09 40.04,114.86 164.17,-10.07 -10.47,166.9 117.58,43.36 276.27,654.06 -52.78,110.3 123.66,108.25 -126.62,110.86 53.54,111.91 -269.67,658.4 -115.16,42.47 10.09,163.55 -165.94,-7.19 -42.53,114.02 -657.84,275.66 -110.5,-52.61 -108.56,120.9 -111.2,-123.84 -112.08,53.37 -659.87,-269.04 -42.57,-114.91 -161.78,10.09 10.31,-166.98 -117.45,-43.3 -276.19,-653.9 50.36,-110.54 -121.05,-108.19 123.97,-110.78 -51.07,-112.1 267.42,-658.28 115.19,-42.46 -10.1,-163.55 167.37,10.28 43.41,-117.18 657.67,-275.6 110.57,52.66 106.21,-121.1 112.15,123.12 z m 1063.59,-214.09 38.18,-118.19 c 61.65,-249.08 118.95,-499.21 171.86,-750.29 l 51.92,-187.24 c 13.19,-48.86 32.4,-95.89 57.2,-140.01 -26.63,9.85 -51.49,23.92 -73.64,41.67 -25.99,21.06 -64.62,1.24 -62.67,-32.15 1.35,-27.05 0.46,-54.17 -2.67,-81.07 -2.35,-18.36 -6.05,-36.52 -11.08,-54.34 -18.12,8.07 -35.07,18.57 -50.37,31.2 -8.14,8.44 -14.9,18.1 -20.05,28.63 -7,13.86 -13.8,27.81 -20.4,41.86 -9.77,21.54 -41.66,16.77 -44.69,-6.69 -4.16,-32.27 -10.68,-64.19 -19.52,-95.5 -9.83,-31.84 -25.82,-61.44 -47.06,-87.11 -0.83,-0.9 -1.67,-1.79 -2.52,-2.66 -10.16,43.41 -24.53,85.72 -42.91,126.34 -25.73,58.04 -64.34,109.46 -112.91,150.34 -20.61,17.73 -37.16,39.69 -48.52,64.38 l -19.29,44.06 -13.28,27.06 c -5.85,11.07 -12.48,22.79 -21.16,31.85 -6.86,7.16 -19.55,13.61 -29.37,10.25 l -5.22,-1.78 c -2.88,-0.98 -5.43,-2.75 -7.37,-5.1 l -3.63,-4.38 c -1.27,-1.56 -2.26,-3.32 -2.9,-5.23 l -2.35,-7 c -0.41,-1.18 -0.67,-2.41 -0.79,-3.65 l -1.28,-14.58 0.79,-24.09 c 1.79,-18.2 3.91,-36.38 6.36,-54.51 -94.67,73.47 -160.08,178.25 -184.52,295.56 -14.03,92.01 -45.24,180.55 -92.01,261.02 -22.07,38.52 -48.29,74.53 -78.18,107.37 -32.35,36.66 -71.43,66.76 -115.13,88.68 -38.82,19.51 -84.32,30.63 -127.88,29.8 -83.11,-1.89 -164.11,-26.53 -234.19,-71.23 -37.05,-22.82 -70.1,-51.56 -97.84,-85.09 -6.53,-7.52 -12.56,-15.46 -18.07,-23.77 -23.21,38.6 -55.41,71.02 -93.85,94.5 -74.71,53.48 -163.76,83.3 -255.61,85.59 -27.54,0.47 -58.37,-5.42 -84.44,-13.97 -24.32,-7.8 -47.63,-18.48 -69.41,-31.83 -51.58,-30.47 -95.26,-72.65 -127.53,-123.13 -66.04,-95.22 -110.97,-203.45 -131.79,-317.45 -14.59,-70.59 -44.18,-137.23 -86.77,-195.39 -28.05,-37.47 -60.88,-71.12 -97.64,-100.08 3.24,32.7 3.35,65.64 0.32,98.37 -1.37,18.91 -16.49,33.91 -35.42,35.14 -20.92,1.84 -39.38,-13.59 -41.3,-34.5 -2.74,-26.78 -8.67,-53.15 -17.65,-78.53 -7.61,-21.63 -19.36,-41.57 -34.58,-58.73 -7.89,-8.44 -16.15,-16.52 -24.75,-24.24 -16.01,-13.85 -31.04,-28.81 -44.98,-44.76 -36.72,-42.24 -64.46,-103.9 -81.99,-153.7 -8.67,-24.42 -16.21,-49.22 -22.59,-74.34 -13.56,13.71 -25.07,29.3 -34.18,46.29 -9.44,19.35 -16.9,39.61 -22.25,60.47 -5.99,25.75 -10.3,70.74 -11.82,89.85 -1.23,15.51 -21.31,20.81 -30.03,7.93 l -33.89,-50.03 c -11.63,-14.13 -24.57,-27.12 -38.66,-38.8 -9,-7.07 -18.83,-13.03 -29.27,-17.73 -13.98,42.47 -22.37,82.45 -19.39,128.11 2.25,33.57 -36.61,53.67 -62.71,32.44 -21.64,-17.33 -45.86,-31.15 -71.79,-40.96 12.7,23.14 23.43,47.3 32.11,72.22 l 53.08,164.12 168.67,745.9 55.67,183.72 44.86,120.27 c 6.25,15.1 13.22,29.89 20.89,44.32 21.88,38.81 47.73,75.23 77.14,108.69 1.22,1.4 4.01,5.69 5.15,7.77 11.18,20.43 -1,47.31 -23.37,54.12 -46.7,14.07 -87.14,43.76 -114.56,84.1 -13.71,22.77 -22.89,47.97 -27.05,74.22 -5.08,33.52 -7.48,67.38 -7.18,101.28 2.82,43 -1.54,86.17 -12.9,127.74 -11.14,41.16 -39.02,77.54 -78.72,95.21 -0.63,28.9 -6.22,57.47 -16.52,84.48 -13.6,37.37 -31.49,73.04 -53.32,106.28 -44.6,67.56 -96.52,130.01 -154.8,186.2 l 0.96,70.19 c -1.02,26.74 -5.28,53.26 -12.68,78.97 -7.46,25.65 -20.16,49.46 -37.32,69.93 5.79,35.46 9.09,71.28 9.86,107.2 1.39,67.62 -1.81,135.25 -9.58,202.44 -13.84,121.66 -38.5,241.57 -76.17,358.13 -14.74,45.91 -33.02,90.6 -54.7,133.68 -4.09,8.14 -14.04,11.41 -22.16,7.27 l -39.42,-20.06 c -8.14,-4.14 -11.35,-14.12 -7.15,-22.23 28.66,-55.35 51.52,-113.51 68.21,-173.56 0.93,-16.38 0.12,-32.81 -2.41,-49.02 -2.58,-14.93 -6.93,-29.5 -12.94,-43.41 -10.54,-24.51 -24.51,-47.41 -41.5,-67.99 -49.44,-54.77 -107.85,-100.69 -172.74,-135.8 -3.54,52.96 -20.38,104.17 -48.95,148.9 l -7.04,10.85 -12.57,80.36 -13.37,75.05 -5.5,24.57 c -1.53,5.92 -3.65,13.26 -7.41,18.05 -1.74,2.09 -3.68,4.02 -5.78,5.74 -4.23,3.89 -10.17,5.3 -15.69,3.72 l -38.93,-11.14 c -8.16,-2.34 -13.21,-10.51 -11.65,-18.85 l 32.3,-172.58 7.43,-49.75 -9.54,-44.47 c -14.32,-60.17 -39.39,-117.26 -73.99,-168.53 l -20.81,-29.18 c -11.27,-14.26 -24.039,-27.27 -38.078,-38.82 -0.855,20.99 -4.523,41.76 -10.902,61.77 -11.11,37.89 -28.407,73.68 -51.192,105.93 -0.804,19.61 -2.336,39.18 -4.597,58.67 -4.934,79.43 -22.004,157.64 -50.618,231.91 -3.144,8.16 -12.128,12.44 -20.445,9.74 l -41.402,-13.46 c -8.434,-2.74 -13.18,-11.67 -10.731,-20.2 14.828,-51.61 27.344,-103.85 37.508,-156.57 8.871,-47.48 14.203,-95.55 15.953,-143.82 0.696,-19.52 -1.504,-39.04 -6.527,-57.93 -24.375,-68.95 -60.219,-133.29 -106.02,-190.3 -13.457,56.49 -48.273,112.26 -88.25,152 -6.976,139.62 -17.023,279.07 -30.136,418.25 -0.852,9.05 -8.871,15.69 -17.918,14.85 l -43.95,-4.11 c -9.054,-0.85 -15.707,-8.88 -14.855,-17.93 13.457,-142.82 23.66,-285.93 30.602,-429.21 -0.258,-29.22 -6.059,-58.13 -17.102,-85.19 -29.973,-58.51 -70.719,-110.84 -120.098,-154.24 3.328,23.01 4.411,46.28 3.223,69.5 -1.773,49.52 -10.895,98.51 -27.066,145.36 21.035,199.07 30.836,399.16 29.363,599.33 -0.07,9.08 -7.481,16.39 -16.559,16.34 l -44.14,-0.27 c -9.102,-0.06 -16.426,-7.48 -16.36,-16.58 1.473,-199.84 -8.457,-399.59 -29.742,-598.3 -7.75,-46.45 -27.406,-90.11 -57.051,-126.71 -36.265,-41.63 -79.961,-76.14 -128.851,-101.79 l -70.9534,-35.39 c 34.4724,236.06 57.4184,473.65 68.7504,711.94 l 22.718,357.85 c 10.852,178.29 51.969,353.43 121.598,517.92 83.609,178.01 194.094,342.11 327.578,486.54 23.035,25.14 41.387,44.46 66.86,67.16 21.308,18.78 43.835,36.14 67.433,51.94 54.332,35.43 114.75,60.49 178.195,73.94 39.86,7.96 80.522,11.18 121.142,9.6 38.56,-1.65 72.68,-6.91 110.32,-15.26 106.34,-23.2 203.89,-76.19 281.25,-152.75 1.86,-1.84 12.91,-8.17 15.68,-8.97 194.45,-56.73 397.02,-80.5 599.32,-70.33 l 0.13,0.01 c 119.95,7.03 237.66,35.57 347.51,84.24 56.61,25.21 111.85,59.27 160.55,97.5 44.69,34.95 85.62,74.46 122.13,117.88 36.91,43.43 65.76,93.1 85.18,146.68 11.44,31.46 17.05,64.75 16.54,98.22 -0.49,30.34 -6.47,60.33 -17.65,88.54 -19.89,55.72 -50.49,107 -90.07,150.97 38.67,62.32 31.8,142.64 -16.89,197.49 -15.86,18.55 -33.27,35.73 -52.04,51.33 -15.03,13.61 -30.61,26.61 -46.68,38.95 -27.61,22.67 -57.21,42.8 -88.44,60.15 58.26,114.11 142.76,212.76 246.56,287.85 108.06,66.71 232.2,102.83 359.17,104.53 58.93,0.79 117.66,-6.94 174.37,-22.95 50.82,-14.42 99.19,-36.37 143.5,-65.13 98.75,-68.09 183.58,-154.43 249.93,-254.36 147.85,-229.46 271.05,-473.9 367.54,-729.25 18.65,-56.85 41.32,-112.3 67.84,-165.93 18.48,-37.02 44.55,-73.3 72.52,-103.68 25.72,-28.12 54.52,-53.27 85.86,-74.96 37.99,-26.9 79.16,-49.02 122.56,-65.87 39.22,-15.61 80.23,-26.25 122.1,-31.67 219.66,-27.48 442.67,-6.89 653.59,60.32 2.42,0.77 12.88,7.33 14.85,9.31 61.96,62.42 138.21,108.79 222.14,135.09 l 0.72,0.24 c 76.85,26.83 158.54,36.94 239.61,29.66 66.34,-7.15 130.68,-27.01 189.51,-58.5 65.13,-36.5 123.24,-84.31 171.62,-141.17 l 0.5,-0.57 c 110.1,-121.24 205.72,-254.88 284.91,-398.22 65.5,-125.92 111.73,-260.95 137.15,-400.59 l 0.02,-0.08 c 13.96,-74.51 24.22,-149.67 30.75,-225.19 7.04,-83.7 12.19,-167.56 15.46,-251.49 10.82,-267.42 35.15,-534.12 72.89,-799.08 l -71.16,35.49 c -44.62,23.76 -85.1,54.57 -119.91,91.23 -34.69,38.52 -57.62,86.16 -66.1,137.31 -21.29,198.71 -31.22,398.47 -29.74,598.31 0.07,9.1 -7.26,16.52 -16.36,16.58 l -44.14,0.27 c -9.08,0.05 -16.49,-7.26 -16.56,-16.34 -1.47,-200.18 8.33,-400.29 29.37,-599.38 -23.03,-66.97 -34.02,-146.26 -23.99,-214.56 -43.1,37.59 -80.03,81.72 -109.44,130.76 -17.66,33.48 -27.12,70.67 -27.61,108.51 6.94,143.25 17.14,286.33 30.59,429.11 0.86,9.06 -5.8,17.09 -14.86,17.94 l -43.94,4.11 c -9.05,0.84 -17.07,-5.8 -17.92,-14.85 -13.12,-139.19 -23.16,-278.66 -30.14,-418.3 -41.31,-41.11 -75.02,-95.76 -88.28,-151.63 -40.87,50.71 -74.31,107 -99.31,167.14 -11.5,31.45 -15.52,65.15 -11.75,98.42 0.15,3.15 0.22,6.3 0.23,9.45 2.93,42.77 8.57,85.31 16.9,127.37 9.86,49.1 21.5,97.82 34.9,146.07 2.36,8.49 -2.39,17.33 -10.77,20.06 l -41.68,13.54 c -8.62,2.8 -17.87,-1.88 -20.72,-10.48 -31.11,-94.03 -49.76,-191.73 -55.48,-290.61 -29.2,-47.66 -56.17,-110.3 -60.45,-166.23 -45.21,37.23 -78.06,86.27 -101.64,139.57 l -0.27,0.62 c -23.34,49.83 -36.41,103.83 -38.44,158.81 l 36.83,203.64 c 1.5,8.32 -3.54,16.43 -11.67,18.75 l -41.89,12 c -8.78,2.52 -17.94,-2.6 -20.38,-11.41 -9.22,-33.12 -16.59,-66.73 -22.11,-100.66 -5.14,-30.83 -9.94,-61.72 -14.4,-92.66 -1.72,-1.93 -3.24,-4.03 -4.53,-6.27 -16.33,-27.78 -29.48,-57.31 -39.19,-88.03 -7.36,-22.07 -12.13,-44.91 -14.22,-68.07 -50.29,27.39 -97,60.88 -139.08,99.73 -26.48,24.46 -48.66,53.2 -65.61,85.01 -9.27,17.35 -15.9,35.99 -19.64,55.29 -3.24,17.93 -4.52,36.15 -3.83,54.35 v 0.59 c 16.25,60.24 39.16,118.49 68.29,173.67 4.28,8.12 1.09,18.18 -7.09,22.35 l -39.38,20.04 c -8.05,4.09 -17.89,0.93 -22.06,-7.08 -19.95,-38.35 -37.33,-77.99 -52.01,-118.65 -10.37,-28.29 -18.55,-57.34 -24.46,-86.89 -24.72,-91.13 -42.65,-183.96 -53.64,-277.74 -6.04,-50.62 -9.65,-101.51 -10.79,-152.48 -1.79,-55.57 1.65,-111.18 10.25,-166.11 -23.18,-28.81 -38.2,-63.32 -43.47,-99.92 -3.42,-22.25 -5.34,-44.7 -5.73,-67.2 -0.43,-17.27 -0.45,-34.55 -0.09,-51.82 -58.21,-56.1 -110.06,-118.46 -154.59,-185.95 -19.78,-30.03 -36.35,-62.07 -49.43,-95.59 -12.82,-30.4 -19.74,-62.96 -20.41,-95.95 -30.16,-14.35 -54.25,-38.94 -67.96,-69.39 -17.48,-38.38 -25.45,-80.41 -23.26,-122.51 l -3.07,-96.09 c -1.81,-30.66 -8.78,-60.8 -20.62,-89.14 -6.89,-15.22 -16.57,-29.01 -28.54,-40.67 -14.98,-14.63 -30.97,-28.19 -47.85,-40.58 -13.38,-8.09 -27.24,-15.35 -41.5,-21.75 l -38.09,-17.45 c -10.2,-4.67 -12.84,-17.98 -5.18,-26.19 22.98,-24.63 44.09,-50.94 63.16,-78.72 16.93,-24.95 31.9,-51.18 44.79,-78.43 1.32,-3.79 2.78,-7.53 4.36,-11.22 14.78,-31.33 28.15,-63.3 40.09,-95.82 z m -231.78,2616.63 6.74,109.26 -107.44,-6.7 -6.74,-109.26 z m -165.81,146 -27.78,79.67 -633.06,265.27 -76.41,-36.38 27.77,-79.68 633.07,-265.26 z m -808.39,320.64 -72.3,80.5 -72.29,-80.5 72.29,-80.53 z m 1011.12,-2290.82 79.98,29.5 265.92,629.57 -36.46,76.21 -79.94,-27.74 -265.86,-631.56 z m 321.61,806.18 82.49,72.21 -82.49,72.22 -80.8,-72.22 z m -14.21,219.87 36.39,76.06 -259.6,633.8 -79.9,29.46 -36.38,-76.05 259.6,-633.81 z m -2338.75,907.13 -107.44,6.7 6.73,-109.05 107.44,-5.03 z m 1087.06,-2442.24 76.5,-36.42 635.16,258.94 27.74,79.6 -76.49,36.42 -635.16,-258.95 z m 798.26,343.41 109.38,-6.71 -6.72,107.12 -107.69,6.72 z m -1085.36,2442.35 -76.25,36.31 -635.31,-259.02 -29.5,-79.63 76.25,-36.31 635.31,259.02 z m -1267.6,-1315.36 -80.8,-72.22 80.8,-72.2 82.48,72.2 z m 323.32,806.1 -79.75,-29.41 -265.97,-629.73 34.6,-75.96 79.7,27.65 265.93,631.7 z m 201.1,-1970.09 29.49,-79.6 633.21,-265.34 76.18,36.27 -29.53,79.73 -631.14,265.35 z m 810.04,-320.64 70.5,-80.37 72.16,80.37 -72.16,80.38 z m -1320.22,1264.68 -34.54,-75.83 257.54,-633.96 79.87,-29.45 36.39,76.06 -259.6,633.81 z m 344.09,-798.05 -6.74,-109.27 109.59,6.73 6.74,109.26 z m 438.07,3703.62 c 0,0 143.05,216.39 526.33,32.32 0,0 48.58,-32.32 -5.4,-28.1 0,0 -163.3,42.15 -187.59,44.96 0,0 -51.28,-22.48 -1.35,-43.56 0,0 58.03,-14.05 71.53,-43.56 0,0 -85.02,-171.42 -236.17,-141.91 0,0 -147.1,22.48 -53.98,178.44 0,0 18.89,37.94 -27,12.65 0,0 -44.53,-33.72 -68.82,-32.32 0,0 -22.94,-8.43 -17.55,21.08"
       style="fill:#ae8f5f;fill-opacity:1;fill-rule:evenodd;stroke:none"
       transform="matrix(0.13333333,0,0,-0.13333333,0,1152.3867)" />
    <path
       id="path5"
       d="m 2341.93,4919.59 h 1908.15 c 96.92,164.49 152.53,356.24 152.53,560.98 0,611.16 -495.45,1106.6 -1106.61,1106.6 -611.16,0 -1106.6,-495.44 -1106.6,-1106.6 0,-204.74 55.6,-396.49 152.53,-560.98"
       style="fill:#ff0000;fill-opacity:1;fill-rule:evenodd;stroke:none"
       transform="matrix(0.13333333,0,0,-0.13333333,0,1152.3867)" />
    <path
       id="path6"
       d="m 4436.76,5446.41 c 0,630.02 -510.73,1140.76 -1140.76,1140.76 -630.02,0 -1140.76,-510.74 -1140.76,-1140.76 0,-630.02 510.74,-1140.76 1140.76,-1140.76 630.03,0 1140.76,510.74 1140.76,1140.76 z m -56.69,0 c 0,598.7 -485.36,1084.07 -1084.07,1084.07 -598.7,0 -1084.07,-485.37 -1084.07,-1084.07 0,-598.71 485.37,-1084.07 1084.07,-1084.07 598.71,0 1084.07,485.36 1084.07,1084.07"
       style="fill:#000000;fill-opacity:1;fill-rule:evenodd;stroke:none"
       transform="matrix(0.13333333,0,0,-0.13333333,0,1152.3867)" />
    <path
       id="path7"
       d="m 4188.5,5213.59 43.66,72.48 c 0,0 44.86,4.06 41.39,-26.85 l -45.1,-72.66 c 0,0 -41.74,-17.38 -39.95,27.03"
       style="fill:#000000;fill-opacity:1;fill-rule:evenodd;stroke:none"
       transform="matrix(0.13333333,0,0,-0.13333333,0,1152.3867)" />
    <path
       id="path8"
       d="m 3586.28,5126.92 26.59,20.1 c 0,0 22.78,-29.03 83.55,-26.79 60.77,2.23 341.82,17.86 383.6,11.16 41.77,-6.7 13.29,-49.12 -1.9,-44.65 l -488.04,-8.93 -3.8,49.11"
       style="fill:#000000;fill-opacity:1;fill-rule:evenodd;stroke:none"
       transform="matrix(0.13333333,0,0,-0.13333333,0,1152.3867)" />
    <path
       id="path9"
       d="m 3159.01,5048.59 841.25,2.47 c 0,0 55.07,-27.15 1.9,-41.95 l -841.25,-2.47 c 0,0 -39.88,41.95 -1.9,41.95"
       style="fill:#000000;fill-opacity:1;fill-rule:evenodd;stroke:none"
       transform="matrix(0.13333333,0,0,-0.13333333,0,1152.3867)" />
    <path
       id="path10"
       d="m 3204.59,5090.37 c 0,0 146.21,212.88 334.21,88.17 l -1.89,-96.77 -332.32,8.6"
       style="fill:#000000;fill-opacity:1;fill-rule:evenodd;stroke:none"
       transform="matrix(0.13333333,0,0,-0.13333333,0,1152.3867)" />
    <path
       id="path11"
       d="m 4022.81,4907.45 137.17,232.26 c 2.19,7.35 7.15,13.46 13.75,16.92 6.6,3.46 14.27,3.98 21.25,1.43 6.97,-2.55 12.64,-7.95 15.72,-14.95 3.07,-7 3.26,-15 0.55,-22.15 l -126.09,-222.17 c -5.03,-14.97 -19.46,-24.2 -34.56,-22.1 -15.09,2.1 -26.7,14.94 -27.79,30.76"
       style="fill:#000000;fill-opacity:1;fill-rule:evenodd;stroke:none"
       transform="matrix(0.13333333,0,0,-0.13333333,0,1152.3867)" />
    <path
       id="path12"
       d="m 2648.5,4947.2 444.21,17.13 -132.13,132.73 -432.89,-12.84 -8.81,-24.27 129.62,-112.75"
       style="fill:#000000;fill-opacity:1;fill-rule:evenodd;stroke:none"
       transform="matrix(0.13333333,0,0,-0.13333333,0,1152.3867)" />
    <path
       id="path13"
       d="m 2796.36,5820.76 -17.57,434.28 -61.47,-383.99 z"
       style="fill:#000000;fill-opacity:1;fill-rule:evenodd;stroke:none"
       transform="matrix(0.13333333,0,0,-0.13333333,0,1152.3867)" />
    <path
       id="path14"
       d="m 3707.35,5824.27 c 13.17,406.85 -43.91,457.14 -43.91,457.14 4.39,-146.29 -61.47,-361.14 -61.47,-361.14 l 105.38,-96"
       style="fill:#000000;fill-opacity:1;fill-rule:evenodd;stroke:none"
       transform="matrix(0.13333333,0,0,-0.13333333,0,1152.3867)" />
    <path
       id="path15"
       d="m 4130.25,5128.54 c -0.93,-24.09 -6.21,-4.4 -6.21,-4.4 -13.17,45.72 -118.55,32 -118.55,32 15.89,78.25 18.61,250.15 3.62,255.07 -15,4.93 77.7,6.04 80.97,-17.76 l -6.54,-224.4 c 0,0 47.64,-16.42 46.71,-40.51"
       style="fill:#000000;fill-opacity:1;fill-rule:evenodd;stroke:none"
       transform="matrix(0.13333333,0,0,-0.13333333,0,1152.3867)" />
    <path
       id="path16"
       d="m 3807.91,5421.29 c -26.04,-4.06 -71.89,-14.05 -92.2,-18.29 0,0 21.95,-214.86 0,-228.57 0,0 -35.13,-36.57 -52.69,22.86 l 15.43,199.96 c -26.75,-4.96 -78.58,-26.52 -78.58,-26.52 0,0 -25.26,-113.08 -7.7,-181.66 l -25.74,-5.5 v -22.86 l 52.68,18.29 c 0,0 26.35,-54.86 201.98,-18.29 0,0 26.34,214.86 -13.18,260.58"
       style="fill:#000000;fill-opacity:1;fill-rule:evenodd;stroke:none"
       transform="matrix(0.13333333,0,0,-0.13333333,0,1152.3867)" />
    <path
       id="path17"
       d="m 2717.71,4764.44 c 19.49,-4.33 37.79,-13.2 53.54,-25.94 1.8,-1.46 3.95,-2.39 6.21,-2.69 20.29,-2.7 40.91,-0.16 60.03,7.4 8.39,3.42 16.7,9.65 22.92,16.56 39.21,27.62 81.54,15.16 118.3,-7.16 32.5,-19.72 73.88,-19.31 97.54,13.58 19.88,15.56 45.91,19.84 69.46,11.34 14.95,-5.82 28.55,-14.88 39.88,-26.58 35.98,-37.54 84.67,-33.94 117.89,3.41 22.89,18.23 51.15,27.67 79.97,26.69 16.05,-1.38 26.21,-5.73 40.43,-13.54 42.6,-23.44 94.28,-18.62 126.31,20.21 15.93,17.29 39.52,24.41 61.86,18.65 22.52,-6.49 43.25,-18.45 60.47,-34.91 4.35,-4.16 20.26,-9.35 26.64,-10.89 9.65,-2.34 21.2,-1.76 30.6,1.54 l 0.64,0.23 c 18.71,7.44 36.14,17.99 51.6,31.25 23.99,18.84 54.63,26 84.05,19.61 17.28,-3.91 33.75,-11.4 48.36,-21.99 1.18,-0.85 2.49,-1.49 3.88,-1.89 18.63,-5.39 38.43,-4.34 56.44,2.99 18.04,6.7 37.32,18.58 50.87,32.78 11.6,12.16 29.1,9.12 42.29,2.11 12.84,-6.99 24.62,-16.15 34.8,-27.06 11.86,-12.71 30.18,5.8 18.32,18.52 -17.56,18.84 -42.19,37.41 -68.46,40.84 -16.55,2.58 -33.3,-3.24 -45.05,-15.65 -20.02,-19.87 -51.84,-36.56 -80.43,-29.44 -49.18,34.55 -113.51,38.27 -160.69,0.2 -15.28,-12.32 -26.73,-20.09 -44.75,-27.3 -5.41,-1.76 -11.16,-2.05 -16.7,-0.85 -5.72,1.43 -11.28,3.43 -16.62,5.98 -19.95,18.63 -43.78,32.19 -69.64,39.6 -30.64,8.59 -65.66,-1.99 -87.2,-26.24 -8.81,-9.92 -16.21,-16.27 -28.38,-21.19 -6.95,-2.7 -14.27,-4.2 -21.68,-4.45 -15.83,-0.28 -31.49,3.45 -45.63,10.87 -14.74,8.95 -34.06,15.75 -51.15,16.57 -35.26,1.29 -69.83,-10.37 -97.67,-32.94 -0.58,-0.46 -1.12,-0.99 -1.61,-1.56 -7.87,-9.04 -17.81,-15.87 -28.89,-19.86 -5.82,-1.89 -11.96,-2.51 -18.03,-1.81 -13.31,2.1 -25.32,8.52 -34.86,18.39 -13.94,14.4 -30.68,25.54 -49.08,32.67 l -0.25,0.1 c -32.35,11.73 -68.22,5.48 -95.13,-16.59 -0.96,-0.79 -1.81,-1.72 -2.52,-2.77 -4.38,-6.46 -10.43,-11.48 -17.45,-14.48 -4.52,-1.81 -9.32,-2.74 -14.16,-2.75 -11.73,0.32 -23.2,3.61 -33.43,9.59 -16.37,10.75 -34.38,18.53 -53.25,23.02 -32.21,8.44 -66.36,1.94 -93.62,-17.83 -0.83,-0.6 -1.58,-1.3 -2.25,-2.08 -3.94,-4.62 -8.8,-8.29 -14.25,-10.74 -14.1,-5.52 -29.21,-7.62 -44.18,-6.16 -55.88,43.2 -126.98,41.27 -184.14,0.32 l -40,-1.74 c -17,-0.74 -15.94,-27.3 1.07,-26.56 l 47.55,2.06 c 22.31,16.71 44.77,26.88 72.09,30.26 12.33,1.44 24.89,0.87 37.14,-1.7"
       style="fill:#000000;fill-opacity:1;fill-rule:evenodd;stroke:none"
       transform="matrix(0.13333333,0,0,-0.13333333,0,1152.3867)" />
    <path
       id="path18"
       d="m 3090.99,4436.35 c 6.56,3.02 12.94,6.48 19.07,10.36 l 14.15,8.47 c 9.58,5.86 19.73,9 30.84,9.1 22.18,-1.46 46.74,-18.5 64.08,-34.72 0.7,-0.66 1.47,-1.23 2.29,-1.71 15.55,-9.07 34.15,-10.53 50.83,-3.99 l 0.61,0.26 c 15.44,6.78 30.81,21.9 42.08,34.54 13.8,15.47 29.16,20.78 48.95,14.93 13.65,-3.86 26.49,-10.29 37.91,-18.97 23.44,-18.76 53.77,-25.48 82.52,-18.28 15.55,3.71 34.31,11.61 47.26,21.41 8.1,6.3 17.21,11.03 26.9,13.97 16.35,4.96 9.2,30.48 -7.14,25.52 -12.52,-3.8 -24.29,-9.88 -34.76,-17.97 -33.14,-23.03 -68.9,-26.99 -99.58,-3.29 -13.89,10.59 -29.53,18.45 -46.13,23.18 -26.95,8.89 -56.37,0.06 -74.64,-22.36 l -17.55,-17.6 c -4.68,-4.36 -9.99,-7.93 -15.73,-10.57 -9.15,-3.5 -19.27,-2.84 -27.92,1.78 -10.86,10.02 -22.66,18.88 -35.23,26.43 -28.38,17.79 -59.8,19.18 -88.51,1.27 l -14.23,-8.52 c -6.22,-3.83 -10.68,-6.36 -17.31,-9.34 -0.75,-0.34 -1.48,-0.76 -2.16,-1.25 -14.49,-10.36 -33.62,-10.36 -48.11,0 -14.03,10.04 -28.49,-11.87 -14.46,-21.91 22.85,-16.34 52.9,-16.59 75.97,-0.74"
       style="fill:#000000;fill-opacity:1;fill-rule:evenodd;stroke:none"
       transform="matrix(0.13333333,0,0,-0.13333333,0,1152.3867)" />
    <path
       id="path19"
       d="m 2851.59,4564.46 c 18.2,2.33 36.39,-4.5 48.97,-18.4 13.79,-17.08 32.58,-28.97 53.49,-33.84 28.61,-6.45 60.39,6.22 82.67,25.7 35.03,20.79 78.91,16.26 109.35,-11.39 8.19,-6.93 22.04,-11.35 32.51,-12.32 31.22,-3.74 69.68,12.09 96.2,32.78 l 0.45,0.37 c 23.92,19.56 53.95,9.96 75.56,-7.29 0.83,-0.66 1.73,-1.21 2.69,-1.64 57.42,-25.97 123.86,-17.15 173.19,22.93 7.28,4.92 15.05,9.01 23.17,12.2 8.06,2.88 16.65,3.74 25.09,2.5 24.59,-4.77 48.96,-10.74 73.02,-17.88 l 1.7,-0.51 31.39,-0.08 c 10.82,0.24 26.65,3.75 36.45,8.52 22.6,11.44 44.14,25 64.37,40.51 10.89,8.86 21.41,13.25 35.04,7.65 8.44,-3.53 16.15,-8.9 22.57,-15.73 11.9,-12.67 30.16,5.91 18.26,18.58 -25.57,27.22 -64.05,36.51 -91.56,10.48 -18.71,-14.3 -38.62,-26.81 -59.48,-37.4 -8.35,-3.53 -17.22,-5.57 -26.22,-6.03 l -27.22,0.08 c -24.36,7.17 -49.03,13.18 -73.92,18 -22.74,4.16 -49.69,-5.3 -67.98,-19.61 -41.6,-34.05 -97.66,-41.84 -146.34,-20.44 -11.12,8.63 -23.63,15.15 -36.93,19.26 -23.55,7.79 -49.28,2.85 -68.6,-13.18 -12.43,-9.44 -26.07,-17.02 -40.53,-22.51 -7.59,-2.83 -15.59,-4.64 -23.71,-5.38 -11.85,-1.03 -23.17,0.35 -33.11,6.83 -38.95,34.82 -94.87,40.11 -139.24,13.08 -0.66,-0.4 -1.29,-0.86 -1.87,-1.38 -11.12,-9.94 -24.35,-16.96 -38.6,-20.5 -7.57,-1.66 -15.38,-1.74 -22.97,-0.21 -16.99,3.99 -28.43,12.45 -39.99,25.73 -17.2,19.75 -47.08,31.72 -72.64,26.65 -22.09,-4.84 -42.24,-16.59 -57.75,-33.68 -11.69,-12.88 6.87,-31.14 18.56,-18.26 11.82,13.03 27.15,22.03 43.96,25.81"
       style="fill:#000000;fill-opacity:1;fill-rule:evenodd;stroke:none"
       transform="matrix(0.13333333,0,0,-0.13333333,0,1152.3867)" />
    <path
       id="path20"
       d="m 2734.04,4667.36 9.12,-1.93 c 1.6,-0.49 3.09,-1.33 4.36,-2.47 28.84,-31.54 72.91,-24.69 98.02,4.44 7.48,8.1 19.55,19.95 31.64,19.13 13.34,-2.78 29.65,-17.6 40.15,-28.82 7.17,-7.72 15.37,-14.41 24.33,-19.83 23.88,-14.61 50.34,-10.74 73.64,2.94 16.63,9.76 32.85,20.24 48.64,31.42 l 7.1,4.29 c 2.6,-1.62 4.46,-3.24 6.85,-5.57 10.61,-10.17 21.44,-20.07 32.5,-29.7 7.45,-6.73 15.82,-12.24 24.85,-16.37 25.01,-11.98 46.95,2.78 62.92,21.65 8.38,10 18.66,18.06 30.19,23.69 4.1,1.37 8.48,1.62 12.7,0.73 5.97,-1.72 11.61,-4.51 16.65,-8.24 30.3,-23.54 61.23,-35.61 97.12,-31.11 14.07,1.56 27.89,4.9 41.18,9.96 9.67,3.93 34.98,20.75 40.29,29.91 6.16,10.65 17.56,16.46 29.4,15.19 14.76,-1.57 28.35,-9.1 37.84,-20.97 13.84,-17.52 36.93,-29.47 59.13,-27.98 24.34,2.04 47.22,12.89 64.67,30.67 l 20.56,20.9 c 7.06,7.67 12.46,12.59 21.44,17.46 13.04,5.57 29.68,-4.66 40.31,-13.48 7.85,-6.46 16.32,-12.04 25.29,-16.66 24.43,-13.11 48.96,-8.95 72.06,4.75 l 30.95,16.68 c 11.94,6.29 23.96,14.36 34.39,23.28 7.06,6.07 14.62,11.47 22.58,16.15 5.75,3.39 12.43,4.4 18.85,2.8 8.45,-2.82 16.17,-7.63 22.55,-14.06 12.24,-12.32 29.99,6.79 17.76,19.11 -19.44,19.58 -46.35,30.3 -71.74,15.29 -9.24,-5.44 -18.03,-11.72 -26.24,-18.77 -19.67,-16.68 -39.16,-24.56 -61.31,-37.13 -8.52,-4.83 -15.94,-7.79 -25.51,-9.29 -14.96,-1.08 -31.59,8.68 -43.73,18.66 -9.03,7.65 -19.22,13.71 -30.14,17.91 -26.21,10.19 -48.9,-4.61 -65.95,-24.29 l -19.97,-20.31 c -13.1,-13.33 -30.21,-21.51 -48.46,-23.14 -14.74,-0.13 -28.46,6.65 -37.87,18.45 -13.76,17.22 -33.46,28.14 -54.86,30.42 -21.01,2.32 -41.47,-7.9 -52.92,-26.32 -8.47,-8.34 -18.15,-15.25 -28.67,-20.47 -25.35,-9.54 -51.38,-12.67 -76.64,-3.99 -14.24,5.96 -24.96,12.56 -37.42,21.94 -14.28,10.74 -36.5,18.41 -54.36,10.4 -15.01,-7.2 -28.39,-17.61 -39.27,-30.55 -5.06,-5.8 -10.9,-10.79 -17.35,-14.82 -11.24,-5.8 -25.77,4.32 -34.8,12.26 -10.73,9.35 -21.25,18.96 -31.54,28.82 -16.48,16.7 -27.86,16.52 -45.37,4.1 -15.31,-10.86 -31.06,-21.04 -47.19,-30.51 -8.05,-4.72 -16.92,-7.69 -26.11,-8.73 -15.49,-0.88 -30.35,9.58 -41.03,21.02 -7.35,7.85 -15.24,15.12 -23.6,21.77 -19.25,16.39 -43.95,21.57 -65.11,5.34 -6.61,-4.79 -14.88,-11.92 -20.26,-18.09 -8.15,-9.53 -19.45,-15.52 -31.63,-16.79 -12.5,-0.12 -21.07,4.97 -29.97,13.79 -19.89,19.74 -78.51,10.72 -110.22,3.17 -16.59,-3.96 -10.9,-29.87 5.69,-25.92 17.73,4.22 35.74,6.98 53.88,8.24 6.5,0.42 13.09,0.27 19.64,-0.42"
       style="fill:#000000;fill-opacity:1;fill-rule:evenodd;stroke:none"
       transform="matrix(0.13333333,0,0,-0.13333333,0,1152.3867)" />
    <path
       id="path21"
       d="m 3998.88,4906.3 -843.04,10.65 8.19,-27.69 -515.64,-12.79 2.04,-68.17 -135.05,-8.52 6.14,42.61 85.94,10.65 -53.2,151.26 -147.33,31.95 -120.9,208.6 c 46.08,18.06 93.95,30.69 142.73,37.68 l 106.54,-154.89 c 148.82,0.52 297.61,4.01 446.29,10.47 48.09,-39.69 111.7,-110.86 157.4,-153.48 l 896.83,12.33 -36.94,-90.66"
       style="fill:#000000;fill-opacity:1;fill-rule:evenodd;stroke:none"
       transform="matrix(0.13333333,0,0,-0.13333333,0,1152.3867)" />
    <path
       id="path22"
       d="m 3951.41,5423.89 c 4.39,-18.28 6.54,-208.68 1.39,-267.75 h -83.42 c 0,0 30.86,225.07 4.52,275.36 0,0 57.87,0.98 77.51,-7.61"
       style="fill:#000000;fill-opacity:1;fill-rule:evenodd;stroke:none"
       transform="matrix(0.13333333,0,0,-0.13333333,0,1152.3867)" />
    <path
       id="path23"
       d="m 2321.06,5224.35 56.47,2.19 70.59,-109.29 -32.94,-30.61 -94.12,137.71"
       style="fill:#000000;fill-opacity:1;fill-rule:evenodd;stroke:none"
       transform="matrix(0.13333333,0,0,-0.13333333,0,1152.3867)" />
    <path
       id="path24"
       d="m 2399.2,5231.59 15.26,31.79 76.32,-113.51 -41.43,-4.54 -50.15,86.26"
       style="fill:#000000;fill-opacity:1;fill-rule:evenodd;stroke:none"
       transform="matrix(0.13333333,0,0,-0.13333333,0,1152.3867)" />
    <path
       id="path25"
       d="m 2944.64,5074.59 19.49,-28.41 -366.65,-28.41 -29.24,45.77 376.4,11.05"
       style="fill:#000000;fill-opacity:1;fill-rule:evenodd;stroke:none"
       transform="matrix(0.13333333,0,0,-0.13333333,0,1152.3867)" />
    <path
       id="path26"
       d="m 2643.77,5003.71 362.99,18.94 20.71,-34.72 -358.13,-20.51 -25.57,36.29"
       style="fill:#000000;fill-opacity:1;fill-rule:evenodd;stroke:none"
       transform="matrix(0.13333333,0,0,-0.13333333,0,1152.3867)" />
    <path
       id="path27"
       d="m 2908.43,6457.99 c 0,0 689.34,-429.37 1189.88,-1047.67 0,0 -544.45,206.1 -1040.59,-317.73 70.25,94.46 294.17,463.72 -149.29,1365.4 z m 254.66,-910.27 -614.69,437.96 c 0,0 100.98,-459.43 -17.56,-772.87 0,0 242.02,120.42 600.8,67.25"
       style="fill:#ffffff;fill-opacity:1;fill-rule:evenodd;stroke:none"
       transform="matrix(0.13333333,0,0,-0.13333333,0,1152.3867)" />
  </g>
</svg>
