<?xml version="1.0" standalone="no"?>
<!DOCTYPE svg PUBLIC "-//W3C//DTD SVG 20010904//EN"
 "http://www.w3.org/TR/2001/REC-SVG-20010904/DTD/svg10.dtd">
<svg version="1.0" xmlns="http://www.w3.org/2000/svg"
 width="460.000000pt" height="454.000000pt" viewBox="0 0 460.000000 454.000000"
 preserveAspectRatio="xMidYMid meet">

<g transform="translate(0.000000,454.000000) scale(0.100000,-0.100000)"
fill="#000000" stroke="none">
<path d="M2075 4534 c-917 -98 -1681 -706 -1965 -1566 -147 -445 -147 -951 0
-1396 240 -727 824 -1281 1573 -1491 218 -61 335 -76 617 -76 222 0 272 3 383
23 777 140 1409 627 1727 1333 221 492 251 1090 80 1607 -241 729 -828 1284
-1577 1492 -201 56 -325 72 -573 75 -124 2 -243 1 -265 -1z m125 -168 c13 -23
13 -28 1 -35 -12 -8 -10 -20 13 -71 48 -106 26 -162 -80 -204 -37 -15 -98 -47
-134 -71 -101 -65 -107 -67 -130 -55 -21 11 -27 51 -13 87 6 15 8 13 13 -12 8
-48 39 -44 143 18 51 31 115 66 142 79 49 23 50 24 50 68 -1 25 -13 76 -29
114 -17 44 -25 78 -21 93 7 30 25 25 45 -11z m102 -124 c-9 -71 -9 -73 -11
-27 -2 28 -8 70 -15 95 -10 38 -9 48 4 67 15 21 15 20 23 -18 5 -22 4 -75 -1
-117z m-227 68 c-3 -5 -10 -10 -16 -10 -5 0 -9 5 -9 10 0 6 7 10 16 10 8 0 12
-4 9 -10z m-45 -14 c0 -3 -4 -8 -10 -11 -5 -3 -10 -1 -10 4 0 6 5 11 10 11 6
0 10 -2 10 -4z m599 -101 c-2 -121 87 -179 271 -180 54 0 104 5 115 12 12 6
41 54 65 107 33 69 50 95 64 96 11 0 16 -5 13 -12 -3 -7 -22 -50 -42 -95 -43
-97 -46 -166 -9 -171 33 -5 88 67 110 143 13 46 25 67 41 74 21 10 23 8 23
-19 0 -16 -9 -37 -19 -47 -11 -10 -28 -41 -39 -70 -56 -148 -172 -192 -197
-75 l-7 33 -71 -8 c-40 -4 -106 -8 -148 -7 -127 1 -193 54 -208 167 l-7 52
-39 -40 c-22 -22 -54 -57 -72 -78 -75 -88 -140 -9 -84 101 28 55 33 53 12 -3
-17 -49 -10 -77 23 -83 23 -5 41 11 83 75 19 29 36 53 36 53 1 0 20 7 42 15
22 8 41 14 42 15 1 0 2 -25 2 -55z m-586 23 c62 -8 97 -16 97 -24 0 -15 -117
-71 -190 -90 -32 -9 -71 -12 -93 -8 -37 6 -38 5 -28 -14 9 -17 8 -22 -10 -27
-11 -4 -35 -4 -53 -1 -25 5 -37 2 -51 -14 -10 -11 -28 -20 -41 -20 -15 0 -31
-14 -53 -47 -44 -68 -63 -89 -102 -112 -86 -53 -201 1 -198 92 l0 22 9 -21
c14 -36 59 -64 102 -64 55 0 100 22 147 70 43 45 48 63 29 105 -15 33 -5 41
24 21 43 -30 108 -18 108 21 0 33 17 63 36 63 8 0 32 -9 54 -20 50 -26 86 -25
130 1 32 20 33 23 15 30 -11 4 -39 8 -62 8 -44 1 -52 8 -31 29 15 15 39 15
161 0z m807 -4 c0 -2 -7 -4 -15 -4 -8 0 -15 4 -15 10 0 5 7 7 15 4 8 -4 15 -8
15 -10z m-45 -14 c-3 -5 -10 -10 -16 -10 -5 0 -9 5 -9 10 0 6 7 10 16 10 8 0
12 -4 9 -10z m-1412 -117 c5 -7 6 -13 4 -13 -7 0 -77 99 -84 118 -5 14 56 -66
80 -105z m127 67 c0 -13 -7 -20 -20 -20 -13 0 -20 7 -20 20 0 13 7 20 20 20
13 0 20 -7 20 -20z m1846 -149 c-71 -125 -87 -139 -28 -23 55 108 72 135 79
128 3 -3 -20 -50 -51 -105z m-2196 84 c33 -17 39 -35 13 -35 -12 0 2 -18 40
-53 51 -45 60 -59 68 -101 8 -47 7 -50 -24 -85 -32 -36 -69 -93 -121 -183 -29
-51 -49 -60 -66 -29 -14 26 -13 38 2 23 22 -22 36 -13 66 42 17 29 53 88 81
131 28 43 51 89 51 103 0 24 -32 60 -123 140 -57 50 -49 79 13 47z m-125 -55
c-3 -5 -12 -10 -18 -10 -7 0 -6 4 3 10 19 12 23 12 15 0z m125 -91 c0 -18
-141 -209 -167 -226 -14 -10 -34 -13 -52 -10 l-28 6 0 -62 c1 -84 -28 -138
-93 -179 l-48 -30 14 -34 c16 -38 9 -46 -59 -58 -32 -6 -36 -10 -32 -29 15
-65 22 -144 14 -164 -4 -12 -20 -29 -34 -39 -21 -14 -30 -14 -55 -4 -17 7 -35
21 -40 31 -9 16 -8 17 20 7 24 -8 35 -7 56 7 14 9 28 23 31 31 3 9 -2 60 -11
114 -21 129 -21 130 8 130 63 0 184 142 206 243 11 48 15 53 35 49 40 -7 145
107 131 143 -9 24 -42 17 -90 -20 -53 -40 -64 -25 -18 25 21 24 42 33 102 45
41 9 79 20 84 25 13 13 26 13 26 -1z m2016 -64 c-4 -17 0 -31 14 -45 19 -19
31 -21 128 -18 72 2 114 -2 129 -10 13 -7 45 -45 72 -85 77 -114 169 -190 289
-238 31 -12 58 -23 60 -25 2 -1 -4 -14 -13 -28 -25 -38 -13 -56 35 -56 38 0
40 -1 26 -16 -22 -21 -11 -34 26 -34 29 0 30 -1 15 -18 -21 -23 -21 -36 -2
-52 25 -21 63 -3 85 40 21 41 34 47 60 30 13 -9 10 -15 -15 -36 -51 -44 -89
-64 -119 -64 -36 0 -66 25 -66 56 0 16 -7 24 -22 26 -16 2 -26 13 -33 36 -7
23 -15 32 -31 32 -26 0 -38 24 -24 50 9 16 -1 25 -73 66 -99 57 -267 220 -267
259 0 21 -19 28 -35 15 -19 -16 -19 -35 0 -53 13 -13 13 -17 -1 -28 -19 -16
-34 2 -34 41 -1 69 -2 70 -117 67 -93 -2 -106 0 -119 17 -19 26 -18 39 7 70
26 33 33 33 25 1z m-928 -90 l2 -100 -170 -103 c-93 -57 -170 -106 -170 -109
0 -2 15 4 33 15 17 11 92 56 165 101 73 45 138 81 145 81 14 0 356 -189 915
-505 l352 -199 0 -139 0 -138 -116 6 c-131 6 -165 18 -195 70 -23 38 -71 60
-99 45 -10 -6 -30 -10 -43 -10 -14 0 -30 -6 -37 -14 -9 -11 -31 -14 -94 -12
-69 3 -91 8 -143 35 -34 18 -66 30 -71 27 -13 -8 -69 30 -89 61 -10 15 -42 52
-71 81 l-53 53 -62 -2 c-35 -1 -74 -9 -90 -18 -22 -12 -33 -13 -58 -4 -26 10
-33 9 -51 -9 -11 -11 -29 -40 -39 -64 -23 -52 -42 -59 -137 -52 -84 7 -115 21
-133 61 -10 24 -20 31 -36 29 -14 -2 -23 4 -28 16 -3 11 -20 25 -38 32 -18 6
-71 27 -119 47 -146 58 -154 59 -192 25 -19 -16 -56 -38 -82 -47 -81 -30 -85
-38 -39 -85 39 -40 39 -41 23 -68 -9 -15 -31 -35 -49 -44 -18 -9 -38 -31 -45
-48 -10 -23 -19 -30 -42 -30 -15 0 -33 5 -39 11 -27 27 -41 1 -48 -85 -7 -85
-7 -85 -30 -73 -13 7 -46 38 -74 70 l-51 58 0 97 0 97 80 48 c44 27 80 51 80
54 0 3 -10 -1 -22 -9 -57 -36 -146 -88 -151 -88 -17 0 -166 98 -159 105 4 5 2
5 -4 2 -20 -12 -24 -68 -25 -336 -1 -144 -5 -264 -10 -267 -5 -3 -9 0 -9 5 0
6 -5 11 -10 11 -6 0 -5 -8 2 -19 7 -11 16 -17 20 -15 10 6 10 -117 0 -132 -4
-6 -14 -14 -22 -17 -10 -4 -8 -6 8 -6 21 -1 33 -21 12 -21 -7 0 -7 -6 0 -19
14 -27 13 -74 -2 -65 -6 4 -8 3 -4 -4 10 -17 14 -242 4 -236 -5 3 -7 13 -4 21
3 8 2 12 -2 9 -4 -2 -8 22 -7 55 0 32 3 59 8 59 4 0 7 7 7 16 0 12 -5 11 -19
-7 -11 -13 -15 -25 -10 -27 5 -2 9 -16 8 -30 0 -24 -1 -25 -9 -7 -6 13 -7 5
-3 -25 3 -25 13 -58 23 -75 15 -27 16 -51 11 -210 l-6 -180 -28 60 c-46 97
-74 177 -82 233 -4 29 -10 52 -14 52 -12 0 -28 92 -25 140 2 33 1 38 -5 20
-24 -77 -30 339 -6 484 15 94 50 224 65 240 5 5 6 15 3 22 -3 8 0 14 7 14 6 0
9 -4 6 -8 -3 -5 8 -6 25 -4 16 2 37 -2 47 -9 14 -11 15 -11 5 0 -6 7 -9 20 -6
27 3 8 0 14 -6 14 -6 0 -8 8 -5 18 5 13 4 14 -4 3 -5 -7 -15 -10 -21 -7 -6 4
-11 3 -11 -2 0 -5 10 -13 22 -17 l23 -8 -23 -4 c-36 -7 -53 12 -40 48 5 16 14
29 19 29 5 0 9 7 9 16 0 11 6 14 17 10 17 -5 17 -4 1 6 -15 11 -13 19 24 92
63 125 218 346 218 310 0 -5 8 3 17 16 10 14 17 28 16 31 -2 7 97 106 100 100
1 -2 18 6 37 19 19 12 26 19 15 16 -32 -9 38 48 140 116 101 68 278 156 374
187 78 26 74 26 60 -1 l-12 -23 20 20 c11 11 18 23 16 28 -2 4 -1 7 4 5 8 -2
58 8 97 19 11 3 16 1 12 -5 -3 -5 1 -15 9 -22 25 -21 18 -68 -14 -101 -23 -23
-38 -29 -68 -28 -37 1 -38 1 -8 9 21 5 24 8 10 9 -19 2 -19 3 3 21 26 22 21
44 -9 35 -26 -9 -24 0 6 19 28 19 75 12 75 -11 0 -7 -12 -25 -26 -39 -14 -15
-20 -24 -13 -22 7 2 22 16 33 31 16 21 17 31 9 50 -9 19 -18 23 -50 23 -45 -1
-70 -18 -85 -56 -10 -24 -11 -24 -18 -5 -7 19 -7 19 -14 -2 -6 -19 -13 -22
-49 -19 -23 2 -30 1 -14 -1 15 -2 27 -9 27 -15 0 -6 -12 -8 -30 -5 -16 4 -31
3 -34 -1 -3 -5 10 -9 29 -10 18 -2 36 2 39 7 8 12 116 44 123 37 7 -7 -82 -69
-120 -83 -18 -6 -24 -12 -14 -12 26 -1 21 -18 -10 -35 -16 -8 -22 -15 -14 -16
7 0 29 17 47 37 20 22 34 31 35 22 0 -7 4 -4 9 8 8 19 14 22 42 16 18 -3 35
-7 37 -9 6 -5 61 29 61 39 0 4 5 5 10 2 6 -4 10 -3 9 2 -5 19 14 63 27 63 8 0
14 5 14 10 0 6 -5 9 -12 8 -14 -4 -40 44 -29 55 4 4 27 10 52 13 148 17 186
21 204 20 18 -1 20 -9 23 -101z m295 84 c55 -8 75 -14 65 -21 -9 -7 -1 -8 25
-4 20 2 35 1 32 -4 -3 -4 2 -11 11 -14 8 -3 12 -2 9 4 -10 16 7 12 119 -25
300 -98 589 -302 780 -550 69 -89 119 -165 114 -170 -2 -2 -65 31 -141 73 -95
53 -132 79 -120 83 11 4 4 8 -21 12 -22 3 -49 16 -62 28 -13 13 -24 19 -24 16
0 -4 -22 4 -50 18 -27 14 -50 30 -50 35 0 6 -6 10 -13 10 -7 0 -24 8 -37 17
-14 10 -30 18 -36 19 -6 1 -41 19 -78 40 -59 34 -64 39 -45 46 12 5 31 6 43 3
21 -6 21 -6 2 10 -13 10 -23 12 -30 5 -14 -14 -38 -12 -31 3 4 6 0 5 -7 -5
-13 -15 -19 -13 -73 18 -33 19 -59 38 -58 43 1 5 -7 17 -17 26 -11 10 -20 26
-20 35 0 10 -8 24 -17 31 -16 12 -16 12 -6 -1 17 -23 16 -33 -4 -41 -16 -7
-16 -8 3 -8 19 -1 68 -41 49 -41 -15 0 -84 43 -80 51 3 4 -2 10 -11 13 -9 4
-13 2 -8 -5 3 -6 -21 4 -54 22 -46 26 -56 35 -41 37 11 2 28 0 37 -4 9 -4 21
-6 25 -5 5 1 20 -8 34 -19 14 -11 31 -20 37 -20 6 1 0 7 -13 14 -23 13 -23 14
-5 19 14 3 13 5 -8 6 -14 0 -57 21 -95 46 -37 25 -55 34 -40 20 16 -14 23 -26
15 -26 -7 -1 1 -5 17 -9 l30 -8 -28 -1 c-15 0 -41 6 -57 14 -17 9 -32 15 -35
14 -3 0 -74 38 -158 86 l-152 86 100 -5 c55 -4 135 -11 178 -17z m-676 -80
c-15 -12 -24 -26 -21 -32 5 -8 3 -8 -6 0 -11 10 -10 16 5 33 10 11 25 20 34
20 11 -1 7 -7 -12 -21z m2007 -28 c21 -19 50 -71 42 -78 -9 -9 -78 -5 -88 5
-6 6 2 11 21 15 41 9 40 33 -4 58 -19 12 -35 23 -35 26 0 9 45 -9 64 -26z
m-3134 -68 c0 -7 -6 -10 -14 -7 -8 3 -21 -5 -30 -18 -23 -33 -20 -9 5 31 16
27 23 31 30 20 5 -8 9 -19 9 -26z m268 -144 c2 -10 -6 -19 -18 -22 -16 -4 -20
0 -20 20 0 18 5 24 17 21 10 -2 19 -10 21 -19z m-48 -59 c0 -13 -7 -20 -20
-20 -13 0 -20 7 -20 20 0 13 7 20 20 20 13 0 20 -7 20 -20z m2960 -320 c0 -13
-7 -20 -20 -20 -13 0 -20 7 -20 20 0 13 7 20 20 20 13 0 20 -7 20 -20z m-2265
-96 c33 -14 89 -35 124 -47 48 -16 69 -29 80 -50 12 -21 21 -26 38 -22 17 4
23 -1 31 -24 6 -16 19 -34 29 -40 38 -20 146 -34 193 -24 42 8 47 13 77 68 19
36 38 60 47 59 58 -3 57 -2 50 -43 -6 -37 -3 -42 41 -88 26 -26 51 -60 57 -75
6 -17 26 -35 53 -48 73 -35 95 -57 95 -95 0 -18 7 -38 15 -45 8 -7 15 -21 15
-31 0 -22 73 -72 98 -67 17 4 18 10 6 81 -3 20 -2 37 3 37 14 0 46 -105 39
-127 -9 -27 35 -67 66 -60 13 3 41 11 63 16 22 6 52 13 67 16 37 7 92 57 113
103 10 20 29 53 42 72 12 19 23 45 23 58 0 41 15 16 45 -73 24 -74 34 -90 69
-115 33 -25 50 -30 96 -30 48 0 60 -4 81 -26 13 -15 39 -33 57 -40 40 -18 40
-32 5 -141 -18 -53 -34 -85 -45 -89 -27 -8 -55 -106 -40 -139 11 -24 9 -27
-23 -46 -23 -14 -38 -32 -44 -54 -11 -39 -116 -145 -145 -145 -11 0 -31 -11
-45 -24 -24 -23 -52 -31 -93 -28 -13 2 -18 11 -18 32 0 34 -53 135 -78 149
-18 10 -112 -20 -212 -68 -36 -17 -72 -31 -81 -31 -19 0 -57 -57 -119 -177
-23 -46 -46 -83 -50 -83 -4 0 -10 23 -12 51 -3 27 -9 54 -14 59 -5 4 -61 11
-125 15 l-116 7 -21 -50 c-21 -48 -42 -75 -42 -53 0 6 -30 43 -66 83 -36 40
-72 87 -81 104 -8 17 -28 39 -44 48 -16 9 -29 25 -29 35 0 23 -17 38 -55 46
-17 4 -38 9 -47 11 -22 6 -64 80 -74 129 -9 53 -62 155 -82 162 -10 4 -30 17
-45 30 -16 13 -35 23 -42 23 -8 0 -27 21 -42 48 -15 26 -62 88 -104 138 -42
50 -86 108 -99 128 -15 25 -32 39 -52 43 -29 6 -29 6 -26 67 l3 61 35 5 c26 4
38 12 48 33 8 15 28 35 47 44 19 9 39 30 49 51 l17 35 -37 38 c-21 21 -36 40
-33 42 2 3 32 17 66 32 34 15 70 36 79 46 23 25 47 24 119 -7z m2142 -179 c25
-60 46 -125 46 -142 -1 -18 3 -31 7 -28 11 7 46 -145 60 -255 21 -176 10 -386
-31 -563 -13 -56 -25 -85 -32 -80 -6 4 -8 0 -4 -11 7 -18 -36 -143 -83 -241
l-28 -60 -3 115 c-6 248 -6 467 1 507 4 24 3 40 -1 37 -11 -6 -12 37 -1 52 4
6 14 14 22 17 11 4 9 6 -5 6 -20 1 -21 7 -22 148 -1 84 3 155 9 166 6 12 6 17
0 13 -10 -6 -22 24 -22 58 0 18 1 18 19 2 14 -13 19 -29 18 -56 -2 -21 1 -36
5 -34 12 7 10 114 -2 114 -5 0 -7 -8 -3 -17 5 -15 3 -16 -7 -6 -19 18 -28 104
-29 278 l-1 150 20 -30 c11 -16 41 -79 67 -140z m-1239 63 c105 -115 132 -138
157 -138 13 0 46 -12 75 -26 33 -17 78 -28 133 -34 71 -8 85 -7 107 9 31 22
105 33 134 20 12 -6 29 -23 38 -39 31 -55 89 -72 246 -72 l72 1 0 -137 c0
-106 -3 -133 -12 -124 -7 7 -18 12 -26 12 -8 0 -32 16 -53 35 -35 31 -45 35
-97 35 -49 0 -63 4 -95 31 -20 17 -37 36 -37 44 0 29 -63 176 -73 172 -7 -2
-16 -19 -21 -38 -5 -19 -19 -47 -31 -64 -12 -16 -27 -45 -34 -62 -18 -43 -85
-103 -116 -103 -13 0 -45 -7 -71 -16 -61 -21 -96 -6 -87 36 3 15 -1 38 -8 51
-7 13 -15 38 -19 54 -4 20 -13 31 -27 33 -18 3 -22 -4 -28 -38 -5 -27 -3 -46
5 -56 20 -23 4 -28 -30 -7 -32 18 -70 81 -70 116 0 34 -20 56 -85 92 -40 23
-65 43 -65 54 0 9 -24 41 -54 70 -53 52 -53 53 -43 89 14 47 11 45 60 53 90
14 93 13 155 -53z m-1288 -343 c21 -5 40 -21 62 -53 17 -26 65 -85 105 -131
40 -46 73 -89 73 -94 0 -21 53 -87 70 -87 10 0 23 -7 31 -16 7 -8 25 -22 40
-30 29 -15 89 -126 89 -165 0 -28 58 -129 73 -129 7 0 29 -5 50 -11 28 -8 41
-18 48 -38 6 -16 21 -34 35 -42 14 -7 34 -29 44 -49 10 -19 48 -68 83 -108 66
-74 77 -99 77 -184 0 -20 4 -40 10 -43 10 -6 90 -167 90 -180 0 -17 55 -75 71
-75 23 0 86 39 113 69 25 28 94 67 131 74 39 7 121 59 191 120 30 26 60 47 68
47 8 0 36 15 62 33 27 19 63 40 79 48 24 11 31 22 35 55 4 30 15 49 40 72 19
17 43 32 52 32 9 0 30 11 46 25 17 14 39 25 50 25 27 0 142 118 149 153 3 17
17 33 33 42 45 23 53 40 37 71 -12 23 -12 32 2 69 9 24 26 51 37 62 12 10 32
51 45 91 l24 73 3 -357 c2 -278 -1 -361 -10 -370 -11 -9 -984 -569 -1066 -613
-21 -11 -30 -9 -78 23 -30 20 -54 41 -54 46 0 14 -34 12 -48 -2 -19 -19 -14 2
8 29 25 32 26 71 3 80 -10 4 -34 21 -53 39 -107 98 -167 146 -192 151 -15 3
-28 9 -28 14 0 5 -12 9 -27 10 -43 1 -82 30 -107 79 -100 203 -82 181 -195
242 -30 16 -36 29 -50 101 -5 32 -18 73 -27 90 -9 18 -25 56 -35 86 -23 67
-42 88 -94 111 -36 15 -43 24 -58 74 -10 32 -26 60 -38 66 -10 6 -32 29 -47
52 -66 99 -142 224 -142 233 0 6 -31 44 -70 84 -54 57 -70 81 -70 103 0 29 1
28 49 -28 49 -57 83 -83 111 -84 12 0 16 17 18 77 4 104 16 116 20 21 3 -76 3
-77 32 -83z m-146 -43 c25 -29 48 -62 52 -74 4 -13 15 -34 24 -48 10 -14 43
-65 75 -113 32 -48 68 -96 79 -105 24 -19 46 -63 46 -91 0 -23 27 -48 63 -56
31 -8 77 -58 77 -84 0 -9 11 -39 24 -67 28 -57 42 -102 51 -161 7 -47 19 -60
94 -100 56 -30 58 -33 140 -203 33 -70 52 -84 155 -112 32 -8 66 -29 98 -58
28 -25 76 -67 109 -95 64 -55 71 -76 37 -112 -27 -29 -12 -52 23 -37 17 8 28
4 57 -23 20 -18 44 -35 54 -39 10 -3 18 -9 18 -13 0 -9 -123 -81 -140 -81 -7
0 -285 165 -617 366 l-603 367 0 497 c0 273 3 500 6 503 11 10 31 -5 78 -61z
m-680 -352 c-6 -26 -4 -30 16 -30 16 0 20 -4 16 -16 -3 -9 -6 -22 -6 -30 0 -8
-7 -14 -15 -14 -10 0 -15 10 -15 31 0 22 -6 32 -18 36 -26 6 -17 53 9 53 15 0
17 -5 13 -30z m-144 -30 c23 -17 23 -18 11 -121 -20 -174 5 -253 120 -374 61
-64 73 -82 71 -106 -3 -22 2 -31 20 -39 20 -9 18 -10 -12 -5 -49 8 -73 34 -62
66 9 21 3 31 -53 84 -70 68 -125 148 -149 218 -19 56 -21 164 -4 236 10 46 9
53 -8 73 l-19 21 31 -17 c17 -10 41 -26 54 -36z m3934 22 c8 -15 17 -46 21
-67 12 -75 15 -85 30 -85 8 0 19 17 25 41 13 47 22 44 70 -29 37 -56 39 -105
7 -153 -20 -30 -29 -34 -70 -37 l-47 -3 0 -108 c0 -133 -22 -213 -79 -287
l-38 -51 24 -59 c36 -87 41 -160 14 -212 -23 -45 -71 -82 -108 -82 -24 0 -78
41 -94 73 -11 20 -11 20 19 -1 85 -61 172 10 172 141 0 42 -7 63 -36 110 l-36
58 35 52 c58 88 67 118 66 231 -2 148 -4 154 -71 193 -32 19 -58 38 -58 43 0
15 8 12 71 -26 64 -40 134 -54 181 -35 46 18 62 132 20 148 -20 8 -42 -23 -42
-58 0 -38 -13 -43 -39 -15 -25 27 -41 76 -41 128 0 35 -2 38 -28 38 -34 0 -52
16 -52 46 0 43 63 47 84 6z m265 -153 c-20 -12 -26 -11 -33 6 -8 21 26 38 38
18 5 -10 4 -18 -5 -24z m-4031 -156 c6 -18 9 -33 7 -33 -7 0 -33 59 -27 64 7
7 7 7 20 -31z m2501 -38 c17 -30 31 -64 31 -76 0 -30 18 -59 38 -59 12 0 8 -8
-16 -28 -24 -20 -32 -35 -32 -59 0 -18 -6 -37 -12 -43 -30 -25 -154 -100 -167
-100 -7 0 -38 -22 -68 -50 -30 -27 -59 -50 -65 -50 -6 0 -26 -12 -45 -26 -18
-14 -55 -32 -81 -39 -27 -8 -68 -29 -91 -47 -24 -18 -62 -47 -85 -65 -22 -17
-46 -32 -52 -32 -14 -1 -64 62 -64 81 0 7 -11 33 -25 57 -14 23 -25 48 -25 55
0 7 -11 27 -25 46 -20 27 -25 46 -25 91 0 36 5 61 14 68 7 6 21 32 31 57 l17
46 47 -6 c25 -3 76 -8 114 -11 l67 -7 0 -47 c0 -45 12 -71 34 -71 6 0 38 51
70 113 62 117 90 157 113 157 8 0 33 10 56 22 44 22 184 76 204 77 6 1 25 -24
42 -54z m-2799 -35 c0 -20 -5 -30 -15 -30 -10 0 -15 10 -15 30 0 20 5 30 15
30 10 0 15 -10 15 -30z m53 -56 c3 -16 0 -28 -10 -31 -17 -7 -18 -5 -27 30 -5
22 -3 27 13 27 12 0 20 -9 24 -26z m4157 -57 c0 -8 -9 -24 -20 -37 -11 -13
-20 -18 -20 -13 0 6 7 16 15 23 8 7 15 19 15 26 0 8 2 14 5 14 3 0 5 -6 5 -13z
m-4022 -123 c1 0 0 -8 -4 -17 -5 -14 -9 -14 -39 0 -28 13 -32 19 -22 34 10 16
12 16 36 1 14 -9 27 -17 29 -18z m1287 -347 l600 -365 3 -101 c1 -55 0 -101
-4 -101 -3 0 -74 43 -157 96 -83 53 -165 105 -183 114 -17 10 -257 156 -533
325 -276 169 -504 305 -506 303 -2 -2 59 -41 135 -88 76 -47 134 -87 128 -89
-12 -4 52 -35 65 -32 5 1 6 -3 3 -8 -4 -5 -1 -13 5 -17 8 -4 9 -3 5 4 -11 18
1 15 50 -14 24 -14 42 -30 38 -35 -3 -5 3 -6 13 -2 10 3 15 2 10 -2 -4 -5 3
-19 15 -32 22 -23 12 -33 -11 -10 -10 10 -11 9 -6 -5 10 -25 -8 -22 -31 4 -17
19 -17 21 -1 15 32 -12 17 3 -18 17 -19 8 -38 22 -41 30 -3 9 -10 14 -14 11
-5 -3 -22 8 -38 25 -21 20 -40 30 -59 29 -27 -1 -27 -1 5 -9 19 -4 39 -13 45
-19 14 -14 6 -14 -28 -1 -23 9 -25 8 -21 -15 5 -29 -1 -31 -25 -9 -10 9 -15
23 -12 32 4 10 2 13 -5 8 -18 -11 -11 -64 12 -83 21 -18 21 -18 4 3 -26 30
-22 37 12 19 16 -8 36 -15 45 -15 26 0 16 -18 -12 -23 -23 -4 -22 -5 7 -5 54
0 57 -2 25 -17 -24 -11 -25 -13 -8 -11 12 1 26 5 29 9 4 4 19 0 33 -9 14 -9
-1 9 -34 39 -33 30 -57 58 -53 62 10 10 90 -34 131 -74 33 -31 44 -36 90 -37
29 -1 64 -3 78 -6 33 -6 80 -38 59 -39 -11 0 -11 -2 -2 -6 6 -2 10 -9 6 -14
-3 -5 0 -9 6 -9 7 0 10 7 6 15 -7 19 3 19 28 0 11 -8 15 -15 8 -15 -6 0 -16
-10 -22 -22 -10 -21 -10 -21 3 -6 19 24 31 23 24 -2 -3 -12 1 -23 9 -28 8 -4
18 -22 23 -40 8 -27 7 -34 -9 -42 -13 -7 -20 -6 -23 3 -3 7 -6 8 -6 1 -1 -6 9
-23 20 -38 26 -33 55 -31 82 6 19 25 19 28 3 52 -9 14 -27 28 -41 32 -14 3
-23 10 -20 14 3 4 -2 10 -10 14 -15 5 -22 46 -7 46 15 -1 136 -80 121 -80 -8
0 -24 7 -35 15 -10 8 -26 14 -34 15 -8 0 -4 -6 10 -13 13 -7 30 -24 37 -37 11
-22 18 -21 14 3 0 4 7 7 17 7 19 -1 89 -41 90 -53 0 -4 2 -11 5 -15 2 -4 2 -1
1 6 -5 19 7 15 68 -27 l57 -38 -47 4 -47 5 30 -26 30 -26 -30 6 c-16 4 -47 12
-67 19 -21 7 -38 9 -38 5 0 -5 8 -10 18 -13 14 -3 13 -6 -8 -16 -17 -8 -19
-10 -5 -7 11 2 27 6 35 10 10 4 20 -6 31 -29 19 -41 6 -47 -15 -7 -8 15 -15
23 -16 19 0 -17 21 -47 41 -58 14 -7 19 -7 15 -1 -4 7 5 9 27 5 66 -10 98 33
61 85 -8 12 -12 22 -7 22 12 -1 43 -26 38 -31 -2 -3 4 -5 13 -5 18 0 265 -154
258 -161 -6 -7 -203 17 -286 33 -201 41 -451 150 -614 268 -105 75 -269 224
-261 236 3 5 -10 21 -30 36 -27 20 -34 32 -30 51 4 27 25 57 33 48 3 -3 -2
-13 -10 -22 -10 -12 -12 -26 -7 -43 l7 -25 1 27 c1 27 24 58 44 58 6 0 2 6 -9
14 -10 8 -23 11 -27 7 -5 -5 -19 2 -32 15 -13 13 -30 24 -37 24 -7 -1 -1 -7
13 -15 33 -18 45 -45 21 -45 -22 0 -46 18 -60 45 -6 11 -12 14 -12 7 0 -15 39
-56 61 -64 10 -4 11 -8 3 -18 -9 -9 -22 3 -56 52 -76 107 -102 158 -89 171 24
24 157 96 171 92 8 -1 285 -167 615 -368z m2285 324 c5 -11 9 -35 8 -53 l-1
-33 -4 33 c-5 40 -17 41 -39 2 -13 -21 -20 -26 -26 -17 -12 19 -9 32 13 61 24
31 35 33 49 7z m-3644 -71 c33 0 114 -47 174 -100 37 -33 72 -60 78 -60 6 0
12 12 14 28 2 22 9 28 34 30 59 6 109 -64 69 -98 -8 -6 -19 -9 -25 -5 -19 12
-58 -4 -65 -25 -20 -63 27 -76 120 -34 32 15 79 29 104 31 45 4 45 3 -24 -20
-38 -14 -87 -32 -107 -41 -79 -34 -127 -10 -135 67 -5 42 -12 53 -66 104 -44
39 -94 71 -173 110 -62 29 -114 60 -117 67 -3 7 20 -2 51 -20 31 -19 61 -34
68 -34z m3420 -27 c-30 -58 -124 -185 -191 -260 -283 -317 -649 -502 -1076
-543 -193 -19 -193 -18 -7 89 89 51 169 94 176 95 7 1 21 9 30 17 11 9 28 12
52 8 35 -6 35 -6 5 -9 -19 -1 -24 -4 -12 -7 15 -4 16 -7 5 -21 -7 -8 11 1 41
21 29 20 58 37 64 37 6 0 7 3 4 7 -4 3 1 16 10 28 10 11 5 8 -10 -8 -31 -32
-45 -31 -27 2 6 12 8 21 5 21 -3 0 -13 -16 -21 -35 -13 -32 -17 -34 -47 -28
-17 3 -33 7 -35 8 -2 2 98 58 108 61 3 0 22 9 43 18 22 9 44 15 50 13 7 -3 1
-9 -13 -15 -18 -8 -20 -11 -7 -11 20 -1 23 -27 5 -34 -10 -4 -10 -6 0 -6 13
-1 16 5 26 52 5 21 3 27 -11 27 -15 0 -15 2 2 13 51 34 137 79 130 67 -5 -9
-4 -11 3 -6 7 4 12 2 12 -4 0 -10 57 -50 71 -50 4 0 9 10 13 23 5 18 8 19 15
7 7 -10 6 -17 -2 -22 -8 -5 -8 -8 -1 -8 18 0 24 12 13 31 -8 16 -6 19 15 19
13 0 27 6 29 13 3 6 6 1 6 -12 1 -17 -3 -22 -15 -17 -8 3 -12 2 -9 -4 3 -5 22
-14 42 -19 29 -8 40 -7 53 4 9 8 25 15 36 15 10 0 26 5 34 10 11 7 6 8 -18 4
-28 -6 -32 -4 -26 12 3 11 -3 4 -15 -13 -11 -18 -26 -33 -31 -33 -6 0 -8 5 -5
10 4 6 3 10 -2 9 -23 -4 -29 5 -29 44 -1 23 1 33 3 22 3 -11 10 -26 15 -32 7
-9 7 -13 -1 -13 -7 0 -10 -4 -7 -9 11 -16 41 -5 44 17 8 53 -54 85 -92 47 -18
-18 -36 -19 -36 -2 0 7 -5 5 -11 -5 -5 -10 -17 -15 -27 -12 -14 5 -14 4 -2 -4
8 -6 26 -8 41 -5 15 3 29 1 33 -5 3 -5 -7 -12 -23 -15 -18 -4 -32 -15 -36 -27
-8 -25 -25 -17 -26 13 -1 17 -2 18 -6 5 -6 -24 -20 -23 -34 3 -8 15 -8 24 0
32 8 8 11 8 11 -2 0 -7 5 -9 10 -6 6 4 8 10 6 14 -3 4 13 18 36 31 23 13 38
17 33 11 -5 -9 -2 -9 13 0 12 7 19 16 16 20 -4 7 56 35 68 32 3 -1 12 4 18 12
7 8 19 15 26 15 8 0 14 4 14 10 0 5 14 16 30 25 17 9 30 11 30 6 0 -5 13 4 29
20 16 16 43 32 60 35 17 4 29 10 26 13 -3 6 249 160 263 161 1 0 -4 -12 -12
-27z m177 -293 c99 -118 97 -123 -7 -17 -53 55 -96 103 -96 108 0 19 43 -19
103 -91z m-2459 -11 c5 -4 -8 -2 -28 5 -21 7 -47 23 -59 36 -21 22 -19 21 28
-5 28 -15 54 -31 59 -36z m2398 -66 c44 -56 49 -67 46 -105 l-3 -43 -50 -3
c-32 -2 -55 -9 -62 -19 -19 -24 -16 -2 3 25 10 15 25 22 48 22 35 0 46 13 46
51 0 10 -29 51 -65 90 -36 39 -65 76 -65 82 0 15 44 -28 102 -100z m-3121 26
c-46 -22 -86 -37 -89 -34 -6 6 -11 3 68 42 36 17 74 32 85 32 11 0 -18 -18
-64 -40z m2479 -15 c0 -8 -5 -12 -10 -9 -6 4 -8 11 -5 16 9 14 15 11 15 -7z
m510 -9 c0 -20 -5 -25 -25 -25 -20 0 -25 5 -25 25 0 20 5 25 25 25 20 0 25 -5
25 -25z m-2827 -2 c-26 -5 -29 -20 -8 -47 19 -25 19 -52 1 -59 -7 -3 -57 2
-110 11 -113 19 -143 11 -160 -46 -9 -31 -6 -36 35 -78 39 -40 41 -44 17 -35
-70 26 -115 81 -104 125 13 51 124 72 231 44 34 -9 48 -9 57 0 9 9 2 19 -27
46 l-37 35 38 4 c22 2 50 4 64 4 23 0 23 0 3 -4z m2372 -3 c3 -5 1 -10 -4 -10
-6 0 -11 5 -11 10 0 6 2 10 4 10 3 0 8 -4 11 -10z m-2297 -33 c17 -16 22 -31
22 -68 0 -38 4 -51 19 -59 32 -16 62 -12 98 16 19 14 37 24 39 21 3 -3 -18
-21 -48 -40 -61 -38 -105 -87 -114 -123 -33 -133 117 -289 351 -365 91 -29
228 -33 233 -6 2 11 -7 23 -27 35 -74 41 -12 70 166 77 102 4 124 2 108 -7
-11 -7 -67 -15 -124 -18 -66 -3 -106 -9 -108 -17 -2 -6 12 -23 31 -38 20 -15
36 -33 36 -40 0 -19 -54 -36 -136 -42 -177 -14 -417 82 -533 213 -79 90 -79
156 0 239 27 28 49 57 49 64 0 6 -18 18 -40 27 -41 16 -60 48 -41 67 18 18 13
49 -11 75 -26 28 -5 20 30 -11z m2692 -22 c0 -20 -5 -25 -25 -25 -20 0 -25 5
-25 25 0 20 5 25 25 25 20 0 25 -5 25 -25z m-2015 -66 c-4 -5 0 -9 7 -9 8 0 9
-3 3 -8 -6 -4 -16 -19 -24 -34 -13 -25 -15 -26 -27 -10 -7 9 -10 19 -8 22 3 2
9 -2 13 -9 7 -10 11 -8 17 10 4 13 7 32 5 43 -2 11 2 16 8 11 6 -3 9 -11 6
-16z m18 -53 c-10 -14 -22 -26 -27 -26 -8 0 1 14 29 46 18 22 17 6 -2 -20z
m-863 9 c0 -9 -9 -15 -25 -15 -16 0 -25 6 -25 15 0 9 9 15 25 15 16 0 25 -6
25 -15z m2888 -1 c13 -4 22 -14 22 -25 0 -28 30 -36 46 -14 13 18 14 18 14 1
0 -31 -30 -83 -55 -94 -14 -7 -36 -35 -52 -68 -32 -66 -148 -195 -212 -236
-114 -72 -237 -3 -301 168 -31 83 -23 99 9 18 36 -91 82 -158 120 -174 42 -17
87 -7 160 38 122 74 206 165 231 251 9 31 8 31 -30 31 -56 0 -68 42 -25 85 25
26 35 29 73 19z m-2728 -44 c0 -16 -7 -20 -31 -20 -18 0 -37 -7 -43 -16 -16
-21 -67 -9 -59 13 4 10 14 13 33 9 22 -4 29 -1 33 14 7 29 67 28 67 0z m2519
-32 c-31 -58 -124 -189 -127 -179 -2 6 26 54 63 106 63 91 89 121 64 73z
m-1529 -18 c29 -29 25 -55 -9 -70 -36 -14 -67 -6 -82 22 -11 21 -11 21 24 0
19 -12 38 -22 43 -22 5 0 -6 9 -23 20 -18 11 -33 22 -33 26 0 3 16 -4 36 -15
20 -12 39 -19 42 -17 3 3 -3 8 -12 12 -9 3 -16 11 -16 17 0 6 -7 19 -17 29
-15 17 -15 18 5 18 12 0 31 -9 42 -20z m-266 -185 c3 -9 -1 -18 -10 -22 -19
-7 -39 11 -30 26 10 16 33 13 40 -4z m934 -256 c-3 -82 -6 -101 -28 -132 -45
-66 -101 -79 -140 -33 -21 26 -36 19 -74 -34 -31 -43 -41 -50 -68 -49 l-33 0
25 17 c14 9 49 39 78 68 48 47 52 55 52 97 0 25 5 49 10 52 6 4 10 -13 10 -44
0 -38 6 -56 24 -78 21 -24 27 -26 51 -18 55 20 70 55 73 178 3 116 13 170 20
107 2 -19 2 -78 0 -131z m-487 84 c-20 -76 -75 -185 -115 -226 -49 -49 -105
-77 -156 -77 -71 0 -119 69 -94 134 5 12 11 6 26 -24 11 -22 30 -46 41 -52 56
-30 171 5 206 63 10 16 28 69 41 117 20 79 46 130 58 117 2 -2 -1 -26 -7 -52z
m-210 -59 c-23 -48 -44 -84 -48 -81 -9 10 37 129 60 154 35 39 31 17 -12 -73z
m1025 -148 c-47 -81 -154 -112 -214 -61 -38 32 -47 70 -31 127 13 41 13 42 16
13 9 -74 40 -105 104 -105 39 0 95 26 114 54 10 14 15 46 15 102 0 112 14 116
18 4 2 -82 0 -96 -22 -134z m212 212 c7 -7 12 -28 12 -47 0 -35 -1 -36 -41
-38 l-41 -1 5 35 c9 56 38 78 65 51z m-288 -55 c0 -17 -17 -25 -40 -18 -22 7
-26 25 -9 42 14 14 49 -4 49 -24z m-567 -64 c6 -9 7 -32 3 -54 -5 -25 -10 -34
-16 -26 -5 9 -18 11 -40 6 -32 -7 -33 -6 -26 20 16 65 55 92 79 54z m787 -74
c-7 -8 -17 -15 -23 -15 -6 0 -2 7 9 15 25 19 30 19 14 0z m-863 -100 c-15 -14
-33 -25 -39 -25 -6 0 4 11 23 24 44 32 51 32 16 1z"/>
<path d="M1772 4128 c-17 -17 -15 -48 3 -48 17 0 39 36 30 50 -8 13 -18 13
-33 -2z"/>
<path d="M720 3386 c0 -11 10 -16 31 -16 38 0 35 24 -4 28 -19 2 -27 -1 -27
-12z"/>
<path d="M2076 3842 l-19 -27 24 22 c12 12 21 24 18 27 -2 2 -13 -8 -23 -22z"/>
<path d="M2015 3849 c-4 -6 -13 -8 -21 -5 -11 4 -12 2 -1 -14 7 -12 22 -19 37
-19 23 2 24 2 3 6 -27 5 -29 18 -5 32 9 6 12 11 5 11 -6 0 -15 -5 -18 -11z"/>
<path d="M1905 3780 c-3 -5 -2 -10 4 -10 5 0 13 5 16 10 3 6 2 10 -4 10 -5 0
-13 -4 -16 -10z"/>
<path d="M1711 3766 c2 -2 20 -6 39 -10 25 -4 31 -3 20 4 -14 9 -69 15 -59 6z"/>
<path d="M1659 3739 l-24 -20 30 17 c39 24 40 24 28 24 -6 0 -21 -9 -34 -21z"/>
<path d="M1650 3705 c-10 -12 -10 -15 2 -15 8 0 15 7 15 15 0 8 -1 15 -2 15
-2 0 -8 -7 -15 -15z"/>
<path d="M1575 3690 c-3 -6 1 -7 9 -4 18 7 21 14 7 14 -6 0 -13 -4 -16 -10z"/>
<path d="M1545 3661 c-3 -12 -11 -21 -16 -21 -6 0 -5 -8 1 -20 9 -17 7 -24
-12 -40 -23 -19 -23 -19 -40 3 -25 31 -24 56 0 34 10 -10 22 -17 26 -17 5 0
-2 8 -15 19 -21 17 -25 17 -46 4 -13 -9 -23 -20 -23 -27 0 -7 3 -7 8 1 5 9 16
4 36 -17 28 -31 58 -40 54 -17 -2 6 6 12 17 12 11 0 19 -6 18 -12 -4 -18 8
-16 23 5 16 20 18 32 5 32 -5 0 -11 -8 -14 -17 -3 -14 -7 -11 -16 12 -9 22 -9
36 -1 54 6 13 9 26 6 28 -2 2 -7 -5 -11 -16z"/>
<path d="M1610 3670 c0 -14 22 -53 35 -62 6 -5 3 -14 -8 -25 -18 -17 -19 -17
-16 2 1 11 -3 31 -9 45 l-11 25 -1 -25 c-1 -14 -1 -35 0 -47 0 -12 -7 -30 -17
-40 -10 -10 -17 -26 -15 -36 4 -21 -7 -22 -22 -2 -6 8 -27 21 -47 29 -36 15
-37 15 -31 -6 4 -15 1 -19 -9 -16 -8 3 -13 12 -11 19 2 8 0 11 -4 6 -4 -4 -17
-1 -28 7 -13 8 -29 10 -41 5 -18 -7 -17 -8 6 -8 30 -1 78 -35 66 -47 -4 -4
-17 2 -30 13 -30 27 -82 37 -97 18 -7 -8 -22 -16 -34 -16 -17 -1 -17 -2 -3 -6
20 -5 20 -5 5 -38 -6 -14 -17 -25 -25 -25 -16 0 -17 -16 -1 -26 7 -4 8 -3 4 4
-4 7 -2 12 4 12 5 0 20 21 33 48 21 45 47 62 53 34 1 -7 0 -8 -3 -2 -7 15 -33
-8 -33 -29 0 -27 29 -61 52 -61 11 0 36 9 54 21 19 11 34 17 34 12 0 -18 -32
-53 -48 -54 -11 0 -12 -2 -4 -6 6 -2 10 -10 6 -16 -3 -7 1 -4 9 5 8 10 17 14
21 10 4 -4 7 -2 5 3 -1 6 3 22 11 37 11 23 17 26 41 21 29 -6 40 9 17 23 -6 4
-8 3 -5 -3 4 -6 -13 -9 -43 -9 -57 1 -73 11 -31 19 17 4 32 14 36 27 9 27 25
26 26 -2 0 -21 1 -21 8 -4 7 17 8 17 24 2 9 -10 17 -21 17 -25 0 -18 26 -6 28
13 2 34 21 60 55 76 25 12 32 21 33 45 1 37 -12 56 -33 48 -11 -4 -14 -2 -9 5
4 7 2 12 -3 12 -6 0 -11 -5 -11 -10z m-202 -184 c-11 -11 -15 -11 -24 3 -17
22 -7 33 17 21 15 -9 17 -13 7 -24z m-27 -17 c8 -15 8 -24 0 -32 -8 -8 -11 -5
-11 9 0 11 -5 25 -12 32 -9 9 -9 12 0 12 6 0 16 -9 23 -21z m-26 -9 c3 -5 1
-10 -4 -10 -6 0 -11 5 -11 10 0 6 2 10 4 10 3 0 8 -4 11 -10z m60 -10 c3 -5 1
-10 -4 -10 -6 0 -11 5 -11 10 0 6 2 10 4 10 3 0 8 -4 11 -10z"/>
<path d="M1570 3649 c-6 -11 -9 -25 -6 -32 3 -9 5 -8 5 1 1 7 6 10 13 6 6 -4
8 -3 4 4 -3 6 -2 13 4 17 13 8 13 25 0 25 -5 0 -14 -9 -20 -21z"/>
<path d="M1502 3640 c0 -14 2 -19 5 -12 2 6 2 18 0 25 -3 6 -5 1 -5 -13z"/>
<path d="M1702 3638 c-7 -7 -12 -22 -12 -33 0 -22 -22 -48 -50 -58 -13 -5 -12
-6 1 -6 9 -1 22 6 29 14 7 8 24 14 39 13 27 -2 81 27 81 44 0 5 4 7 8 4 5 -3
9 2 9 10 0 10 -8 8 -26 -10 -14 -14 -37 -27 -51 -31 -22 -5 -26 -2 -28 19 -1
15 5 29 16 35 9 6 12 11 7 11 -6 0 -16 -5 -23 -12z"/>
<path d="M1380 3577 c0 -7 9 -13 19 -13 15 0 17 3 9 13 -6 7 -14 13 -19 13 -5
0 -9 -6 -9 -13z"/>
<path d="M1220 3445 c-13 -14 -22 -27 -19 -29 2 -2 14 10 27 25 29 36 24 38
-8 4z"/>
<path d="M1805 3409 c-55 -34 -104 -66 -110 -72 -5 -6 1 -4 15 4 14 9 64 39
113 68 48 29 87 54 87 57 0 6 1 7 -105 -57z"/>
<path d="M1177 3433 c-4 -3 -7 -15 -7 -25 0 -10 -6 -18 -12 -19 -7 0 3 -6 22
-12 29 -9 31 -11 13 -14 -15 -3 -20 -9 -16 -20 4 -9 2 -14 -3 -10 -12 7 -74
-22 -74 -35 0 -5 10 -2 22 6 12 9 27 16 33 16 5 0 2 -5 -8 -11 -9 -6 -14 -15
-11 -21 4 -7 2 -8 -5 -4 -6 4 -17 3 -24 -3 -10 -7 -13 -4 -14 12 -2 25 23 57
46 58 11 0 12 2 3 6 -19 7 -62 -36 -62 -61 0 -12 5 -28 10 -36 9 -13 12 -13
20 2 6 10 18 14 30 11 15 -4 19 -2 15 9 -4 10 14 34 52 69 32 29 50 47 41 40
-11 -8 -28 -11 -44 -7 -21 6 -25 12 -21 31 5 27 4 29 -6 18z"/>
<path d="M1278 3355 c-27 -24 -48 -49 -48 -57 0 -10 2 -10 9 1 5 8 19 12 35 9
32 -6 34 0 4 11 l-23 9 25 10 c14 6 21 11 16 11 -5 1 1 12 14 26 36 39 20 29
-32 -20z"/>
<path d="M1326 3372 l-19 -27 26 24 c15 14 30 22 33 18 9 -9 -5 -27 -38 -47
-16 -10 -25 -20 -20 -24 5 -3 18 3 29 14 12 10 22 18 24 17 2 -1 3 0 2 2 -2 2
2 10 8 17 12 15 4 34 -14 34 -7 0 -21 -13 -31 -28z"/>
<path d="M1654 3314 c-18 -14 -18 -15 4 -4 12 6 22 13 22 15 0 8 -5 6 -26 -11z"/>
<path d="M1202 3303 c-6 -2 -10 -9 -7 -13 3 -5 -5 -16 -17 -24 -12 -9 -18 -16
-12 -16 11 0 34 23 48 48 8 13 7 13 -12 5z"/>
<path d="M1041 3283 c-7 -8 -10 -21 -7 -29 3 -8 0 -14 -8 -14 -19 0 -59 -47
-53 -62 4 -9 6 -8 6 3 1 20 33 49 54 49 21 0 21 -8 0 -34 -14 -17 -13 -17 7 2
21 19 23 25 12 42 -15 24 -15 33 -1 24 6 -3 17 -20 25 -38 7 -17 13 -24 14
-16 0 9 -8 32 -18 51 -15 30 -20 33 -31 22z"/>
<path d="M1550 3254 c-41 -25 -79 -51 -85 -57 -5 -6 1 -4 15 4 127 77 150 91
150 95 0 6 -1 6 -80 -42z"/>
<path d="M1197 3254 c-18 -15 -41 -24 -65 -25 -33 -1 -34 -2 -12 -8 25 -8 55
3 95 32 11 9 18 18 15 20 -3 3 -18 -6 -33 -19z"/>
<path d="M1128 3243 c7 -3 16 -2 19 1 4 3 -2 6 -13 5 -11 0 -14 -3 -6 -6z"/>
<path d="M1370 3144 c-41 -25 -79 -51 -85 -57 -5 -6 1 -4 15 4 127 77 150 91
150 95 0 6 -1 6 -80 -42z"/>
<path d="M1244 3064 c-18 -14 -18 -15 4 -4 12 6 22 13 22 15 0 8 -5 6 -26 -11z"/>
<path d="M772 2764 c-12 -8 -22 -23 -21 -32 0 -14 2 -13 9 3 6 15 9 7 9 -30 1
-36 -2 -46 -9 -35 -5 8 -10 11 -10 6 0 -5 8 -18 18 -29 13 -16 14 -19 2 -15
-8 2 -21 15 -27 29 -7 13 -13 18 -13 10 0 -8 7 -23 16 -33 16 -16 15 -19 -7
-38 l-24 -21 28 17 c34 20 35 11 2 -28 -17 -21 -25 -42 -26 -71 0 -33 -2 -38
-9 -22 -7 16 -9 17 -9 3 -1 -9 3 -19 8 -23 11 -6 41 33 41 53 0 7 7 20 15 28
15 16 18 46 17 164 l0 65 7 -50 c5 -27 9 -43 10 -35 1 13 2 13 11 0 8 -12 10
-11 10 7 0 12 -5 23 -11 25 -6 2 -9 17 -7 33 3 27 4 28 21 11 18 -18 23 -75 8
-91 -5 -6 -11 -39 -13 -75 -3 -36 -3 -59 0 -52 2 6 8 9 13 6 6 -3 7 6 4 23 -5
21 -4 24 4 13 6 -8 11 -10 11 -4 0 5 -5 15 -12 22 -8 8 -8 15 3 28 9 12 10 15
2 10 -8 -4 -13 -2 -13 8 0 8 5 18 10 21 18 11 11 74 -10 95 -24 24 -29 24 -58
4z m-15 -219 c-8 -6 -17 -22 -20 -35 l-4 -25 -2 25 c-1 30 30 81 37 60 3 -7
-2 -18 -11 -25z"/>
<path d="M701 2534 c0 -11 3 -14 6 -6 3 7 2 16 -1 19 -3 4 -6 -2 -5 -13z"/>
<path d="M842 2510 c0 -14 2 -19 5 -12 2 6 2 18 0 25 -3 6 -5 1 -5 -13z"/>
<path d="M802 2490 c0 -14 2 -19 5 -12 2 6 2 18 0 25 -3 6 -5 1 -5 -13z"/>
<path d="M734 2435 c-21 -33 -6 -71 31 -81 18 -4 25 -13 25 -30 0 -14 -7 -27
-15 -30 -8 -4 -15 -11 -15 -17 0 -5 9 -2 20 8 11 10 20 26 20 36 0 27 -11 49
-21 43 -11 -6 -39 13 -39 27 0 5 5 9 11 9 5 0 7 -5 3 -12 -5 -8 -2 -9 10 -5
20 8 55 -27 56 -55 0 -11 7 -18 18 -17 10 0 12 3 5 6 -7 2 -13 10 -13 16 0 7
-7 25 -15 41 -13 25 -13 27 0 22 20 -7 19 14 -1 42 -21 30 -59 29 -80 -3z m61
5 c-3 -5 -12 -10 -18 -10 -7 0 -6 4 3 10 19 12 23 12 15 0z m15 -19 c0 -15
-31 -22 -48 -10 -14 9 -14 10 5 6 13 -3 26 -1 29 4 7 12 14 12 14 0z"/>
<path d="M700 2386 c0 -8 4 -17 9 -20 5 -4 7 3 4 14 -6 23 -13 26 -13 6z"/>
<path d="M740 2336 c14 -8 27 -12 29 -10 6 6 -1 11 -29 18 l-25 7 25 -15z"/>
<path d="M690 2330 c0 -5 5 -10 10 -10 6 0 10 5 10 10 0 6 -4 10 -10 10 -5 0
-10 -4 -10 -10z"/>
<path d="M724 2312 c5 -8 -1 -12 -16 -13 -18 -1 -19 -2 -4 -6 23 -6 43 12 25
22 -8 5 -10 4 -5 -3z"/>
<path d="M690 2265 c0 -7 11 -10 30 -7 17 2 30 5 30 7 0 2 -13 5 -30 7 -19 3
-30 0 -30 -7z"/>
<path d="M796 2271 c-3 -5 1 -11 9 -14 9 -4 12 -1 8 9 -6 16 -10 17 -17 5z"/>
<path d="M760 2245 c-11 -13 -10 -14 3 -10 8 4 18 2 22 -4 3 -6 0 -11 -8 -11
-32 0 -61 -37 -62 -76 -1 -22 -5 -48 -9 -59 -6 -16 -6 -17 3 -5 9 13 11 12 11
-3 0 -11 5 -15 11 -11 8 4 8 9 0 17 -15 15 -14 24 4 24 8 0 12 -4 9 -8 -4 -7
34 -24 41 -17 2 1 5 12 7 23 2 16 -2 20 -24 17 -32 -3 -43 11 -24 31 8 8 12
17 9 21 -4 3 1 6 11 6 9 0 14 -4 11 -10 -3 -5 6 -12 20 -16 14 -3 25 -10 25
-15 0 -5 -8 -6 -17 -2 -14 5 -15 3 -6 -7 6 -7 9 -20 6 -29 -5 -13 -3 -14 8 -3
7 7 13 29 12 52 -1 24 3 40 9 40 6 0 8 3 5 7 -4 3 -2 12 5 20 8 11 7 12 -5 8
-8 -4 -18 -17 -21 -31 -8 -31 -25 -31 -19 0 3 14 -2 34 -10 46 -13 18 -16 19
-27 5z m30 -45 c0 -5 -8 -10 -17 -10 -9 0 -25 -7 -35 -17 -10 -9 -18 -11 -18
-5 0 13 39 42 57 42 7 0 13 -4 13 -10z"/>
<path d="M708 2233 c13 -3 19 -9 16 -15 -4 -7 -2 -8 4 -4 21 13 13 26 -15 25
-24 -2 -25 -2 -5 -6z"/>
<path d="M690 2200 c0 -5 5 -10 10 -10 6 0 10 5 10 10 0 6 -4 10 -10 10 -5 0
-10 -4 -10 -10z"/>
<path d="M750 2144 c-13 -15 -6 -17 24 -5 17 6 17 8 3 14 -8 3 -21 -1 -27 -9z"/>
<path d="M701 2134 c0 -11 3 -14 6 -6 3 7 2 16 -1 19 -3 4 -6 -2 -5 -13z"/>
<path d="M743 2034 c0 -17 2 -22 7 -13 5 6 6 18 3 26 -8 19 -10 16 -10 -13z"/>
<path d="M712 2020 c0 -14 2 -19 5 -12 2 6 2 18 0 25 -3 6 -5 1 -5 -13z"/>
<path d="M768 1984 c5 -39 -9 -45 -32 -12 -9 12 -16 17 -16 11 0 -6 7 -16 15
-23 17 -14 20 -30 5 -30 -5 0 -16 12 -24 28 -8 15 -15 22 -16 16 0 -7 9 -22
19 -35 16 -19 22 -22 32 -11 18 17 34 15 20 -2 -8 -9 -8 -15 -2 -18 7 -2 8
-19 3 -48 l-9 -45 -11 35 c-7 25 -10 29 -11 13 -1 -31 41 -78 64 -70 14 6 15
10 5 22 -7 8 -10 21 -7 29 3 8 -1 35 -9 62 -8 26 -14 60 -14 75 0 15 -4 30 -8
33 -4 2 -6 -11 -4 -30z m26 -183 c-2 -2 -4 1 -4 8 0 7 -4 10 -8 7 -4 -2 -6 12
-3 32 l5 37 7 -40 c4 -22 5 -42 3 -44z"/>
<path d="M820 1891 c0 -16 -3 -38 -7 -48 -3 -10 -3 -15 1 -11 13 11 25 78 15
84 -5 3 -9 -8 -9 -25z"/>
<path d="M842 1865 c0 -16 2 -22 5 -12 2 9 2 23 0 30 -3 6 -5 -1 -5 -18z"/>
<path d="M803 1783 c-38 -5 -50 -28 -23 -43 14 -7 20 -7 20 0 0 5 -8 10 -17
10 -15 0 -16 2 -3 10 8 5 23 10 34 10 15 0 16 -3 6 -15 -11 -13 -10 -14 3 -9
9 3 15 14 14 25 -1 10 -1 18 -2 17 0 0 -14 -3 -32 -5z"/>
<path d="M816 1663 c-6 -14 -5 -15 5 -6 7 7 10 15 7 18 -3 3 -9 -2 -12 -12z"/>
<path d="M2454 3858 c-8 -12 30 -48 50 -48 6 1 -1 8 -16 16 -32 17 -36 31 -10
37 15 4 15 5 0 6 -9 0 -20 -4 -24 -11z"/>
<path d="M2518 3848 c24 -12 29 -33 10 -41 -8 -4 -7 -6 3 -6 14 -1 36 27 27
34 -10 8 -48 25 -55 24 -4 0 2 -5 15 -11z"/>
<path d="M2568 3855 c-4 -4 -4 -13 -2 -20 8 -19 -15 -57 -28 -49 -7 4 -8 3 -4
-5 4 -6 11 -9 16 -6 4 3 11 -1 13 -7 3 -7 6 -2 6 11 1 14 9 33 19 44 9 11 12
17 5 14 -6 -4 -13 0 -15 9 -2 9 -6 13 -10 9z"/>
<path d="M2593 3805 c-3 -9 -4 -17 -2 -18 41 -23 161 -67 199 -73 15 -2 12 0
-7 6 -38 12 -42 27 -10 40 22 10 22 10 -3 7 -14 -1 -28 -9 -32 -17 -4 -11 -9
-6 -18 18 -12 31 -46 60 -58 48 -3 -3 0 -6 6 -6 16 0 42 -29 42 -47 0 -14 -3
-13 -22 3 -25 22 -74 54 -83 54 -3 0 -8 -7 -12 -15z m58 -21 c17 -8 29 -17 27
-20 -3 -2 -22 5 -44 16 -21 10 -33 19 -26 20 7 0 27 -7 43 -16z"/>
<path d="M2773 3793 c9 -2 25 -2 35 0 9 3 1 5 -18 5 -19 0 -27 -2 -17 -5z"/>
<path d="M2830 3786 c0 -2 7 -7 16 -10 8 -3 12 -2 9 4 -6 10 -25 14 -25 6z"/>
<path d="M2808 3763 c7 -3 16 -2 19 1 4 3 -2 6 -13 5 -11 0 -14 -3 -6 -6z"/>
<path d="M2889 3748 c23 -29 4 -34 -26 -7 -25 22 -26 22 -9 2 19 -23 19 -23 0
-23 -11 0 -26 6 -34 13 -12 10 -12 9 -1 -5 10 -14 27 -18 70 -17 31 0 50 3 42
6 -8 3 -24 16 -35 27 -12 12 -15 14 -7 4z"/>
<path d="M2596 3747 c4 -10 16 -22 28 -29 18 -9 19 -8 6 3 -8 8 -20 21 -27 29
-11 13 -12 13 -7 -3z"/>
<path d="M2950 3706 c0 -2 8 -10 18 -17 15 -13 16 -12 3 4 -13 16 -21 21 -21
13z"/>
<path d="M2877 3682 c-10 -10 -17 -28 -17 -40 0 -23 25 -52 44 -52 8 0 19 -6
25 -14 10 -12 8 -15 -11 -19 -17 -3 -16 -4 5 -2 19 1 27 -3 27 -16 0 -9 8 -23
18 -30 14 -11 15 -11 5 1 -7 8 -13 22 -13 31 0 9 -6 22 -14 28 -22 18 -26 60
-7 71 11 6 12 9 3 10 -7 0 -10 5 -7 10 4 6 11 8 16 5 13 -9 11 -43 -3 -48 -10
-3 -10 -7 1 -20 7 -10 19 -17 25 -16 7 0 6 3 -2 6 -9 3 -11 16 -6 39 11 61
-50 99 -89 56z m37 -40 c-4 -9 -6 -23 -5 -29 1 -7 -3 -13 -9 -13 -6 0 -8 5 -5
10 3 6 1 10 -6 10 -8 0 -6 7 5 19 9 10 14 26 10 37 -5 18 -5 18 6 1 6 -10 8
-26 4 -35z"/>
<path d="M2992 3678 c-7 -7 -12 -17 -12 -22 0 -6 7 -2 15 8 14 19 15 19 15 -7
0 -32 6 -33 33 -9 20 16 20 16 13 -8 -4 -14 -10 -37 -13 -53 -4 -23 -2 -26 12
-21 11 5 13 9 5 14 -8 5 -8 14 1 33 13 29 24 34 32 15 3 -8 6 -6 6 5 1 9 -5
17 -13 17 -8 0 -16 6 -19 13 -3 8 -10 7 -26 -7 -21 -19 -21 -19 -21 7 0 29 -9
34 -28 15z"/>
<path d="M3120 3615 c-7 -9 -19 -14 -27 -11 -7 3 -13 1 -13 -4 0 -14 24 -12
38 2 8 8 12 9 12 1 0 -18 -30 -44 -42 -37 -7 4 -8 2 -4 -4 12 -20 -4 -34 -22
-21 -10 7 -8 3 3 -9 11 -12 32 -23 46 -24 16 -1 26 -8 26 -20 1 -10 -3 -18 -8
-18 -6 0 -8 4 -4 9 6 11 -13 26 -22 17 -12 -12 31 -46 57 -46 28 0 42 11 52
41 10 26 -35 16 -49 -12 -12 -23 -13 -23 -13 -3 0 24 24 49 39 40 5 -4 12 -2
15 3 8 13 -31 20 -43 8 -8 -8 -11 -6 -11 5 0 13 7 16 28 12 20 -3 23 -2 12 6
-24 15 -48 12 -71 -11 -11 -11 -24 -18 -27 -14 -4 4 4 16 18 28 14 12 26 34
28 50 4 31 0 33 -18 12z m20 -85 c0 -5 -4 -10 -10 -10 -5 0 -10 5 -10 10 0 6
5 10 10 10 6 0 10 -4 10 -10z"/>
<path d="M2980 3609 c0 -5 5 -7 10 -4 6 3 10 8 10 11 0 2 -4 4 -10 4 -5 0 -10
-5 -10 -11z"/>
<path d="M3180 3576 c0 -2 7 -7 16 -10 8 -3 12 -2 9 4 -6 10 -25 14 -25 6z"/>
<path d="M2998 3549 c-10 -5 -18 -15 -18 -20 0 -6 8 -3 17 7 16 15 17 15 24
-2 7 -17 8 -17 8 4 1 24 -5 27 -31 11z"/>
<path d="M3240 3509 c11 -21 25 -39 30 -39 6 0 10 -8 10 -17 1 -16 2 -16 11 1
9 15 13 16 20 5 14 -23 10 -39 -8 -33 -13 4 -13 2 2 -7 27 -16 95 -81 95 -91
0 -4 -8 -5 -17 -2 -17 5 -17 5 0 -6 9 -6 25 -9 35 -6 10 4 27 -1 38 -9 16 -13
17 -16 4 -25 -10 -7 -11 -10 -2 -10 7 0 17 11 24 25 21 46 -37 102 -93 91 -16
-3 -29 -1 -29 4 0 5 17 11 38 13 l37 4 -37 1 c-25 1 -38 7 -41 20 -3 12 -5 11
-6 -6 -1 -27 -21 -20 -21 8 0 10 -12 32 -26 47 -14 15 -23 22 -19 16 4 -8 0
-13 -10 -13 -11 0 -15 5 -11 16 3 8 2 13 -3 10 -5 -3 -11 1 -15 9 -6 18 7 19
37 4 16 -9 19 -9 11 0 -6 6 -25 15 -42 20 l-32 10 20 -40z m216 -154 c29 -29
24 -51 -7 -35 -11 6 -25 8 -31 4 -6 -4 -8 -3 -5 3 4 6 0 14 -9 17 -9 4 -14 9
-11 12 3 3 19 -2 36 -11 17 -8 31 -13 31 -10 0 3 -19 15 -42 25 -40 18 -41 20
-15 20 17 0 38 -10 53 -25z"/>
<path d="M3336 3467 c3 -10 9 -15 12 -12 3 3 0 11 -7 18 -10 9 -11 8 -5 -6z"/>
<path d="M3095 3450 c10 -11 20 -20 23 -20 3 0 -3 9 -13 20 -10 11 -20 20 -23
20 -3 0 3 -9 13 -20z"/>
<path d="M3162 3433 c-28 -4 -31 -7 -21 -19 10 -12 14 -12 21 -2 6 10 10 10
18 -2 8 -13 10 -12 10 3 0 20 20 22 40 5 12 -11 12 -10 1 5 -7 9 -19 16 -25
15 -6 0 -26 -3 -44 -5z"/>
<path d="M3214 3386 c11 -9 32 -16 48 -16 15 0 28 -4 28 -10 0 -5 7 -10 15
-10 8 0 15 -4 15 -10 0 -5 4 -9 8 -7 5 1 21 -13 36 -30 15 -18 35 -33 44 -33
12 0 9 4 -8 13 -14 7 -29 21 -34 32 -5 11 -33 34 -63 52 -29 17 -51 27 -48 22
8 -12 -11 -11 -38 2 -21 10 -21 10 -3 -5z"/>
<path d="M3441 3398 c2 -2 18 -14 34 -28 l30 -25 -24 28 c-14 15 -29 27 -34
27 -6 0 -8 -1 -6 -2z"/>
<path d="M3258 3343 c7 -3 16 -2 19 1 4 3 -2 6 -13 5 -11 0 -14 -3 -6 -6z"/>
<path d="M3501 3314 c0 -17 -7 -37 -15 -44 -19 -15 -9 -42 14 -35 9 3 24 -3
35 -15 10 -11 23 -20 28 -20 5 0 -2 9 -17 21 -14 11 -26 25 -26 30 0 16 26 10
56 -13 20 -16 25 -17 15 -5 -8 10 -26 24 -41 32 -24 12 -27 12 -39 -7 -7 -11
-15 -17 -18 -14 -9 9 27 57 37 51 6 -4 10 -1 10 5 0 7 -6 10 -14 7 -10 -4 -16
2 -19 16 -3 16 -5 13 -6 -9z"/>
<path d="M3767 2913 c-4 -3 -7 -11 -7 -17 0 -6 5 -4 10 4 7 12 11 10 19 -10 6
-15 10 -19 10 -9 1 19 -23 42 -32 32z"/>
<path d="M3764 2838 c3 -9 0 -18 -6 -20 -6 -2 -12 -14 -13 -26 -1 -17 2 -19
16 -11 27 14 47 11 69 -11 11 -11 20 -16 20 -11 0 5 -6 14 -14 21 -8 6 -12 18
-9 26 3 8 -1 14 -11 14 -9 0 -16 8 -17 18 0 15 -1 14 -8 -3 -8 -19 -8 -19 -20
0 -9 14 -11 15 -7 3z m44 -35 c-10 -2 -28 -2 -40 0 -13 2 -5 4 17 4 22 1 32
-1 23 -4z"/>
<path d="M3756 2751 c-12 -13 -16 -30 -13 -53 l4 -33 1 34 c1 19 9 43 19 53 9
10 14 18 11 18 -3 0 -13 -9 -22 -19z"/>
<path d="M3790 2734 c0 -21 -4 -33 -10 -29 -6 3 -10 -4 -10 -17 0 -17 3 -19 9
-9 8 13 12 1 35 -114 2 -13 4 -10 5 9 1 22 5 27 19 22 11 -4 9 0 -7 14 -22 19
-23 22 -7 38 9 10 16 23 16 28 0 5 -5 2 -10 -6 -7 -11 -10 -3 -10 30 0 33 3
41 10 30 6 -9 10 -10 10 -3 0 14 -27 43 -41 43 -5 0 -9 -16 -9 -36z m17 -51
c-2 -16 -4 -5 -4 22 0 28 2 40 4 28 2 -13 2 -35 0 -50z"/>
<path d="M3847 2661 c-4 -17 -3 -21 5 -13 5 5 8 16 6 23 -3 8 -7 3 -11 -10z"/>
<path d="M3841 2563 c7 -12 15 -20 18 -17 3 2 -3 12 -13 22 -17 16 -18 16 -5
-5z"/>
<path d="M3865 2572 c4 -8 11 -26 15 -40 7 -22 8 -23 9 -6 1 11 -6 29 -15 40
-8 10 -12 13 -9 6z"/>
<path d="M3827 2528 c6 -7 13 -20 16 -28 4 -10 6 -8 6 6 1 12 -6 25 -15 28
-13 5 -14 3 -7 -6z"/>
<path d="M3742 2505 c0 -16 2 -22 5 -12 2 9 2 23 0 30 -3 6 -5 -1 -5 -18z"/>
<path d="M3858 2500 c-3 -16 -1 -30 4 -30 4 0 8 14 8 30 0 17 -2 30 -4 30 -2
0 -6 -13 -8 -30z"/>
<path d="M3778 2487 c-3 -19 -2 -25 4 -19 6 6 8 18 6 28 -3 14 -5 12 -10 -9z"/>
<path d="M3877 2469 c-3 -12 -2 -31 2 -42 6 -17 8 -12 8 21 0 47 -2 52 -10 21z"/>
<path d="M3751 2463 c-1 -6 -4 -20 -7 -30 -5 -17 -5 -17 6 0 6 10 9 23 6 30
-3 9 -5 9 -5 0z"/>
<path d="M3779 2439 c-17 -17 -20 -28 -15 -57 6 -35 5 -36 -9 -18 -8 11 -15
15 -15 9 0 -7 5 -15 11 -19 6 -3 9 -15 6 -25 -3 -11 -1 -19 4 -19 5 0 9 8 9
19 0 10 7 24 15 31 12 10 13 6 9 -27 -3 -21 -2 -33 3 -27 4 6 15 14 23 17 12
4 11 6 -2 6 -25 1 -23 21 1 21 20 0 51 35 51 57 0 18 -37 53 -55 53 -8 0 -24
-9 -36 -21z m55 -31 c-3 -4 -14 -8 -24 -8 -10 0 -21 4 -24 8 -3 5 8 9 24 9 16
0 27 -4 24 -9z m20 -12 c-6 -15 -24 -23 -24 -11 0 8 24 34 28 30 1 -1 0 -10
-4 -19z m-64 -6 c0 -5 -4 -10 -10 -10 -5 0 -10 5 -10 10 0 6 5 10 10 10 6 0
10 -4 10 -10z m40 -15 c10 -12 9 -15 -4 -15 -10 0 -15 4 -12 9 4 5 0 12 -6 14
-8 4 -9 6 -2 6 6 1 17 -6 24 -14z"/>
<path d="M3881 2388 c-1 -10 -10 -27 -20 -37 -19 -19 -19 -19 10 -23 16 -3 29
-1 29 4 0 4 -7 8 -15 8 -13 0 -14 4 -5 21 6 11 9 25 6 32 -2 7 -5 4 -5 -5z"/>
<path d="M3857 2313 c-13 -12 -7 -21 18 -25 13 -3 22 -1 19 3 -3 5 -13 9 -22
9 -15 0 -15 2 -2 10 8 5 10 10 4 10 -6 0 -14 -3 -17 -7z"/>
<path d="M3768 2271 c9 -10 19 -18 22 -18 19 -1 21 -5 10 -18 -8 -9 -10 -27
-6 -46 5 -27 4 -30 -9 -19 -8 7 -15 21 -15 31 0 11 -4 19 -9 19 -10 0 -9 -19
2 -38 5 -7 5 -21 2 -33 -10 -32 21 -71 53 -67 15 2 26 8 25 14 -1 6 5 11 13
11 18 0 18 1 -7 -44 -11 -21 -14 -30 -6 -21 7 10 17 15 20 11 4 -3 7 2 7 13 0
34 20 -7 21 -46 1 -26 3 -29 6 -11 3 13 -5 55 -18 94 -19 58 -27 72 -51 81
-31 11 -38 43 -13 53 12 4 8 11 -19 29 -42 29 -52 31 -28 5z m62 -100 c0 -6
-4 -13 -10 -16 -5 -3 -10 1 -10 9 0 9 5 16 10 16 6 0 10 -4 10 -9z m24 -27 c9
-24 7 -27 -9 -10 -17 17 -19 26 -6 26 5 0 12 -7 15 -16z m-64 -5 c0 -6 6 -9
13 -6 8 3 20 1 28 -4 11 -7 11 -9 -3 -9 -9 0 -24 -3 -34 -7 -12 -4 -15 -3 -10
5 4 7 2 12 -3 12 -6 0 -11 5 -11 10 0 6 5 10 10 10 6 0 10 -5 10 -11z"/>
<path d="M3821 2283 c-1 -7 8 -17 18 -23 25 -13 61 -13 61 0 0 6 -15 10 -34
10 -19 0 -37 6 -39 13 -4 9 -6 9 -6 0z"/>
<path d="M3856 2231 c-6 -9 7 -22 34 -35 8 -4 4 1 -9 12 l-25 20 25 5 c22 4
22 4 2 6 -12 0 -24 -3 -27 -8z"/>
<path d="M3820 2210 c0 -5 5 -10 11 -10 5 0 7 5 4 10 -3 6 -8 10 -11 10 -2 0
-4 -4 -4 -10z"/>
<path d="M3857 2189 c7 -7 15 -10 18 -7 3 3 -2 9 -12 12 -14 6 -15 5 -6 -5z"/>
<path d="M3740 2092 c0 -7 4 -12 10 -12 5 0 7 -13 4 -30 -4 -16 -3 -42 1 -57
l8 -28 7 25 c11 35 11 60 0 35 -8 -18 -9 -17 -9 8 -1 16 3 26 9 22 18 -11 10
11 -10 30 -11 10 -20 13 -20 7z"/>
<path d="M3872 2020 c0 -14 2 -19 5 -12 2 6 2 18 0 25 -3 6 -5 1 -5 -13z"/>
<path d="M3824 2006 c-10 -8 -16 -18 -11 -22 4 -4 7 -2 7 4 0 7 7 12 15 12 8
0 15 5 15 10 0 13 -3 13 -26 -4z"/>
<path d="M3852 1970 c-7 -11 -21 -20 -31 -20 -18 0 -31 -37 -36 -105 -4 -49
-5 -51 -20 -31 -8 11 -15 34 -14 50 l1 31 9 -32 c13 -44 19 -42 12 5 -7 45
-11 51 -23 32 -24 -38 2 -110 39 -110 23 0 34 37 26 88 -6 35 -5 36 9 18 9
-11 16 -16 16 -11 0 5 -7 17 -17 27 -9 10 -13 21 -9 25 4 4 15 -1 24 -12 9
-11 16 -18 14 -16 -1 2 6 14 15 25 17 20 17 20 0 7 -25 -19 -34 -5 -12 19 10
11 16 22 14 25 -3 2 -10 -5 -17 -15z m-52 -157 c-11 -17 -11 -17 -6 0 3 10 7
28 7 40 2 22 2 22 6 0 2 -12 -1 -30 -7 -40z"/>
<path d="M3744 1946 c0 -13 4 -22 9 -19 10 6 9 31 -2 37 -5 3 -8 -5 -7 -18z"/>
<path d="M3841 1854 c0 -11 3 -14 6 -6 3 7 2 16 -1 19 -3 4 -6 -2 -5 -13z"/>
<path d="M3747 1790 c6 -7 9 -18 7 -24 -3 -8 7 -11 33 -10 30 3 33 2 12 -4
-23 -6 -25 -9 -13 -20 8 -7 14 -8 14 -2 0 5 7 10 16 10 11 0 14 5 10 16 -3 9
-6 17 -6 20 0 2 -7 1 -15 -2 -8 -4 -27 2 -43 11 -15 10 -22 12 -15 5z"/>
<path d="M3760 1671 c0 -10 19 -25 25 -20 1 2 -3 10 -11 17 -8 7 -14 8 -14 3z"/>
<path d="M2627 2676 c-12 -30 14 -86 39 -86 19 0 18 45 -2 75 -18 28 -29 31
-37 11z m37 -56 c7 -24 6 -24 -8 -6 -9 11 -16 27 -16 35 0 21 16 2 24 -29z"/>
<path d="M1095 1280 c3 -5 11 -10 16 -10 6 0 7 5 4 10 -3 6 -11 10 -16 10 -6
0 -7 -4 -4 -10z"/>
<path d="M1268 1243 c7 -3 16 -2 19 1 4 3 -2 6 -13 5 -11 0 -14 -3 -6 -6z"/>
<path d="M1161 1150 c0 -31 65 -90 99 -90 8 0 -4 9 -27 21 -25 12 -47 33 -57
52 -8 18 -16 25 -15 17z"/>
<path d="M1190 1141 c0 -9 49 -56 53 -50 1 2 -10 16 -25 31 -15 15 -28 23 -28
19z"/>
<path d="M1236 1141 c-3 -4 6 -13 19 -19 30 -14 31 -12 5 10 -10 10 -22 14
-24 9z"/>
<path d="M1329 1129 c-16 -16 -20 -29 -15 -50 7 -35 1 -37 -16 -4 -10 18 -17
22 -28 15 -13 -8 -12 -10 4 -10 12 0 16 -5 12 -15 -3 -9 0 -15 8 -15 7 0 19
-7 26 -15 7 -8 18 -15 24 -15 6 0 3 5 -7 11 -17 10 -15 29 4 29 6 0 7 -4 4
-10 -10 -16 51 -12 65 5 16 19 31 19 24 0 -3 -8 -14 -17 -25 -20 -20 -7 -45
-43 -35 -52 3 -3 11 -1 18 4 7 6 22 13 33 17 12 3 9 4 -7 2 -16 -2 -28 0 -28
5 0 11 35 20 53 13 8 -3 26 0 40 8 19 10 23 17 16 33 -7 19 -8 19 -8 -2 -1
-29 -4 -29 -35 2 -30 30 -42 31 -48 7 -5 -18 -48 -28 -48 -11 0 5 5 9 10 9 6
0 10 8 11 18 0 11 2 12 6 4 4 -10 8 -10 19 -1 8 6 25 9 39 7 14 -3 28 -1 32 5
3 6 1 7 -5 3 -7 -4 -12 -3 -12 3 0 6 -7 8 -15 5 -8 -3 -26 4 -41 15 -34 26
-49 26 -75 0z m71 -10 c0 -5 -7 -9 -15 -9 -8 0 -15 -7 -15 -15 0 -8 -3 -15 -7
-16 -5 0 -16 -2 -25 -4 -10 -2 -18 1 -18 6 0 6 8 9 18 7 11 -2 18 4 20 17 3
20 42 33 42 14z m60 -74 c0 -8 -4 -15 -10 -15 -5 0 -10 7 -10 15 0 8 5 15 10
15 6 0 10 -7 10 -15z"/>
<path d="M1458 990 c-33 -33 -43 -38 -34 -14 3 8 2 12 -4 9 -18 -11 -10 -30
17 -42 23 -11 29 -10 45 7 10 11 14 20 9 20 -6 0 -14 -8 -20 -17 -15 -27 -23
-9 -10 21 14 29 25 32 53 11 17 -13 18 -18 7 -42 -10 -22 -14 -24 -22 -12 -7
12 -9 11 -9 -3 0 -20 15 -24 25 -8 3 6 18 -3 32 -20 13 -16 29 -30 34 -30 6 0
-2 11 -17 23 -19 17 -27 33 -26 55 1 37 10 55 23 46 5 -3 7 -9 4 -14 -3 -4 2
-11 11 -14 10 -4 13 -2 8 7 -14 24 -37 47 -48 47 -6 0 -4 -4 4 -10 12 -8 12
-10 -2 -15 -23 -9 -45 4 -27 16 11 7 10 9 -4 9 -10 0 -32 -13 -49 -30z"/>
<path d="M1759 938 c12 -16 12 -18 -4 -18 -10 0 3 -11 30 -25 30 -15 54 -21
63 -16 10 6 5 10 -19 15 -18 3 -44 19 -58 34 -14 16 -20 20 -12 10z"/>
<path d="M1640 870 c0 -15 56 -40 87 -39 25 2 25 2 5 6 -13 3 -21 10 -19 17 3
6 -3 12 -13 12 -10 0 -16 -5 -13 -10 4 -5 -1 -7 -11 -3 -10 4 -21 7 -24 7 -4
0 0 5 8 10 13 8 12 10 -2 10 -10 0 -18 -4 -18 -10z"/>
<path d="M1635 840 c21 -16 45 -30 54 -30 9 1 2 7 -14 14 -17 7 -36 20 -44 29
-7 10 -18 17 -24 17 -5 0 7 -13 28 -30z"/>
<path d="M1718 803 c7 -3 16 -2 19 1 4 3 -2 6 -13 5 -11 0 -14 -3 -6 -6z"/>
<path d="M1981 793 c-1 -12 -13 -32 -28 -44 -16 -12 -20 -19 -11 -16 9 3 19 1
21 -6 3 -9 8 -9 18 0 9 9 16 9 25 2 9 -8 11 -5 7 10 -3 14 0 21 8 21 9 1 8 4
-4 11 -9 6 -14 15 -11 21 4 6 3 8 -4 4 -5 -3 -13 0 -15 6 -3 7 -6 3 -6 -9z m9
-43 c-6 -12 -14 -19 -17 -17 -2 3 1 15 7 27 6 12 14 19 17 17 2 -3 -1 -15 -7
-27z"/>
<path d="M2058 744 c27 -18 28 -31 5 -37 -14 -4 -12 -5 5 -6 12 0 22 5 22 12
0 15 -31 47 -46 47 -4 0 2 -7 14 -16z"/>
<path d="M1878 733 c7 -3 16 -2 19 1 4 3 -2 6 -13 5 -11 0 -14 -3 -6 -6z"/>
<path d="M3602 1376 c7 -8 15 -12 17 -11 5 6 -10 25 -20 25 -5 0 -4 -6 3 -14z"/>
<path d="M3496 1335 c-3 -8 -1 -15 4 -15 5 0 12 -9 15 -20 4 -11 15 -20 27
-20 14 0 18 5 14 15 -3 10 5 20 24 30 17 9 30 18 30 21 0 2 -14 -3 -30 -11
-28 -14 -32 -14 -46 0 -19 19 -30 19 -38 0z m45 -28 c12 -22 12 -22 -10 -3
-11 11 -21 23 -21 28 0 14 19 -1 31 -25z"/>
<path d="M3474 1301 c3 -4 -4 -17 -15 -27 -19 -17 -20 -17 -13 1 6 15 4 17
-10 12 -10 -4 -21 -7 -24 -7 -4 0 0 -5 8 -11 12 -8 4 -19 -45 -64 -32 -30 -56
-57 -53 -61 4 -3 -3 -15 -15 -25 l-22 -19 28 13 c16 7 25 17 22 26 -6 16 12
41 31 41 8 0 14 -8 14 -17 0 -15 2 -16 10 -3 9 13 11 13 20 0 6 -9 10 -10 10
-3 0 6 8 14 18 16 9 3 3 5 -15 6 -17 0 -35 6 -39 12 -4 8 3 10 22 7 16 -3 23
-3 17 -1 -22 8 -14 19 27 37 22 10 40 22 40 27 0 6 -6 7 -12 3 -9 -5 -9 -2 1
9 14 17 26 24 17 9 -2 -4 -1 -14 5 -22 7 -12 9 -11 9 6 0 11 -5 25 -12 32 -14
14 -32 16 -24 3z m-8 -50 c-3 -5 -16 -11 -28 -14 -22 -6 -22 -5 -4 8 22 17 40
20 32 6z"/>
<path d="M3387 1282 c-21 -23 -22 -33 -2 -25 9 3 13 8 11 11 -3 3 -1 11 5 19
17 20 5 16 -14 -5z"/>
<path d="M3315 1240 c19 -9 19 -9 -2 -16 -13 -3 -23 -12 -23 -20 0 -7 -10 -20
-22 -28 -12 -9 -18 -16 -12 -16 6 0 22 12 35 28 14 15 36 35 49 44 l25 17 -35
0 c-29 0 -31 -2 -15 -9z"/>
<path d="M3471 1220 c-13 -11 -19 -20 -14 -20 6 0 18 9 28 20 23 25 17 25 -14
0z"/>
<path d="M3487 1205 c-15 -14 -24 -25 -19 -25 5 0 19 11 32 25 30 32 23 32
-13 0z"/>
<path d="M3206 1185 c-11 -8 -15 -15 -9 -15 6 0 17 -2 25 -5 7 -3 19 5 27 17
l14 23 -23 -20 c-20 -17 -23 -18 -17 -2 8 20 7 20 -17 2z"/>
<path d="M3366 1125 c-3 -9 -20 -22 -38 -30 -18 -8 -25 -14 -16 -15 20 0 76
45 67 55 -4 3 -9 -1 -13 -10z"/>
<path d="M3376 1101 l-30 -36 34 32 c19 18 32 34 29 36 -2 2 -17 -12 -33 -32z"/>
<path d="M2997 1036 c-9 -7 -17 -17 -17 -23 0 -5 -15 -13 -32 -18 -28 -9 -33
-15 -35 -43 -2 -37 19 -62 51 -62 27 0 56 29 55 56 0 17 -2 17 -11 -3 -12 -25
-34 -32 -24 -8 3 8 1 15 -4 15 -15 0 -12 -38 3 -43 6 -2 -1 -4 -17 -4 -19 0
-24 2 -15 8 17 11 -2 45 -23 41 -8 -1 -6 3 4 11 10 8 15 17 11 20 -3 4 -1 7 6
7 7 0 11 -7 8 -15 -4 -8 -2 -17 3 -20 4 -3 14 11 20 30 6 19 19 39 28 44 9 5
15 12 12 14 -3 3 -13 0 -23 -7z"/>
<path d="M2948 1023 c7 -3 16 -2 19 1 4 3 -2 6 -13 5 -11 0 -14 -3 -6 -6z"/>
<path d="M3004 993 c-13 -14 -22 -29 -18 -32 3 -3 13 3 21 14 11 14 17 16 20
8 3 -7 10 -13 16 -13 8 0 7 4 -1 12 -18 18 -15 28 9 28 15 0 19 -4 15 -16 -6
-14 -4 -15 9 -4 13 11 13 15 3 21 -24 15 -49 9 -74 -18z"/>
<path d="M3188 1013 c6 -2 18 -2 25 0 6 3 1 5 -13 5 -14 0 -19 -2 -12 -5z"/>
<path d="M3141 998 c0 -7 4 -22 9 -33 7 -16 8 -14 7 12 -1 18 -5 33 -9 33 -5
0 -8 -6 -7 -12z"/>
<path d="M3104 988 c3 -10 9 -25 12 -33 3 -8 2 -15 -4 -15 -5 0 -12 7 -16 15
-9 24 -24 17 -28 -12 l-4 -28 -11 25 c-7 15 -12 19 -12 9 -1 -9 8 -24 19 -34
20 -18 20 -17 20 15 0 31 1 32 14 15 8 -11 19 -16 30 -12 21 8 20 20 -5 48
-15 17 -19 19 -15 7z"/>
<path d="M3170 995 c0 -2 7 -8 15 -15 12 -10 15 -10 15 2 0 8 -7 15 -15 15 -8
0 -15 -1 -15 -2z"/>
<path d="M2828 913 c7 -3 16 -2 19 1 4 3 -2 6 -13 5 -11 0 -14 -3 -6 -6z"/>
<path d="M3013 893 c-12 -13 -19 -23 -14 -23 10 0 46 39 40 43 -2 2 -14 -7
-26 -20z"/>
<path d="M2840 862 c8 -3 19 -11 23 -18 11 -19 28 -18 21 1 -4 10 0 15 11 15
10 0 13 -4 9 -12 -5 -9 -2 -9 9 1 9 7 17 15 17 17 0 1 -24 3 -52 2 -29 0 -46
-3 -38 -6z"/>
<path d="M2945 860 c3 -5 -9 -19 -27 -30 -18 -11 -28 -20 -22 -20 6 0 28 14
49 30 33 26 35 30 16 30 -12 0 -19 -4 -16 -10z"/>
<path d="M2634 838 l-19 -23 25 20 c14 11 27 21 29 22 2 2 0 3 -6 3 -5 0 -18
-10 -29 -22z"/>
<path d="M2765 839 c-27 -10 -60 -17 -73 -15 -14 2 -21 -1 -19 -8 4 -12 -21
-35 -40 -36 -6 0 -14 8 -16 18 -4 13 -5 14 -6 1 0 -8 5 -23 13 -34 13 -17 15
-17 57 7 26 14 43 30 41 39 -3 11 -1 11 9 2 10 -10 9 -17 -6 -33 -10 -11 -25
-20 -34 -21 -11 0 -12 -2 -3 -6 15 -6 62 34 62 53 0 7 5 16 10 19 20 13 9 -24
-17 -57 l-27 -33 27 24 c15 13 29 32 32 43 5 14 10 16 25 8 10 -6 34 -9 52 -9
30 1 30 2 -9 8 -53 9 -62 17 -37 36 23 17 22 17 -41 -6z m-45 -34 c0 -8 -61
-37 -67 -32 -3 3 8 12 24 21 29 16 43 19 43 11z"/>
<path d="M2562 771 c1 -16 -4 -37 -12 -47 -13 -18 -13 -18 5 -2 18 17 20 17
39 0 11 -9 16 -11 12 -4 -4 7 -1 12 9 12 13 0 12 5 -6 30 -32 42 -51 47 -47
11z m38 -35 c0 -6 -7 -2 -15 8 -8 11 -15 25 -15 30 0 6 7 2 15 -8 8 -11 15
-25 15 -30z"/>
<path d="M2502 744 c-31 -22 -28 -44 6 -43 23 2 24 2 5 6 -32 6 -28 22 10 38
17 8 25 14 17 15 -9 0 -26 -7 -38 -16z"/>
<path d="M2665 730 c-28 -7 -28 -8 -5 -9 14 0 32 4 40 9 17 11 8 11 -35 0z"/>
</g>
</svg>
